<ttFont>
<head>
    <!-- Most of this table will be recalculated by the compiler -->
    <tableVersion value="1.0"/>
    <fontRevision value="2.202"/>
    <checkSumAdjustment value="0xab8aa719"/>
    <magicNumber value="0x5f0f3cf5"/>
    <flags value="00000000 00000011"/>
    <unitsPerEm value="1000"/>
    <created value="Thu Mar 17 16:28:55 2016"/>
    <modified value="Thu Mar 17 16:31:57 2016"/>
    <xMin value="-88"/>
    <yMin value="-245"/>
    <xMax value="924"/>
    <yMax value="996"/>
    <macStyle value="00000000 00000000"/>
    <lowestRecPPEM value="5"/>
    <fontDirectionHint value="2"/>
    <indexToLocFormat value="0"/>
    <glyphDataFormat value="0"/>
  </head>
    <TTGlyph name=".notdef" xMin="0" yMin="-200" xMax="500" yMax="800">
      <contour>
        <pt x="0" y="-200" on="1"/>
        <pt x="0" y="800" on="1"/>
        <pt x="500" y="800" on="1"/>
        <pt x="500" y="-200" on="1"/>
      </contour>
      <contour>
        <pt x="71" y="750" on="1"/>
        <pt x="250" y="360" on="1"/>
        <pt x="429" y="750" on="1"/>
      </contour>
      <contour>
        <pt x="450" y="676" on="1"/>
        <pt x="278" y="300" on="1"/>
        <pt x="450" y="-76" on="1"/>
      </contour>
      <contour>
        <pt x="50" y="-76" on="1"/>
        <pt x="222" y="300" on="1"/>
        <pt x="50" y="676" on="1"/>
      </contour>
      <contour>
        <pt x="250" y="240" on="1"/>
        <pt x="71" y="-150" on="1"/>
        <pt x="429" y="-150" on="1"/>
      </contour>
    </TTGlyph>
    <TTGlyph name="A" xMin="23" yMin="-7" xMax="569" yMax="693">
      <contour>
        <pt x="480" y="-7" on="1"/>
        <pt x="413" y="207" on="1"/>
        <pt x="181" y="207" on="1"/>
        <pt x="117" y="0" on="1"/>
        <pt x="23" y="0" on="1"/>
        <pt x="251" y="693" on="1"/>
        <pt x="345" y="693" on="1"/>
        <pt x="569" y="13" on="1"/>
      </contour>
      <contour>
        <pt x="296" y="582" on="1"/>
        <pt x="206" y="289" on="1"/>
        <pt x="387" y="289" on="1"/>
      </contour>
    </TTGlyph>
    <TTGlyph name="A.flat" xMin="23" yMin="0" xMax="573" yMax="693">
      <contour>
        <pt x="296" y="582" on="1"/>
        <pt x="206" y="289" on="1"/>
        <pt x="387" y="289" on="1"/>
      </contour>
      <contour>
        <pt x="477" y="0" on="1"/>
        <pt x="413" y="207" on="1"/>
        <pt x="181" y="207" on="1"/>
        <pt x="117" y="0" on="1"/>
        <pt x="23" y="0" on="1"/>
        <pt x="251" y="693" on="1"/>
        <pt x="345" y="693" on="1"/>
        <pt x="573" y="0" on="1"/>
      </contour>
    </TTGlyph>
    <TTGlyph name="AE" xMin="3" yMin="0" xMax="750" yMax="690">
      <contour>
        <pt x="404" y="289" on="1"/>
        <pt x="404" y="608" on="1"/>
        <pt x="244" y="289" on="1"/>
      </contour>
      <contour>
        <pt x="404" y="0" on="1"/>
        <pt x="404" y="208" on="1"/>
        <pt x="204" y="208" on="1"/>
        <pt x="100" y="0" on="1"/>
        <pt x="3" y="0" on="1"/>
        <pt x="353" y="690" on="1"/>
        <pt x="740" y="690" on="1"/>
        <pt x="740" y="606" on="1"/>
        <pt x="495" y="606" on="1"/>
        <pt x="495" y="403" on="1"/>
        <pt x="684" y="403" on="1"/>
        <pt x="698" y="319" on="1"/>
        <pt x="495" y="319" on="1"/>
        <pt x="495" y="85" on="1"/>
        <pt x="750" y="85" on="1"/>
        <pt x="750" y="0" on="1"/>
      </contour>
    </TTGlyph>
    <TTGlyph name="AE.flat" xMin="3" yMin="0" xMax="750" yMax="690">
      <contour>
        <pt x="404" y="289" on="1"/>
        <pt x="404" y="608" on="1"/>
        <pt x="244" y="289" on="1"/>
      </contour>
      <contour>
        <pt x="404" y="0" on="1"/>
        <pt x="404" y="208" on="1"/>
        <pt x="204" y="208" on="1"/>
        <pt x="100" y="0" on="1"/>
        <pt x="3" y="0" on="1"/>
        <pt x="353" y="690" on="1"/>
        <pt x="740" y="690" on="1"/>
        <pt x="740" y="606" on="1"/>
        <pt x="495" y="606" on="1"/>
        <pt x="495" y="403" on="1"/>
        <pt x="691" y="403" on="1"/>
        <pt x="691" y="319" on="1"/>
        <pt x="495" y="319" on="1"/>
        <pt x="495" y="85" on="1"/>
        <pt x="750" y="85" on="1"/>
        <pt x="750" y="0" on="1"/>
      </contour>
    </TTGlyph>
    <TTGlyph name="AEacute" xMin="3" yMin="0" xMax="750" yMax="892">
      <component glyphName="AE" x="0" y="0" flags="0x204"/>
      <component glyphName="acute" x="302" y="203" flags="0x4"/>
    </TTGlyph>
    <TTGlyph name="AEacute.flat" xMin="3" yMin="0" xMax="750" yMax="892">
      <component glyphName="AE.flat" x="0" y="0" flags="0x204"/>
      <component glyphName="acute" x="302" y="203" flags="0x4"/>
    </TTGlyph>
    <TTGlyph name="Aacute" xMin="23" yMin="-7" xMax="569" yMax="899">
      <component glyphName="A" x="0" y="0" flags="0x204"/>
      <component glyphName="acute" x="144" y="210" flags="0x4"/>
    </TTGlyph>
    <TTGlyph name="Aacute.flat" xMin="23" yMin="0" xMax="573" yMax="899">
      <component glyphName="A.flat" x="0" y="0" flags="0x204"/>
      <component glyphName="acute" x="145" y="210" flags="0x4"/>
    </TTGlyph>
    <TTGlyph name="Abreve" xMin="23" yMin="-7" xMax="569" yMax="878">
      <component glyphName="A" x="0" y="0" flags="0x204"/>
      <component glyphName="breve" x="93" y="210" flags="0x4"/>
    </TTGlyph>
    <TTGlyph name="Abreve.flat" xMin="23" yMin="0" xMax="573" yMax="878">
      <component glyphName="A.flat" x="0" y="0" flags="0x204"/>
      <component glyphName="breve" x="94" y="210" flags="0x4"/>
    </TTGlyph>
    <TTGlyph name="Acircumflex" xMin="23" yMin="-7" xMax="569" yMax="890">
      <component glyphName="A" x="0" y="0" flags="0x4"/>
      <component glyphName="circumflex" x="95" y="208" flags="0x4"/>
    </TTGlyph>
    <TTGlyph name="Acircumflex.flat" xMin="23" yMin="0" xMax="573" yMax="890">
      <component glyphName="A.flat" x="0" y="0" flags="0x4"/>
      <component glyphName="circumflex" x="96" y="208" flags="0x4"/>
    </TTGlyph>
    <TTGlyph name="Adieresis" xMin="23" yMin="-7" xMax="569" yMax="856">
      <component glyphName="A" x="0" y="0" flags="0x204"/>
      <component glyphName="dieresis" x="93" y="210" flags="0x4"/>
    </TTGlyph>
    <TTGlyph name="Adieresis.flat" xMin="23" yMin="0" xMax="573" yMax="856">
      <component glyphName="A.flat" x="0" y="0" flags="0x204"/>
      <component glyphName="dieresis" x="94" y="210" flags="0x4"/>
    </TTGlyph>
    <TTGlyph name="Agrave" xMin="23" yMin="-7" xMax="569" yMax="899">
      <component glyphName="A" x="0" y="0" flags="0x204"/>
      <component glyphName="grave" x="41" y="210" flags="0x4"/>
    </TTGlyph>
    <TTGlyph name="Agrave.flat" xMin="23" yMin="0" xMax="573" yMax="899">
      <component glyphName="A.flat" x="0" y="0" flags="0x204"/>
      <component glyphName="grave" x="42" y="210" flags="0x4"/>
    </TTGlyph>
    <TTGlyph name="Amacron" xMin="23" yMin="-7" xMax="569" yMax="843">
      <component glyphName="A" x="0" y="0" flags="0x204"/>
      <component glyphName="macron" x="93" y="210" flags="0x4"/>
    </TTGlyph>
    <TTGlyph name="Amacron.flat" xMin="23" yMin="0" xMax="573" yMax="843">
      <component glyphName="A.flat" x="0" y="0" flags="0x204"/>
      <component glyphName="macron" x="94" y="210" flags="0x4"/>
    </TTGlyph>
    <TTGlyph name="Aogonek" xMin="23" yMin="-181" xMax="569" yMax="693">
      <component glyphName="A" x="0" y="0" flags="0x4"/>
      <component glyphName="ogonek" x="295" y="0" flags="0x4"/>
    </TTGlyph>
    <TTGlyph name="Aogonek.flat" xMin="23" yMin="-181" xMax="573" yMax="693">
      <component glyphName="A.flat" x="0" y="0" flags="0x204"/>
      <component glyphName="ogonek" x="302" y="0" flags="0x4"/>
    </TTGlyph>
    <TTGlyph name="Aring" xMin="23" yMin="-7" xMax="573" yMax="824">
      <contour>
        <pt x="485" y="-7" on="1"/>
        <pt x="417" y="207" on="1"/>
        <pt x="181" y="207" on="1"/>
        <pt x="116" y="0" on="1"/>
        <pt x="23" y="0" on="1"/>
        <pt x="238" y="647" on="1"/>
        <pt x="221" y="660" on="0"/>
        <pt x="200" y="701" on="0"/>
        <pt x="200" y="726" on="1"/>
        <pt x="200" y="768" on="0"/>
        <pt x="256" y="824" on="0"/>
        <pt x="299" y="824" on="1"/>
        <pt x="341" y="824" on="0"/>
        <pt x="397" y="768" on="0"/>
        <pt x="397" y="726" on="1"/>
        <pt x="397" y="702" on="0"/>
        <pt x="377" y="662" on="0"/>
        <pt x="361" y="649" on="1"/>
        <pt x="573" y="13" on="1"/>
      </contour>
      <contour>
        <pt x="351" y="726" on="1"/>
        <pt x="351" y="750" on="0"/>
        <pt x="321" y="782" on="0"/>
        <pt x="299" y="782" on="1"/>
        <pt x="276" y="782" on="0"/>
        <pt x="246" y="750" on="0"/>
        <pt x="246" y="726" on="1"/>
        <pt x="246" y="702" on="0"/>
        <pt x="276" y="670" on="0"/>
        <pt x="299" y="670" on="1"/>
        <pt x="321" y="670" on="0"/>
        <pt x="351" y="702" on="0"/>
      </contour>
      <contour>
        <pt x="298" y="581" on="1"/>
        <pt x="206" y="289" on="1"/>
        <pt x="391" y="289" on="1"/>
      </contour>
    </TTGlyph>
    <TTGlyph name="Aring.flat" xMin="23" yMin="0" xMax="577" yMax="824">
      <contour>
        <pt x="351" y="726" on="1"/>
        <pt x="351" y="750" on="0"/>
        <pt x="321" y="782" on="0"/>
        <pt x="299" y="782" on="1"/>
        <pt x="276" y="782" on="0"/>
        <pt x="246" y="750" on="0"/>
        <pt x="246" y="726" on="1"/>
        <pt x="246" y="702" on="0"/>
        <pt x="276" y="670" on="0"/>
        <pt x="299" y="670" on="1"/>
        <pt x="321" y="670" on="0"/>
        <pt x="351" y="702" on="0"/>
      </contour>
      <contour>
        <pt x="298" y="581" on="1"/>
        <pt x="206" y="289" on="1"/>
        <pt x="391" y="289" on="1"/>
      </contour>
      <contour>
        <pt x="482" y="0" on="1"/>
        <pt x="417" y="207" on="1"/>
        <pt x="181" y="207" on="1"/>
        <pt x="116" y="0" on="1"/>
        <pt x="23" y="0" on="1"/>
        <pt x="238" y="647" on="1"/>
        <pt x="221" y="660" on="0"/>
        <pt x="200" y="701" on="0"/>
        <pt x="200" y="726" on="1"/>
        <pt x="200" y="768" on="0"/>
        <pt x="256" y="824" on="0"/>
        <pt x="299" y="824" on="1"/>
        <pt x="341" y="824" on="0"/>
        <pt x="397" y="768" on="0"/>
        <pt x="397" y="726" on="1"/>
        <pt x="397" y="702" on="0"/>
        <pt x="377" y="662" on="0"/>
        <pt x="361" y="649" on="1"/>
        <pt x="577" y="0" on="1"/>
      </contour>
    </TTGlyph>
    <TTGlyph name="Aringacute" xMin="23" yMin="-7" xMax="573" yMax="996">
      <component glyphName="Aring" x="0" y="0" flags="0x204"/>
      <component glyphName="acute" x="149" y="307" flags="0x4"/>
    </TTGlyph>
    <TTGlyph name="Aringacute.flat" xMin="23" yMin="0" xMax="577" yMax="996">
      <component glyphName="Aring.flat" x="0" y="0" flags="0x204"/>
      <component glyphName="acute" x="149" y="307" flags="0x4"/>
    </TTGlyph>
    <TTGlyph name="Atilde" xMin="23" yMin="-7" xMax="569" yMax="878">
      <component glyphName="A" x="0" y="0" flags="0x204"/>
      <component glyphName="tilde" x="96" y="210" flags="0x4"/>
    </TTGlyph>
    <TTGlyph name="Atilde.flat" xMin="23" yMin="0" xMax="573" yMax="878">
      <component glyphName="A.flat" x="0" y="0" flags="0x204"/>
      <component glyphName="tilde" x="97" y="210" flags="0x4"/>
    </TTGlyph>
    <TTGlyph name="B" xMin="70" yMin="0" xMax="466" yMax="690">
      <contour>
        <pt x="466" y="200" on="1"/>
        <pt x="466" y="101" on="0"/>
        <pt x="331" y="0" on="0"/>
        <pt x="221" y="0" on="1"/>
        <pt x="70" y="0" on="1"/>
        <pt x="70" y="690" on="1"/>
        <pt x="224" y="690" on="1"/>
        <pt x="331" y="690" on="0"/>
        <pt x="440" y="591" on="0"/>
        <pt x="440" y="514" on="1"/>
        <pt x="440" y="462" on="0"/>
        <pt x="387" y="387" on="0"/>
        <pt x="343" y="368" on="1"/>
        <pt x="398" y="351" on="0"/>
        <pt x="466" y="267" on="0"/>
      </contour>
      <contour>
        <pt x="350" y="508" on="1"/>
        <pt x="350" y="554" on="0"/>
        <pt x="291" y="611" on="0"/>
        <pt x="222" y="611" on="1"/>
        <pt x="160" y="611" on="1"/>
        <pt x="160" y="400" on="1"/>
        <pt x="217" y="400" on="1"/>
        <pt x="283" y="400" on="0"/>
        <pt x="350" y="460" on="0"/>
      </contour>
      <contour>
        <pt x="376" y="199" on="1"/>
        <pt x="376" y="258" on="0"/>
        <pt x="298" y="323" on="0"/>
        <pt x="223" y="323" on="1"/>
        <pt x="160" y="323" on="1"/>
        <pt x="160" y="80" on="1"/>
        <pt x="226" y="80" on="1"/>
        <pt x="298" y="80" on="0"/>
        <pt x="376" y="141" on="0"/>
      </contour>
    </TTGlyph>
    <TTGlyph name="C" xMin="43" yMin="-12" xMax="497" yMax="702">
      <contour>
        <pt x="497" y="50" on="1"/>
        <pt x="461" y="23" on="0"/>
        <pt x="370" y="-12" on="0"/>
        <pt x="318" y="-12" on="1"/>
        <pt x="253" y="-12" on="0"/>
        <pt x="150" y="40" on="0"/>
        <pt x="80" y="133" on="0"/>
        <pt x="43" y="265" on="0"/>
        <pt x="43" y="344" on="1"/>
        <pt x="43" y="424" on="0"/>
        <pt x="81" y="557" on="0"/>
        <pt x="154" y="650" on="0"/>
        <pt x="258" y="702" on="0"/>
        <pt x="324" y="702" on="1"/>
        <pt x="377" y="702" on="0"/>
        <pt x="454" y="675" on="0"/>
        <pt x="488" y="651" on="1"/>
        <pt x="474" y="557" on="1"/>
        <pt x="439" y="585" on="0"/>
        <pt x="368" y="618" on="0"/>
        <pt x="322" y="618" on="1"/>
        <pt x="234" y="618" on="0"/>
        <pt x="137" y="469" on="0"/>
        <pt x="137" y="345" on="1"/>
        <pt x="137" y="220" on="0"/>
        <pt x="234" y="73" on="0"/>
        <pt x="320" y="73" on="1"/>
        <pt x="365" y="73" on="0"/>
        <pt x="445" y="109" on="0"/>
        <pt x="484" y="140" on="1"/>
      </contour>
    </TTGlyph>
    <TTGlyph name="Cacute" xMin="43" yMin="-12" xMax="497" yMax="899">
      <component glyphName="C" x="0" y="0" flags="0x204"/>
      <component glyphName="acute" x="161" y="210" flags="0x4"/>
    </TTGlyph>
    <TTGlyph name="Ccaron" xMin="43" yMin="-12" xMax="497" yMax="891">
      <component glyphName="C" x="0" y="0" flags="0x204"/>
      <component glyphName="caron" x="109" y="210" flags="0x4"/>
    </TTGlyph>
    <TTGlyph name="Ccedilla" xMin="43" yMin="-193" xMax="497" yMax="702">
      <component glyphName="C" x="0" y="0" flags="0x204"/>
      <component glyphName="cedilla" x="88" y="-3" flags="0x4"/>
    </TTGlyph>
    <TTGlyph name="Cdotaccent" xMin="43" yMin="-12" xMax="497" yMax="856">
      <component glyphName="C" x="0" y="0" flags="0x204"/>
      <component glyphName="dotaccent" x="109" y="210" flags="0x4"/>
    </TTGlyph>
    <TTGlyph name="D" xMin="70" yMin="0" xMax="554" yMax="690">
      <contour>
        <pt x="554" y="346" on="1"/>
        <pt x="554" y="270" on="0"/>
        <pt x="512" y="142" on="0"/>
        <pt x="429" y="51" on="0"/>
        <pt x="304" y="0" on="0"/>
        <pt x="222" y="0" on="1"/>
        <pt x="70" y="0" on="1"/>
        <pt x="70" y="690" on="1"/>
        <pt x="227" y="690" on="1"/>
        <pt x="309" y="690" on="0"/>
        <pt x="432" y="640" on="0"/>
        <pt x="513" y="549" on="0"/>
        <pt x="554" y="422" on="0"/>
      </contour>
      <contour>
        <pt x="460" y="345" on="1"/>
        <pt x="460" y="474" on="0"/>
        <pt x="337" y="607" on="0"/>
        <pt x="233" y="607" on="1"/>
        <pt x="162" y="607" on="1"/>
        <pt x="162" y="84" on="1"/>
        <pt x="230" y="84" on="1"/>
        <pt x="337" y="84" on="0"/>
        <pt x="460" y="214" on="0"/>
      </contour>
    </TTGlyph>
    <TTGlyph name="Dcaron" xMin="70" yMin="0" xMax="554" yMax="884">
      <component glyphName="D" x="0" y="0" flags="0x204"/>
      <component glyphName="caron" x="82" y="203" flags="0x4"/>
    </TTGlyph>
    <TTGlyph name="Dcroat" xMin="11" yMin="0" xMax="562" yMax="690">
      <component glyphName="Eth" x="0" y="0" flags="0x204"/>
    </TTGlyph>
    <TTGlyph name="Dcroat.flat" xMin="17" yMin="0" xMax="562" yMax="690">
      <component glyphName="Eth.flat" x="0" y="0" flags="0x204"/>
    </TTGlyph>
    <TTGlyph name="E" xMin="70" yMin="0" xMax="418" yMax="690">
      <contour>
        <pt x="418" y="0" on="1"/>
        <pt x="70" y="0" on="1"/>
        <pt x="70" y="690" on="1"/>
        <pt x="408" y="690" on="1"/>
        <pt x="408" y="606" on="1"/>
        <pt x="162" y="606" on="1"/>
        <pt x="162" y="403" on="1"/>
        <pt x="352" y="403" on="1"/>
        <pt x="366" y="319" on="1"/>
        <pt x="162" y="319" on="1"/>
        <pt x="162" y="85" on="1"/>
        <pt x="418" y="85" on="1"/>
      </contour>
    </TTGlyph>
    <TTGlyph name="E.flat" xMin="70" yMin="0" xMax="418" yMax="690">
      <contour>
        <pt x="418" y="0" on="1"/>
        <pt x="70" y="0" on="1"/>
        <pt x="70" y="690" on="1"/>
        <pt x="408" y="690" on="1"/>
        <pt x="408" y="606" on="1"/>
        <pt x="162" y="606" on="1"/>
        <pt x="162" y="403" on="1"/>
        <pt x="359" y="403" on="1"/>
        <pt x="359" y="319" on="1"/>
        <pt x="162" y="319" on="1"/>
        <pt x="162" y="85" on="1"/>
        <pt x="418" y="85" on="1"/>
      </contour>
    </TTGlyph>
    <TTGlyph name="Eacute" xMin="70" yMin="0" xMax="418" yMax="892">
      <component glyphName="E" x="0" y="0" flags="0x204"/>
      <component glyphName="acute" x="89" y="203" flags="0x4"/>
    </TTGlyph>
    <TTGlyph name="Eacute.flat" xMin="70" yMin="0" xMax="418" yMax="892">
      <component glyphName="E.flat" x="0" y="0" flags="0x204"/>
      <component glyphName="acute" x="89" y="203" flags="0x4"/>
    </TTGlyph>
    <TTGlyph name="Ebreve" xMin="70" yMin="0" xMax="418" yMax="871">
      <component glyphName="E" x="0" y="0" flags="0x204"/>
      <component glyphName="breve" x="37" y="203" flags="0x4"/>
    </TTGlyph>
    <TTGlyph name="Ebreve.flat" xMin="70" yMin="0" xMax="418" yMax="871">
      <component glyphName="E.flat" x="0" y="0" flags="0x204"/>
      <component glyphName="breve" x="37" y="203" flags="0x4"/>
    </TTGlyph>
    <TTGlyph name="Ecaron" xMin="70" yMin="0" xMax="418" yMax="884">
      <component glyphName="E" x="0" y="0" flags="0x204"/>
      <component glyphName="caron" x="37" y="203" flags="0x4"/>
    </TTGlyph>
    <TTGlyph name="Ecaron.flat" xMin="70" yMin="0" xMax="418" yMax="884">
      <component glyphName="E.flat" x="0" y="0" flags="0x204"/>
      <component glyphName="caron" x="37" y="203" flags="0x4"/>
    </TTGlyph>
    <TTGlyph name="Ecircumflex" xMin="70" yMin="0" xMax="418" yMax="885">
      <component glyphName="E" x="0" y="0" flags="0x204"/>
      <component glyphName="circumflex" x="38" y="203" flags="0x4"/>
    </TTGlyph>
    <TTGlyph name="Ecircumflex.flat" xMin="70" yMin="0" xMax="418" yMax="885">
      <component glyphName="E.flat" x="0" y="0" flags="0x204"/>
      <component glyphName="circumflex" x="38" y="203" flags="0x4"/>
    </TTGlyph>
    <TTGlyph name="Edieresis" xMin="70" yMin="0" xMax="418" yMax="849">
      <component glyphName="E" x="0" y="0" flags="0x204"/>
      <component glyphName="dieresis" x="37" y="203" flags="0x4"/>
    </TTGlyph>
    <TTGlyph name="Edieresis.flat" xMin="70" yMin="0" xMax="418" yMax="849">
      <component glyphName="E.flat" x="0" y="0" flags="0x204"/>
      <component glyphName="dieresis" x="37" y="203" flags="0x4"/>
    </TTGlyph>
    <TTGlyph name="Edotaccent" xMin="70" yMin="0" xMax="418" yMax="849">
      <component glyphName="E" x="0" y="0" flags="0x204"/>
      <component glyphName="dotaccent" x="37" y="203" flags="0x4"/>
    </TTGlyph>
    <TTGlyph name="Edotaccent.flat" xMin="70" yMin="0" xMax="418" yMax="849">
      <component glyphName="E.flat" x="0" y="0" flags="0x204"/>
      <component glyphName="dotaccent" x="37" y="203" flags="0x4"/>
    </TTGlyph>
    <TTGlyph name="Egrave" xMin="70" yMin="0" xMax="418" yMax="892">
      <component glyphName="E" x="0" y="0" flags="0x204"/>
      <component glyphName="grave" x="-15" y="203" flags="0x4"/>
    </TTGlyph>
    <TTGlyph name="Egrave.flat" xMin="70" yMin="0" xMax="418" yMax="892">
      <component glyphName="E.flat" x="0" y="0" flags="0x204"/>
      <component glyphName="grave" x="-15" y="203" flags="0x4"/>
    </TTGlyph>
    <TTGlyph name="Emacron" xMin="70" yMin="0" xMax="418" yMax="836">
      <component glyphName="E" x="0" y="0" flags="0x204"/>
      <component glyphName="macron" x="37" y="203" flags="0x4"/>
    </TTGlyph>
    <TTGlyph name="Emacron.flat" xMin="70" yMin="0" xMax="418" yMax="836">
      <component glyphName="E.flat" x="0" y="0" flags="0x204"/>
      <component glyphName="macron" x="37" y="203" flags="0x4"/>
    </TTGlyph>
    <TTGlyph name="Eogonek" xMin="70" yMin="-181" xMax="420" yMax="690">
      <component glyphName="E" x="0" y="0" flags="0x204"/>
      <component glyphName="ogonek" x="149" y="0" flags="0x4"/>
    </TTGlyph>
    <TTGlyph name="Eogonek.flat" xMin="70" yMin="-181" xMax="420" yMax="690">
      <component glyphName="ogonek" x="149" y="0" flags="0x4"/>
      <component glyphName="E.flat" x="0" y="0" flags="0x204"/>
    </TTGlyph>
    <TTGlyph name="Eth" xMin="11" yMin="0" xMax="562" yMax="690">
      <contour>
        <pt x="171" y="84" on="1"/>
        <pt x="238" y="84" on="1"/>
        <pt x="345" y="84" on="0"/>
        <pt x="468" y="214" on="0"/>
        <pt x="468" y="345" on="1"/>
        <pt x="468" y="474" on="0"/>
        <pt x="345" y="607" on="0"/>
        <pt x="241" y="607" on="1"/>
        <pt x="171" y="607" on="1"/>
        <pt x="171" y="401" on="1"/>
        <pt x="316" y="401" on="1"/>
        <pt x="316" y="321" on="1"/>
        <pt x="171" y="321" on="1"/>
      </contour>
      <contour>
        <pt x="230" y="0" on="1"/>
        <pt x="79" y="0" on="1"/>
        <pt x="79" y="320" on="1"/>
        <pt x="24" y="320" on="1"/>
        <pt x="11" y="401" on="1"/>
        <pt x="79" y="401" on="1"/>
        <pt x="79" y="690" on="1"/>
        <pt x="236" y="690" on="1"/>
        <pt x="318" y="690" on="0"/>
        <pt x="441" y="640" on="0"/>
        <pt x="522" y="549" on="0"/>
        <pt x="562" y="422" on="0"/>
        <pt x="562" y="346" on="1"/>
        <pt x="562" y="270" on="0"/>
        <pt x="520" y="142" on="0"/>
        <pt x="437" y="51" on="0"/>
        <pt x="312" y="0" on="0"/>
      </contour>
    </TTGlyph>
    <TTGlyph name="Eth.flat" xMin="17" yMin="0" xMax="562" yMax="690">
      <contour>
        <pt x="171" y="84" on="1"/>
        <pt x="238" y="84" on="1"/>
        <pt x="345" y="84" on="0"/>
        <pt x="468" y="214" on="0"/>
        <pt x="468" y="345" on="1"/>
        <pt x="468" y="474" on="0"/>
        <pt x="345" y="607" on="0"/>
        <pt x="241" y="607" on="1"/>
        <pt x="171" y="607" on="1"/>
        <pt x="171" y="401" on="1"/>
        <pt x="316" y="401" on="1"/>
        <pt x="316" y="321" on="1"/>
        <pt x="171" y="321" on="1"/>
      </contour>
      <contour>
        <pt x="230" y="0" on="1"/>
        <pt x="79" y="0" on="1"/>
        <pt x="79" y="320" on="1"/>
        <pt x="17" y="320" on="1"/>
        <pt x="17" y="401" on="1"/>
        <pt x="79" y="401" on="1"/>
        <pt x="79" y="690" on="1"/>
        <pt x="236" y="690" on="1"/>
        <pt x="318" y="690" on="0"/>
        <pt x="441" y="640" on="0"/>
        <pt x="522" y="549" on="0"/>
        <pt x="562" y="422" on="0"/>
        <pt x="562" y="346" on="1"/>
        <pt x="562" y="270" on="0"/>
        <pt x="520" y="142" on="0"/>
        <pt x="437" y="51" on="0"/>
        <pt x="312" y="0" on="0"/>
      </contour>
    </TTGlyph>
    <TTGlyph name="Euro" xMin="19" yMin="-13" xMax="514" yMax="696">
      <contour>
        <pt x="514" y="41" on="1"/>
        <pt x="479" y="16" on="0"/>
        <pt x="398" y="-13" on="0"/>
        <pt x="349" y="-13" on="1"/>
        <pt x="250" y="-13" on="0"/>
        <pt x="128" y="120" on="0"/>
        <pt x="107" y="226" on="1"/>
        <pt x="30" y="226" on="1"/>
        <pt x="19" y="296" on="1"/>
        <pt x="98" y="296" on="1"/>
        <pt x="97" y="307" on="0"/>
        <pt x="97" y="330" on="0"/>
        <pt x="97" y="341" on="1"/>
        <pt x="97" y="354" on="0"/>
        <pt x="98" y="379" on="0"/>
        <pt x="99" y="392" on="1"/>
        <pt x="24" y="392" on="1"/>
        <pt x="24" y="462" on="1"/>
        <pt x="109" y="462" on="1"/>
        <pt x="131" y="566" on="0"/>
        <pt x="253" y="696" on="0"/>
        <pt x="352" y="696" on="1"/>
        <pt x="400" y="696" on="0"/>
        <pt x="472" y="672" on="0"/>
        <pt x="503" y="651" on="1"/>
        <pt x="488" y="567" on="1"/>
        <pt x="454" y="592" on="0"/>
        <pt x="392" y="619" on="0"/>
        <pt x="352" y="619" on="1"/>
        <pt x="290" y="619" on="0"/>
        <pt x="210" y="531" on="0"/>
        <pt x="194" y="462" on="1"/>
        <pt x="407" y="462" on="1"/>
        <pt x="418" y="392" on="1"/>
        <pt x="184" y="392" on="1"/>
        <pt x="183" y="380" on="0"/>
        <pt x="182" y="355" on="0"/>
        <pt x="182" y="342" on="1"/>
        <pt x="182" y="330" on="0"/>
        <pt x="183" y="306" on="0"/>
        <pt x="184" y="296" on="1"/>
        <pt x="413" y="296" on="1"/>
        <pt x="413" y="226" on="1"/>
        <pt x="194" y="226" on="1"/>
        <pt x="210" y="154" on="0"/>
        <pt x="292" y="65" on="0"/>
        <pt x="353" y="65" on="1"/>
        <pt x="393" y="65" on="0"/>
        <pt x="463" y="94" on="0"/>
        <pt x="500" y="122" on="1"/>
      </contour>
    </TTGlyph>
    <TTGlyph name="Euro.flat" xMin="24" yMin="-13" xMax="514" yMax="696">
      <contour>
        <pt x="514" y="41" on="1"/>
        <pt x="479" y="16" on="0"/>
        <pt x="398" y="-13" on="0"/>
        <pt x="349" y="-13" on="1"/>
        <pt x="250" y="-13" on="0"/>
        <pt x="128" y="120" on="0"/>
        <pt x="107" y="226" on="1"/>
        <pt x="24" y="226" on="1"/>
        <pt x="24" y="296" on="1"/>
        <pt x="98" y="296" on="1"/>
        <pt x="97" y="307" on="0"/>
        <pt x="97" y="330" on="0"/>
        <pt x="97" y="341" on="1"/>
        <pt x="97" y="354" on="0"/>
        <pt x="98" y="379" on="0"/>
        <pt x="99" y="392" on="1"/>
        <pt x="24" y="392" on="1"/>
        <pt x="24" y="462" on="1"/>
        <pt x="109" y="462" on="1"/>
        <pt x="131" y="566" on="0"/>
        <pt x="253" y="696" on="0"/>
        <pt x="352" y="696" on="1"/>
        <pt x="400" y="696" on="0"/>
        <pt x="472" y="672" on="0"/>
        <pt x="503" y="651" on="1"/>
        <pt x="488" y="567" on="1"/>
        <pt x="454" y="592" on="0"/>
        <pt x="392" y="619" on="0"/>
        <pt x="352" y="619" on="1"/>
        <pt x="290" y="619" on="0"/>
        <pt x="210" y="531" on="0"/>
        <pt x="194" y="462" on="1"/>
        <pt x="413" y="462" on="1"/>
        <pt x="413" y="392" on="1"/>
        <pt x="184" y="392" on="1"/>
        <pt x="183" y="380" on="0"/>
        <pt x="182" y="355" on="0"/>
        <pt x="182" y="342" on="1"/>
        <pt x="182" y="330" on="0"/>
        <pt x="183" y="306" on="0"/>
        <pt x="184" y="296" on="1"/>
        <pt x="413" y="296" on="1"/>
        <pt x="413" y="226" on="1"/>
        <pt x="194" y="226" on="1"/>
        <pt x="210" y="154" on="0"/>
        <pt x="292" y="65" on="0"/>
        <pt x="353" y="65" on="1"/>
        <pt x="393" y="65" on="0"/>
        <pt x="463" y="94" on="0"/>
        <pt x="500" y="122" on="1"/>
      </contour>
    </TTGlyph>
    <TTGlyph name="Euro.tab" xMin="19" yMin="-13" xMax="472" yMax="696">
      <contour>
        <pt x="472" y="39" on="1"/>
        <pt x="439" y="14" on="0"/>
        <pt x="364" y="-13" on="0"/>
        <pt x="315" y="-13" on="1"/>
        <pt x="221" y="-13" on="0"/>
        <pt x="113" y="121" on="0"/>
        <pt x="96" y="228" on="1"/>
        <pt x="29" y="228" on="1"/>
        <pt x="19" y="296" on="1"/>
        <pt x="89" y="296" on="1"/>
        <pt x="88" y="307" on="0"/>
        <pt x="88" y="330" on="0"/>
        <pt x="88" y="341" on="1"/>
        <pt x="88" y="354" on="0"/>
        <pt x="89" y="380" on="0"/>
        <pt x="90" y="393" on="1"/>
        <pt x="24" y="393" on="1"/>
        <pt x="24" y="461" on="1"/>
        <pt x="98" y="461" on="1"/>
        <pt x="107" y="511" on="0"/>
        <pt x="144" y="598" on="0"/>
        <pt x="199" y="660" on="0"/>
        <pt x="274" y="696" on="0"/>
        <pt x="321" y="696" on="1"/>
        <pt x="365" y="696" on="0"/>
        <pt x="435" y="673" on="0"/>
        <pt x="463" y="653" on="1"/>
        <pt x="449" y="571" on="1"/>
        <pt x="418" y="596" on="0"/>
        <pt x="359" y="620" on="0"/>
        <pt x="321" y="620" on="1"/>
        <pt x="262" y="620" on="0"/>
        <pt x="194" y="530" on="0"/>
        <pt x="180" y="461" on="1"/>
        <pt x="370" y="461" on="1"/>
        <pt x="380" y="393" on="1"/>
        <pt x="172" y="393" on="1"/>
        <pt x="171" y="381" on="0"/>
        <pt x="170" y="356" on="0"/>
        <pt x="170" y="343" on="1"/>
        <pt x="170" y="331" on="0"/>
        <pt x="170" y="307" on="0"/>
        <pt x="171" y="296" on="1"/>
        <pt x="375" y="296" on="1"/>
        <pt x="375" y="228" on="1"/>
        <pt x="180" y="228" on="1"/>
        <pt x="194" y="152" on="0"/>
        <pt x="266" y="64" on="0"/>
        <pt x="323" y="64" on="1"/>
        <pt x="363" y="64" on="0"/>
        <pt x="423" y="89" on="0"/>
        <pt x="458" y="117" on="1"/>
      </contour>
    </TTGlyph>
    <TTGlyph name="Euro.tab_flat" xMin="24" yMin="-13" xMax="472" yMax="696">
      <contour>
        <pt x="472" y="39" on="1"/>
        <pt x="439" y="14" on="0"/>
        <pt x="364" y="-13" on="0"/>
        <pt x="315" y="-13" on="1"/>
        <pt x="221" y="-13" on="0"/>
        <pt x="113" y="121" on="0"/>
        <pt x="96" y="228" on="1"/>
        <pt x="24" y="228" on="1"/>
        <pt x="24" y="296" on="1"/>
        <pt x="89" y="296" on="1"/>
        <pt x="88" y="307" on="0"/>
        <pt x="88" y="330" on="0"/>
        <pt x="88" y="341" on="1"/>
        <pt x="88" y="354" on="0"/>
        <pt x="89" y="380" on="0"/>
        <pt x="90" y="393" on="1"/>
        <pt x="24" y="393" on="1"/>
        <pt x="24" y="461" on="1"/>
        <pt x="98" y="461" on="1"/>
        <pt x="107" y="511" on="0"/>
        <pt x="144" y="598" on="0"/>
        <pt x="199" y="660" on="0"/>
        <pt x="274" y="696" on="0"/>
        <pt x="321" y="696" on="1"/>
        <pt x="365" y="696" on="0"/>
        <pt x="435" y="673" on="0"/>
        <pt x="463" y="653" on="1"/>
        <pt x="449" y="571" on="1"/>
        <pt x="418" y="596" on="0"/>
        <pt x="359" y="620" on="0"/>
        <pt x="321" y="620" on="1"/>
        <pt x="262" y="620" on="0"/>
        <pt x="194" y="530" on="0"/>
        <pt x="180" y="461" on="1"/>
        <pt x="375" y="461" on="1"/>
        <pt x="375" y="393" on="1"/>
        <pt x="172" y="393" on="1"/>
        <pt x="171" y="381" on="0"/>
        <pt x="170" y="356" on="0"/>
        <pt x="170" y="343" on="1"/>
        <pt x="170" y="331" on="0"/>
        <pt x="170" y="307" on="0"/>
        <pt x="171" y="296" on="1"/>
        <pt x="375" y="296" on="1"/>
        <pt x="375" y="228" on="1"/>
        <pt x="180" y="228" on="1"/>
        <pt x="194" y="152" on="0"/>
        <pt x="266" y="64" on="0"/>
        <pt x="323" y="64" on="1"/>
        <pt x="363" y="64" on="0"/>
        <pt x="423" y="89" on="0"/>
        <pt x="458" y="117" on="1"/>
      </contour>
    </TTGlyph>
    <TTGlyph name="F" xMin="70" yMin="0" xMax="397" yMax="690">
      <contour>
        <pt x="397" y="606" on="1"/>
        <pt x="162" y="606" on="1"/>
        <pt x="162" y="393" on="1"/>
        <pt x="344" y="393" on="1"/>
        <pt x="358" y="308" on="1"/>
        <pt x="162" y="308" on="1"/>
        <pt x="162" y="0" on="1"/>
        <pt x="70" y="0" on="1"/>
        <pt x="70" y="690" on="1"/>
        <pt x="397" y="690" on="1"/>
      </contour>
    </TTGlyph>
    <TTGlyph name="F.flat" xMin="70" yMin="0" xMax="397" yMax="690">
      <contour>
        <pt x="397" y="606" on="1"/>
        <pt x="162" y="606" on="1"/>
        <pt x="162" y="393" on="1"/>
        <pt x="351" y="393" on="1"/>
        <pt x="351" y="308" on="1"/>
        <pt x="162" y="308" on="1"/>
        <pt x="162" y="0" on="1"/>
        <pt x="70" y="0" on="1"/>
        <pt x="70" y="690" on="1"/>
        <pt x="397" y="690" on="1"/>
      </contour>
    </TTGlyph>
    <TTGlyph name="G" xMin="43" yMin="-13" xMax="530" yMax="703">
      <contour>
        <pt x="530" y="48" on="1"/>
        <pt x="490" y="23" on="0"/>
        <pt x="390" y="-13" on="0"/>
        <pt x="330" y="-13" on="1"/>
        <pt x="258" y="-13" on="0"/>
        <pt x="150" y="40" on="0"/>
        <pt x="79" y="134" on="0"/>
        <pt x="43" y="266" on="0"/>
        <pt x="43" y="344" on="1"/>
        <pt x="43" y="424" on="0"/>
        <pt x="82" y="557" on="0"/>
        <pt x="156" y="651" on="0"/>
        <pt x="266" y="703" on="0"/>
        <pt x="337" y="703" on="1"/>
        <pt x="390" y="703" on="0"/>
        <pt x="474" y="676" on="0"/>
        <pt x="508" y="654" on="1"/>
        <pt x="494" y="560" on="1"/>
        <pt x="460" y="586" on="0"/>
        <pt x="381" y="618" on="0"/>
        <pt x="334" y="618" on="1"/>
        <pt x="237" y="618" on="0"/>
        <pt x="137" y="470" on="0"/>
        <pt x="137" y="345" on="1"/>
        <pt x="137" y="288" on="0"/>
        <pt x="160" y="188" on="0"/>
        <pt x="208" y="115" on="0"/>
        <pt x="283" y="73" on="0"/>
        <pt x="333" y="73" on="1"/>
        <pt x="367" y="73" on="0"/>
        <pt x="419" y="87" on="0"/>
        <pt x="441" y="100" on="1"/>
        <pt x="441" y="291" on="1"/>
        <pt x="312" y="291" on="1"/>
        <pt x="299" y="376" on="1"/>
        <pt x="530" y="376" on="1"/>
      </contour>
    </TTGlyph>
    <TTGlyph name="G.flat" xMin="43" yMin="-13" xMax="530" yMax="703">
      <contour>
        <pt x="530" y="48" on="1"/>
        <pt x="490" y="23" on="0"/>
        <pt x="390" y="-13" on="0"/>
        <pt x="330" y="-13" on="1"/>
        <pt x="258" y="-13" on="0"/>
        <pt x="150" y="40" on="0"/>
        <pt x="79" y="134" on="0"/>
        <pt x="43" y="266" on="0"/>
        <pt x="43" y="344" on="1"/>
        <pt x="43" y="424" on="0"/>
        <pt x="82" y="557" on="0"/>
        <pt x="156" y="651" on="0"/>
        <pt x="266" y="703" on="0"/>
        <pt x="337" y="703" on="1"/>
        <pt x="390" y="703" on="0"/>
        <pt x="474" y="676" on="0"/>
        <pt x="508" y="654" on="1"/>
        <pt x="494" y="560" on="1"/>
        <pt x="460" y="586" on="0"/>
        <pt x="381" y="618" on="0"/>
        <pt x="334" y="618" on="1"/>
        <pt x="237" y="618" on="0"/>
        <pt x="137" y="470" on="0"/>
        <pt x="137" y="345" on="1"/>
        <pt x="137" y="288" on="0"/>
        <pt x="160" y="188" on="0"/>
        <pt x="208" y="115" on="0"/>
        <pt x="283" y="73" on="0"/>
        <pt x="333" y="73" on="1"/>
        <pt x="367" y="73" on="0"/>
        <pt x="419" y="87" on="0"/>
        <pt x="441" y="100" on="1"/>
        <pt x="441" y="291" on="1"/>
        <pt x="306" y="291" on="1"/>
        <pt x="306" y="376" on="1"/>
        <pt x="530" y="376" on="1"/>
      </contour>
    </TTGlyph>
    <TTGlyph name="Gbreve" xMin="43" yMin="-13" xMax="530" yMax="878">
      <component glyphName="G" x="0" y="0" flags="0x204"/>
      <component glyphName="breve" x="115" y="210" flags="0x4"/>
    </TTGlyph>
    <TTGlyph name="Gbreve.flat" xMin="43" yMin="-13" xMax="530" yMax="878">
      <component glyphName="G.flat" x="0" y="0" flags="0x204"/>
      <component glyphName="breve" x="115" y="210" flags="0x4"/>
    </TTGlyph>
    <TTGlyph name="Gcommaaccent" xMin="43" yMin="-245" xMax="530" yMax="703">
      <component glyphName="G" x="0" y="0" flags="0x204"/>
      <component glyphName="commaaccent" x="118" y="-7" flags="0x4"/>
    </TTGlyph>
    <TTGlyph name="Gcommaaccent.flat" xMin="43" yMin="-245" xMax="530" yMax="703">
      <component glyphName="G.flat" x="0" y="0" flags="0x204"/>
      <component glyphName="commaaccent" x="118" y="-7" flags="0x4"/>
    </TTGlyph>
    <TTGlyph name="Gdotaccent" xMin="43" yMin="-13" xMax="530" yMax="856">
      <component glyphName="G" x="0" y="0" flags="0x204"/>
      <component glyphName="dotaccent" x="115" y="210" flags="0x4"/>
    </TTGlyph>
    <TTGlyph name="Gdotaccent.flat" xMin="43" yMin="-13" xMax="530" yMax="856">
      <component glyphName="G.flat" x="0" y="0" flags="0x204"/>
      <component glyphName="dotaccent" x="115" y="210" flags="0x4"/>
    </TTGlyph>
    <TTGlyph name="H" xMin="70" yMin="0" xMax="537" yMax="690">
      <contour>
        <pt x="537" y="0" on="1"/>
        <pt x="445" y="0" on="1"/>
        <pt x="445" y="319" on="1"/>
        <pt x="162" y="319" on="1"/>
        <pt x="162" y="0" on="1"/>
        <pt x="70" y="0" on="1"/>
        <pt x="70" y="690" on="1"/>
        <pt x="162" y="690" on="1"/>
        <pt x="162" y="403" on="1"/>
        <pt x="445" y="403" on="1"/>
        <pt x="445" y="690" on="1"/>
        <pt x="537" y="690" on="1"/>
      </contour>
    </TTGlyph>
    <TTGlyph name="Hbar" xMin="9" yMin="0" xMax="627" yMax="690">
      <contour>
        <pt x="179" y="394" on="1"/>
        <pt x="462" y="394" on="1"/>
        <pt x="462" y="517" on="1"/>
        <pt x="179" y="517" on="1"/>
      </contour>
      <contour>
        <pt x="179" y="312" on="1"/>
        <pt x="179" y="0" on="1"/>
        <pt x="87" y="0" on="1"/>
        <pt x="87" y="515" on="1"/>
        <pt x="21" y="515" on="1"/>
        <pt x="9" y="592" on="1"/>
        <pt x="87" y="592" on="1"/>
        <pt x="87" y="690" on="1"/>
        <pt x="179" y="690" on="1"/>
        <pt x="179" y="592" on="1"/>
        <pt x="462" y="592" on="1"/>
        <pt x="462" y="690" on="1"/>
        <pt x="554" y="690" on="1"/>
        <pt x="554" y="592" on="1"/>
        <pt x="627" y="592" on="1"/>
        <pt x="627" y="515" on="1"/>
        <pt x="554" y="515" on="1"/>
        <pt x="554" y="0" on="1"/>
        <pt x="462" y="0" on="1"/>
        <pt x="462" y="312" on="1"/>
      </contour>
    </TTGlyph>
    <TTGlyph name="Hbar.flat" xMin="14" yMin="0" xMax="627" yMax="690">
      <contour>
        <pt x="179" y="394" on="1"/>
        <pt x="462" y="394" on="1"/>
        <pt x="462" y="517" on="1"/>
        <pt x="179" y="517" on="1"/>
      </contour>
      <contour>
        <pt x="179" y="312" on="1"/>
        <pt x="179" y="0" on="1"/>
        <pt x="87" y="0" on="1"/>
        <pt x="87" y="515" on="1"/>
        <pt x="14" y="515" on="1"/>
        <pt x="14" y="592" on="1"/>
        <pt x="87" y="592" on="1"/>
        <pt x="87" y="690" on="1"/>
        <pt x="179" y="690" on="1"/>
        <pt x="179" y="592" on="1"/>
        <pt x="462" y="592" on="1"/>
        <pt x="462" y="690" on="1"/>
        <pt x="554" y="690" on="1"/>
        <pt x="554" y="592" on="1"/>
        <pt x="627" y="592" on="1"/>
        <pt x="627" y="515" on="1"/>
        <pt x="554" y="515" on="1"/>
        <pt x="554" y="0" on="1"/>
        <pt x="462" y="0" on="1"/>
        <pt x="462" y="312" on="1"/>
      </contour>
    </TTGlyph>
    <TTGlyph name="I" xMin="76" yMin="0" xMax="168" yMax="690">
      <contour>
        <pt x="168" y="0" on="1"/>
        <pt x="76" y="0" on="1"/>
        <pt x="76" y="690" on="1"/>
        <pt x="168" y="690" on="1"/>
      </contour>
    </TTGlyph>
    <TTGlyph name="Iacute" xMin="76" yMin="0" xMax="265" yMax="892">
      <component glyphName="I" x="0" y="0" flags="0x204"/>
      <component glyphName="acute" x="-30" y="203" flags="0x4"/>
    </TTGlyph>
    <TTGlyph name="Ibreve" xMin="-5" yMin="0" xMax="249" yMax="871">
      <component glyphName="I" x="0" y="0" flags="0x204"/>
      <component glyphName="breve" x="-82" y="203" flags="0x4"/>
    </TTGlyph>
    <TTGlyph name="Icircumflex" xMin="-5" yMin="0" xMax="249" yMax="885">
      <component glyphName="I" x="0" y="0" flags="0x204"/>
      <component glyphName="circumflex" x="-81" y="203" flags="0x4"/>
    </TTGlyph>
    <TTGlyph name="Idieresis" xMin="-4" yMin="0" xMax="247" yMax="849">
      <component glyphName="I" x="0" y="0" flags="0x204"/>
      <component glyphName="dieresis" x="-82" y="203" flags="0x4"/>
    </TTGlyph>
    <TTGlyph name="Idotaccent" xMin="75" yMin="0" xMax="168" yMax="849">
      <component glyphName="I" x="0" y="0" flags="0x204"/>
      <component glyphName="dotaccent" x="-82" y="203" flags="0x4"/>
    </TTGlyph>
    <TTGlyph name="Igrave" xMin="-21" yMin="0" xMax="168" yMax="892">
      <component glyphName="I" x="0" y="0" flags="0x204"/>
      <component glyphName="grave" x="-133" y="203" flags="0x4"/>
    </TTGlyph>
    <TTGlyph name="Imacron" xMin="-4" yMin="0" xMax="248" yMax="836">
      <component glyphName="I" x="0" y="0" flags="0x204"/>
      <component glyphName="macron" x="-82" y="203" flags="0x4"/>
    </TTGlyph>
    <TTGlyph name="Iogonek" xMin="37" yMin="-181" xMax="182" yMax="690">
      <component glyphName="ogonek" x="-89" y="0" flags="0x4"/>
      <component glyphName="I" x="0" y="0" flags="0x204"/>
    </TTGlyph>
    <TTGlyph name="J" xMin="17" yMin="-7" xMax="264" yMax="690">
      <contour>
        <pt x="264" y="157" on="1"/>
        <pt x="264" y="71" on="0"/>
        <pt x="166" y="-7" on="0"/>
        <pt x="88" y="-7" on="1"/>
        <pt x="73" y="-7" on="0"/>
        <pt x="41" y="-4" on="0"/>
        <pt x="31" y="-2" on="1"/>
        <pt x="17" y="82" on="1"/>
        <pt x="32" y="78" on="0"/>
        <pt x="63" y="75" on="0"/>
        <pt x="83" y="75" on="1"/>
        <pt x="125" y="75" on="0"/>
        <pt x="172" y="115" on="0"/>
        <pt x="172" y="164" on="1"/>
        <pt x="172" y="690" on="1"/>
        <pt x="264" y="690" on="1"/>
      </contour>
    </TTGlyph>
    <TTGlyph name="K" xMin="70" yMin="-7" xMax="528" yMax="690">
      <contour>
        <pt x="528" y="14" on="1"/>
        <pt x="431" y="-7" on="1"/>
        <pt x="162" y="349" on="1"/>
        <pt x="162" y="0" on="1"/>
        <pt x="70" y="0" on="1"/>
        <pt x="70" y="690" on="1"/>
        <pt x="162" y="690" on="1"/>
        <pt x="162" y="383" on="1"/>
        <pt x="402" y="690" on="1"/>
        <pt x="512" y="690" on="1"/>
        <pt x="255" y="368" on="1"/>
      </contour>
    </TTGlyph>
    <TTGlyph name="K.flat" xMin="70" yMin="0" xMax="539" yMax="690">
      <contour>
        <pt x="539" y="0" on="1"/>
        <pt x="426" y="0" on="1"/>
        <pt x="162" y="349" on="1"/>
        <pt x="162" y="0" on="1"/>
        <pt x="70" y="0" on="1"/>
        <pt x="70" y="690" on="1"/>
        <pt x="162" y="690" on="1"/>
        <pt x="162" y="383" on="1"/>
        <pt x="402" y="690" on="1"/>
        <pt x="512" y="690" on="1"/>
        <pt x="255" y="368" on="1"/>
      </contour>
    </TTGlyph>
    <TTGlyph name="Kcommaaccent" xMin="70" yMin="-230" xMax="528" yMax="690">
      <component glyphName="K" x="0" y="0" flags="0x204"/>
      <component glyphName="commaaccent" x="77" y="8" flags="0x4"/>
    </TTGlyph>
    <TTGlyph name="Kcommaaccent.flat" xMin="70" yMin="-230" xMax="539" yMax="690">
      <component glyphName="K.flat" x="0" y="0" flags="0x204"/>
      <component glyphName="commaaccent" x="77" y="8" flags="0x4"/>
    </TTGlyph>
    <TTGlyph name="L" xMin="70" yMin="0" xMax="395" yMax="690">
      <contour>
        <pt x="395" y="0" on="1"/>
        <pt x="70" y="0" on="1"/>
        <pt x="70" y="690" on="1"/>
        <pt x="162" y="690" on="1"/>
        <pt x="162" y="86" on="1"/>
        <pt x="382" y="86" on="1"/>
      </contour>
    </TTGlyph>
    <TTGlyph name="L.flat" xMin="70" yMin="0" xMax="389" yMax="690">
      <contour>
        <pt x="389" y="0" on="1"/>
        <pt x="70" y="0" on="1"/>
        <pt x="70" y="690" on="1"/>
        <pt x="162" y="690" on="1"/>
        <pt x="162" y="86" on="1"/>
        <pt x="389" y="86" on="1"/>
      </contour>
    </TTGlyph>
    <TTGlyph name="Lacute" xMin="70" yMin="0" xMax="395" yMax="889">
      <component glyphName="L" x="0" y="0" flags="0x204"/>
      <component glyphName="acute" x="-18" y="200" flags="0x4"/>
    </TTGlyph>
    <TTGlyph name="Lacute.flat" xMin="70" yMin="0" xMax="389" yMax="889">
      <component glyphName="L.flat" x="0" y="0" flags="0x204"/>
      <component glyphName="acute" x="-18" y="200" flags="0x4"/>
    </TTGlyph>
    <TTGlyph name="Lcaron" xMin="70" yMin="0" xMax="395" yMax="697">
      <component glyphName="L" x="0" y="0" flags="0x204"/>
      <component glyphName="caron.alt" x="69" y="-25" flags="0x4"/>
    </TTGlyph>
    <TTGlyph name="Lcaron.flat" xMin="70" yMin="0" xMax="389" yMax="697">
      <component glyphName="caron.alt" x="69" y="-25" flags="0x4"/>
      <component glyphName="L.flat" x="0" y="0" flags="0x204"/>
    </TTGlyph>
    <TTGlyph name="Lcommaaccent" xMin="70" yMin="-238" xMax="395" yMax="690">
      <component glyphName="L" x="0" y="0" flags="0x204"/>
      <component glyphName="commaaccent" x="30" y="0" flags="0x4"/>
    </TTGlyph>
    <TTGlyph name="Lcommaaccent.flat" xMin="70" yMin="-238" xMax="389" yMax="690">
      <component glyphName="L.flat" x="0" y="0" flags="0x204"/>
      <component glyphName="commaaccent" x="30" y="0" flags="0x4"/>
    </TTGlyph>
    <TTGlyph name="Ldot" xMin="70" yMin="0" xMax="395" yMax="690">
      <contour>
        <pt x="395" y="0" on="1"/>
        <pt x="70" y="0" on="1"/>
        <pt x="70" y="690" on="1"/>
        <pt x="162" y="690" on="1"/>
        <pt x="162" y="86" on="1"/>
        <pt x="382" y="86" on="1"/>
      </contour>
      <contour>
        <pt x="373" y="305" on="1"/>
        <pt x="279" y="305" on="1"/>
        <pt x="279" y="406" on="1"/>
        <pt x="373" y="406" on="1"/>
      </contour>
    </TTGlyph>
    <TTGlyph name="Ldot.flat" xMin="70" yMin="0" xMax="389" yMax="690">
      <contour>
        <pt x="389" y="0" on="1"/>
        <pt x="70" y="0" on="1"/>
        <pt x="70" y="690" on="1"/>
        <pt x="162" y="690" on="1"/>
        <pt x="162" y="86" on="1"/>
        <pt x="389" y="86" on="1"/>
      </contour>
      <contour>
        <pt x="373" y="305" on="1"/>
        <pt x="279" y="305" on="1"/>
        <pt x="279" y="406" on="1"/>
        <pt x="373" y="406" on="1"/>
      </contour>
    </TTGlyph>
    <TTGlyph name="Lslash" xMin="11" yMin="0" xMax="413" yMax="690">
      <contour>
        <pt x="413" y="0" on="1"/>
        <pt x="89" y="0" on="1"/>
        <pt x="89" y="262" on="1"/>
        <pt x="24" y="225" on="1"/>
        <pt x="11" y="308" on="1"/>
        <pt x="89" y="352" on="1"/>
        <pt x="89" y="690" on="1"/>
        <pt x="181" y="690" on="1"/>
        <pt x="181" y="401" on="1"/>
        <pt x="314" y="476" on="1"/>
        <pt x="314" y="386" on="1"/>
        <pt x="181" y="312" on="1"/>
        <pt x="181" y="86" on="1"/>
        <pt x="400" y="86" on="1"/>
      </contour>
    </TTGlyph>
    <TTGlyph name="Lslash.flat" xMin="17" yMin="0" xMax="411" yMax="690">
      <contour>
        <pt x="411" y="0" on="1"/>
        <pt x="89" y="0" on="1"/>
        <pt x="89" y="262" on="1"/>
        <pt x="17" y="221" on="1"/>
        <pt x="17" y="312" on="1"/>
        <pt x="89" y="352" on="1"/>
        <pt x="89" y="690" on="1"/>
        <pt x="181" y="690" on="1"/>
        <pt x="181" y="401" on="1"/>
        <pt x="314" y="476" on="1"/>
        <pt x="314" y="386" on="1"/>
        <pt x="181" y="312" on="1"/>
        <pt x="181" y="86" on="1"/>
        <pt x="404" y="86" on="1"/>
      </contour>
    </TTGlyph>
    <TTGlyph name="M" xMin="54" yMin="-3" xMax="736" yMax="690">
      <contour>
        <pt x="736" y="0" on="1"/>
        <pt x="648" y="0" on="1"/>
        <pt x="615" y="551" on="1"/>
        <pt x="431" y="-3" on="1"/>
        <pt x="355" y="-3" on="1"/>
        <pt x="170" y="551" on="1"/>
        <pt x="139" y="0" on="1"/>
        <pt x="54" y="0" on="1"/>
        <pt x="98" y="690" on="1"/>
        <pt x="210" y="690" on="1"/>
        <pt x="395" y="123" on="1"/>
        <pt x="581" y="690" on="1"/>
        <pt x="692" y="690" on="1"/>
      </contour>
    </TTGlyph>
    <TTGlyph name="M.alt" xMin="70" yMin="-3" xMax="718" yMax="690">
      <contour>
        <pt x="718" y="0" on="1"/>
        <pt x="630" y="0" on="1"/>
        <pt x="631" y="553" on="1"/>
        <pt x="431" y="-3" on="1"/>
        <pt x="353" y="-3" on="1"/>
        <pt x="154" y="553" on="1"/>
        <pt x="155" y="0" on="1"/>
        <pt x="70" y="0" on="1"/>
        <pt x="70" y="690" on="1"/>
        <pt x="192" y="690" on="1"/>
        <pt x="395" y="126" on="1"/>
        <pt x="598" y="690" on="1"/>
        <pt x="718" y="690" on="1"/>
      </contour>
    </TTGlyph>
    <TTGlyph name="N" xMin="70" yMin="0" xMax="540" yMax="690">
      <contour>
        <pt x="540" y="0" on="1"/>
        <pt x="463" y="0" on="1"/>
        <pt x="154" y="530" on="1"/>
        <pt x="156" y="0" on="1"/>
        <pt x="70" y="0" on="1"/>
        <pt x="70" y="690" on="1"/>
        <pt x="158" y="690" on="1"/>
        <pt x="456" y="179" on="1"/>
        <pt x="454" y="690" on="1"/>
        <pt x="540" y="690" on="1"/>
      </contour>
    </TTGlyph>
    <TTGlyph name="Nacute" xMin="70" yMin="0" xMax="540" yMax="882">
      <component glyphName="N" x="0" y="0" flags="0x204"/>
      <component glyphName="acute" x="153" y="193" flags="0x4"/>
    </TTGlyph>
    <TTGlyph name="Ncaron" xMin="70" yMin="0" xMax="540" yMax="874">
      <component glyphName="N" x="0" y="0" flags="0x204"/>
      <component glyphName="caron" x="101" y="193" flags="0x4"/>
    </TTGlyph>
    <TTGlyph name="Ncommaaccent" xMin="70" yMin="-230" xMax="540" yMax="690">
      <component glyphName="N" x="0" y="0" flags="0x204"/>
      <component glyphName="commaaccent" x="104" y="8" flags="0x4"/>
    </TTGlyph>
    <TTGlyph name="Ntilde" xMin="70" yMin="0" xMax="540" yMax="861">
      <component glyphName="N" x="0" y="0" flags="0x204"/>
      <component glyphName="tilde" x="105" y="193" flags="0x4"/>
    </TTGlyph>
    <TTGlyph name="O" xMin="43" yMin="-13" xMax="590" yMax="703">
      <contour>
        <pt x="590" y="346" on="1"/>
        <pt x="590" y="266" on="0"/>
        <pt x="552" y="133" on="0"/>
        <pt x="481" y="39" on="0"/>
        <pt x="378" y="-13" on="0"/>
        <pt x="315" y="-13" on="1"/>
        <pt x="252" y="-13" on="0"/>
        <pt x="150" y="39" on="0"/>
        <pt x="80" y="132" on="0"/>
        <pt x="43" y="264" on="0"/>
        <pt x="43" y="344" on="1"/>
        <pt x="43" y="425" on="0"/>
        <pt x="81" y="558" on="0"/>
        <pt x="152" y="651" on="0"/>
        <pt x="254" y="703" on="0"/>
        <pt x="317" y="703" on="1"/>
        <pt x="381" y="703" on="0"/>
        <pt x="483" y="652" on="0"/>
        <pt x="553" y="559" on="0"/>
        <pt x="590" y="426" on="0"/>
      </contour>
      <contour>
        <pt x="496" y="345" on="1"/>
        <pt x="496" y="470" on="0"/>
        <pt x="399" y="620" on="0"/>
        <pt x="316" y="620" on="1"/>
        <pt x="232" y="620" on="0"/>
        <pt x="137" y="470" on="0"/>
        <pt x="137" y="345" on="1"/>
        <pt x="137" y="220" on="0"/>
        <pt x="234" y="71" on="0"/>
        <pt x="316" y="71" on="1"/>
        <pt x="400" y="71" on="0"/>
        <pt x="496" y="220" on="0"/>
      </contour>
    </TTGlyph>
    <TTGlyph name="OE" xMin="44" yMin="0" xMax="744" yMax="690">
      <contour>
        <pt x="744" y="0" on="1"/>
        <pt x="370" y="0" on="1"/>
        <pt x="288" y="0" on="0"/>
        <pt x="165" y="51" on="0"/>
        <pt x="84" y="141" on="0"/>
        <pt x="44" y="268" on="0"/>
        <pt x="44" y="344" on="1"/>
        <pt x="44" y="420" on="0"/>
        <pt x="86" y="548" on="0"/>
        <pt x="169" y="639" on="0"/>
        <pt x="294" y="690" on="0"/>
        <pt x="376" y="690" on="1"/>
        <pt x="734" y="690" on="1"/>
        <pt x="734" y="606" on="1"/>
        <pt x="491" y="606" on="1"/>
        <pt x="491" y="403" on="1"/>
        <pt x="679" y="403" on="1"/>
        <pt x="693" y="319" on="1"/>
        <pt x="491" y="319" on="1"/>
        <pt x="491" y="85" on="1"/>
        <pt x="744" y="85" on="1"/>
      </contour>
      <contour>
        <pt x="400" y="84" on="1"/>
        <pt x="400" y="607" on="1"/>
        <pt x="367" y="607" on="1"/>
        <pt x="260" y="607" on="0"/>
        <pt x="137" y="476" on="0"/>
        <pt x="137" y="345" on="1"/>
        <pt x="137" y="217" on="0"/>
        <pt x="261" y="84" on="0"/>
        <pt x="365" y="84" on="1"/>
      </contour>
    </TTGlyph>
    <TTGlyph name="OE.flat" xMin="44" yMin="0" xMax="744" yMax="690">
      <contour>
        <pt x="744" y="0" on="1"/>
        <pt x="370" y="0" on="1"/>
        <pt x="288" y="0" on="0"/>
        <pt x="165" y="51" on="0"/>
        <pt x="84" y="141" on="0"/>
        <pt x="44" y="268" on="0"/>
        <pt x="44" y="344" on="1"/>
        <pt x="44" y="420" on="0"/>
        <pt x="86" y="548" on="0"/>
        <pt x="169" y="639" on="0"/>
        <pt x="294" y="690" on="0"/>
        <pt x="376" y="690" on="1"/>
        <pt x="734" y="690" on="1"/>
        <pt x="734" y="606" on="1"/>
        <pt x="491" y="606" on="1"/>
        <pt x="491" y="403" on="1"/>
        <pt x="686" y="403" on="1"/>
        <pt x="686" y="319" on="1"/>
        <pt x="491" y="319" on="1"/>
        <pt x="491" y="85" on="1"/>
        <pt x="744" y="85" on="1"/>
      </contour>
      <contour>
        <pt x="400" y="84" on="1"/>
        <pt x="400" y="607" on="1"/>
        <pt x="367" y="607" on="1"/>
        <pt x="260" y="607" on="0"/>
        <pt x="137" y="476" on="0"/>
        <pt x="137" y="345" on="1"/>
        <pt x="137" y="217" on="0"/>
        <pt x="261" y="84" on="0"/>
        <pt x="365" y="84" on="1"/>
      </contour>
    </TTGlyph>
    <TTGlyph name="Oacute" xMin="43" yMin="-13" xMax="590" yMax="899">
      <component glyphName="O" x="0" y="0" flags="0x204"/>
      <component glyphName="acute" x="164" y="210" flags="0x4"/>
    </TTGlyph>
    <TTGlyph name="Obreve" xMin="43" yMin="-13" xMax="590" yMax="878">
      <component glyphName="O" x="0" y="0" flags="0x204"/>
      <component glyphName="breve" x="113" y="210" flags="0x4"/>
    </TTGlyph>
    <TTGlyph name="Ocircumflex" xMin="43" yMin="-13" xMax="590" yMax="892">
      <component glyphName="O" x="0" y="0" flags="0x204"/>
      <component glyphName="circumflex" x="113" y="210" flags="0x4"/>
    </TTGlyph>
    <TTGlyph name="Odieresis" xMin="43" yMin="-13" xMax="590" yMax="856">
      <component glyphName="O" x="0" y="0" flags="0x204"/>
      <component glyphName="dieresis" x="113" y="210" flags="0x4"/>
    </TTGlyph>
    <TTGlyph name="Ograve" xMin="43" yMin="-13" xMax="590" yMax="899">
      <component glyphName="O" x="0" y="0" flags="0x204"/>
      <component glyphName="grave" x="61" y="210" flags="0x4"/>
    </TTGlyph>
    <TTGlyph name="Ohungarumlaut" xMin="43" yMin="-13" xMax="590" yMax="899">
      <component glyphName="O" x="0" y="0" flags="0x204"/>
      <component glyphName="hungarumlaut" x="160" y="210" flags="0x4"/>
    </TTGlyph>
    <TTGlyph name="Omacron" xMin="43" yMin="-13" xMax="590" yMax="843">
      <component glyphName="O" x="0" y="0" flags="0x204"/>
      <component glyphName="macron" x="113" y="210" flags="0x4"/>
    </TTGlyph>
    <TTGlyph name="Oslash" xMin="34" yMin="-13" xMax="598" yMax="703">
      <contour>
        <pt x="315" y="-13" on="1"/>
        <pt x="266" y="-13" on="0"/>
        <pt x="184" y="18" on="0"/>
        <pt x="152" y="46" on="1"/>
        <pt x="113" y="-9" on="1"/>
        <pt x="34" y="10" on="1"/>
        <pt x="102" y="105" on="1"/>
        <pt x="74" y="151" on="0"/>
        <pt x="43" y="272" on="0"/>
        <pt x="43" y="344" on="1"/>
        <pt x="43" y="425" on="0"/>
        <pt x="81" y="558" on="0"/>
        <pt x="152" y="651" on="0"/>
        <pt x="254" y="703" on="0"/>
        <pt x="317" y="703" on="1"/>
        <pt x="366" y="703" on="0"/>
        <pt x="449" y="672" on="0"/>
        <pt x="481" y="644" on="1"/>
        <pt x="520" y="699" on="1"/>
        <pt x="598" y="680" on="1"/>
        <pt x="531" y="586" on="1"/>
        <pt x="559" y="540" on="0"/>
        <pt x="590" y="418" on="0"/>
        <pt x="590" y="346" on="1"/>
        <pt x="590" y="266" on="0"/>
        <pt x="552" y="133" on="0"/>
        <pt x="481" y="39" on="0"/>
        <pt x="378" y="-13" on="0"/>
      </contour>
      <contour>
        <pt x="135" y="345" on="1"/>
        <pt x="135" y="298" on="0"/>
        <pt x="150" y="216" on="0"/>
        <pt x="163" y="184" on="1"/>
        <pt x="430" y="570" on="1"/>
        <pt x="408" y="595" on="0"/>
        <pt x="350" y="621" on="0"/>
        <pt x="316" y="621" on="1"/>
        <pt x="232" y="621" on="0"/>
        <pt x="135" y="470" on="0"/>
      </contour>
      <contour>
        <pt x="316" y="69" on="1"/>
        <pt x="400" y="69" on="0"/>
        <pt x="498" y="220" on="0"/>
        <pt x="498" y="345" on="1"/>
        <pt x="498" y="392" on="0"/>
        <pt x="483" y="474" on="0"/>
        <pt x="470" y="507" on="1"/>
        <pt x="202" y="120" on="1"/>
        <pt x="224" y="95" on="0"/>
        <pt x="282" y="69" on="0"/>
      </contour>
    </TTGlyph>
    <TTGlyph name="Oslashacute" xMin="34" yMin="-13" xMax="598" yMax="899">
      <component glyphName="Oslash" x="0" y="0" flags="0x204"/>
      <component glyphName="acute" x="169" y="210" flags="0x4"/>
    </TTGlyph>
    <TTGlyph name="Otilde" xMin="43" yMin="-13" xMax="590" yMax="878">
      <component glyphName="O" x="0" y="0" flags="0x204"/>
      <component glyphName="tilde" x="116" y="210" flags="0x4"/>
    </TTGlyph>
    <TTGlyph name="P" xMin="70" yMin="0" xMax="453" yMax="690">
      <contour>
        <pt x="70" y="0" on="1"/>
        <pt x="70" y="690" on="1"/>
        <pt x="225" y="690" on="1"/>
        <pt x="332" y="690" on="0"/>
        <pt x="453" y="583" on="0"/>
        <pt x="453" y="483" on="1"/>
        <pt x="453" y="377" on="0"/>
        <pt x="321" y="267" on="0"/>
        <pt x="214" y="267" on="1"/>
        <pt x="162" y="267" on="1"/>
        <pt x="162" y="0" on="1"/>
      </contour>
      <contour>
        <pt x="361" y="481" on="1"/>
        <pt x="361" y="543" on="0"/>
        <pt x="291" y="608" on="0"/>
        <pt x="220" y="608" on="1"/>
        <pt x="162" y="608" on="1"/>
        <pt x="162" y="349" on="1"/>
        <pt x="215" y="349" on="1"/>
        <pt x="286" y="349" on="0"/>
        <pt x="361" y="415" on="0"/>
      </contour>
    </TTGlyph>
    <TTGlyph name="Q" xMin="43" yMin="-138" xMax="590" yMax="703">
      <contour>
        <pt x="558" y="-138" on="1"/>
        <pt x="245" y="-8" on="1"/>
        <pt x="145" y="35" on="0"/>
        <pt x="43" y="204" on="0"/>
        <pt x="43" y="344" on="1"/>
        <pt x="43" y="425" on="0"/>
        <pt x="81" y="558" on="0"/>
        <pt x="152" y="651" on="0"/>
        <pt x="254" y="703" on="0"/>
        <pt x="317" y="703" on="1"/>
        <pt x="381" y="703" on="0"/>
        <pt x="483" y="652" on="0"/>
        <pt x="553" y="559" on="0"/>
        <pt x="590" y="426" on="0"/>
        <pt x="590" y="346" on="1"/>
        <pt x="590" y="212" on="0"/>
        <pt x="490" y="40" on="0"/>
        <pt x="403" y="9" on="1"/>
        <pt x="578" y="-55" on="1"/>
      </contour>
      <contour>
        <pt x="496" y="345" on="1"/>
        <pt x="496" y="470" on="0"/>
        <pt x="399" y="620" on="0"/>
        <pt x="316" y="620" on="1"/>
        <pt x="232" y="620" on="0"/>
        <pt x="137" y="470" on="0"/>
        <pt x="137" y="345" on="1"/>
        <pt x="137" y="285" on="0"/>
        <pt x="162" y="182" on="0"/>
        <pt x="208" y="108" on="0"/>
        <pt x="275" y="66" on="0"/>
        <pt x="317" y="66" on="1"/>
        <pt x="359" y="66" on="0"/>
        <pt x="426" y="108" on="0"/>
        <pt x="472" y="182" on="0"/>
        <pt x="496" y="285" on="0"/>
      </contour>
    </TTGlyph>
    <TTGlyph name="Q.alt" xMin="42" yMin="-15" xMax="603" yMax="703">
      <contour>
        <pt x="586" y="-15" on="1"/>
        <pt x="496" y="65" on="1"/>
        <pt x="461" y="28" on="0"/>
        <pt x="369" y="-13" on="0"/>
        <pt x="315" y="-13" on="1"/>
        <pt x="252" y="-13" on="0"/>
        <pt x="150" y="39" on="0"/>
        <pt x="80" y="132" on="0"/>
        <pt x="42" y="264" on="0"/>
        <pt x="42" y="344" on="1"/>
        <pt x="42" y="425" on="0"/>
        <pt x="80" y="558" on="0"/>
        <pt x="151" y="651" on="0"/>
        <pt x="254" y="703" on="0"/>
        <pt x="317" y="703" on="1"/>
        <pt x="380" y="703" on="0"/>
        <pt x="482" y="652" on="0"/>
        <pt x="552" y="559" on="0"/>
        <pt x="589" y="426" on="0"/>
        <pt x="589" y="346" on="1"/>
        <pt x="589" y="284" on="0"/>
        <pt x="564" y="175" on="0"/>
        <pt x="542" y="131" on="1"/>
        <pt x="603" y="81" on="1"/>
      </contour>
      <contour>
        <pt x="316" y="71" on="1"/>
        <pt x="351" y="71" on="0"/>
        <pt x="409" y="96" on="0"/>
        <pt x="431" y="121" on="1"/>
        <pt x="292" y="238" on="1"/>
        <pt x="395" y="261" on="1"/>
        <pt x="472" y="191" on="1"/>
        <pt x="484" y="222" on="0"/>
        <pt x="496" y="300" on="0"/>
        <pt x="496" y="345" on="1"/>
        <pt x="496" y="470" on="0"/>
        <pt x="398" y="620" on="0"/>
        <pt x="316" y="620" on="1"/>
        <pt x="232" y="620" on="0"/>
        <pt x="136" y="470" on="0"/>
        <pt x="136" y="345" on="1"/>
        <pt x="136" y="220" on="0"/>
        <pt x="233" y="71" on="0"/>
      </contour>
    </TTGlyph>
    <TTGlyph name="Q.alt_flat" xMin="42" yMin="-19" xMax="597" yMax="703">
      <contour>
        <pt x="597" y="-19" on="1"/>
        <pt x="495" y="65" on="1"/>
        <pt x="461" y="28" on="0"/>
        <pt x="369" y="-13" on="0"/>
        <pt x="315" y="-13" on="1"/>
        <pt x="252" y="-13" on="0"/>
        <pt x="150" y="39" on="0"/>
        <pt x="80" y="132" on="0"/>
        <pt x="42" y="264" on="0"/>
        <pt x="42" y="344" on="1"/>
        <pt x="42" y="425" on="0"/>
        <pt x="80" y="558" on="0"/>
        <pt x="151" y="651" on="0"/>
        <pt x="254" y="703" on="0"/>
        <pt x="317" y="703" on="1"/>
        <pt x="380" y="703" on="0"/>
        <pt x="482" y="652" on="0"/>
        <pt x="552" y="559" on="0"/>
        <pt x="589" y="426" on="0"/>
        <pt x="589" y="346" on="1"/>
        <pt x="589" y="284" on="0"/>
        <pt x="564" y="176" on="0"/>
        <pt x="542" y="133" on="1"/>
        <pt x="597" y="89" on="1"/>
      </contour>
      <contour>
        <pt x="316" y="71" on="1"/>
        <pt x="350" y="71" on="0"/>
        <pt x="407" y="96" on="0"/>
        <pt x="429" y="119" on="1"/>
        <pt x="329" y="198" on="1"/>
        <pt x="329" y="307" on="1"/>
        <pt x="471" y="189" on="1"/>
        <pt x="483" y="220" on="0"/>
        <pt x="496" y="299" on="0"/>
        <pt x="496" y="345" on="1"/>
        <pt x="496" y="470" on="0"/>
        <pt x="398" y="620" on="0"/>
        <pt x="316" y="620" on="1"/>
        <pt x="232" y="620" on="0"/>
        <pt x="136" y="470" on="0"/>
        <pt x="136" y="345" on="1"/>
        <pt x="136" y="220" on="0"/>
        <pt x="233" y="71" on="0"/>
      </contour>
    </TTGlyph>
    <TTGlyph name="R" xMin="70" yMin="-7" xMax="503" yMax="690">
      <contour>
        <pt x="409" y="-7" on="1"/>
        <pt x="218" y="294" on="1"/>
        <pt x="162" y="294" on="1"/>
        <pt x="162" y="0" on="1"/>
        <pt x="70" y="0" on="1"/>
        <pt x="70" y="690" on="1"/>
        <pt x="236" y="690" on="1"/>
        <pt x="340" y="690" on="0"/>
        <pt x="458" y="587" on="0"/>
        <pt x="458" y="494" on="1"/>
        <pt x="458" y="418" on="0"/>
        <pt x="377" y="323" on="0"/>
        <pt x="314" y="305" on="1"/>
        <pt x="503" y="14" on="1"/>
      </contour>
      <contour>
        <pt x="366" y="490" on="1"/>
        <pt x="366" y="545" on="0"/>
        <pt x="299" y="608" on="0"/>
        <pt x="232" y="608" on="1"/>
        <pt x="162" y="608" on="1"/>
        <pt x="162" y="371" on="1"/>
        <pt x="224" y="371" on="1"/>
        <pt x="290" y="371" on="0"/>
        <pt x="366" y="434" on="0"/>
      </contour>
    </TTGlyph>
    <TTGlyph name="R.flat" xMin="70" yMin="0" xMax="512" yMax="690">
      <contour>
        <pt x="366" y="490" on="1"/>
        <pt x="366" y="545" on="0"/>
        <pt x="299" y="608" on="0"/>
        <pt x="232" y="608" on="1"/>
        <pt x="162" y="608" on="1"/>
        <pt x="162" y="371" on="1"/>
        <pt x="224" y="371" on="1"/>
        <pt x="290" y="371" on="0"/>
        <pt x="366" y="434" on="0"/>
      </contour>
      <contour>
        <pt x="162" y="0" on="1"/>
        <pt x="70" y="0" on="1"/>
        <pt x="70" y="690" on="1"/>
        <pt x="236" y="690" on="1"/>
        <pt x="340" y="690" on="0"/>
        <pt x="458" y="587" on="0"/>
        <pt x="458" y="494" on="1"/>
        <pt x="458" y="418" on="0"/>
        <pt x="377" y="323" on="0"/>
        <pt x="314" y="305" on="1"/>
        <pt x="512" y="0" on="1"/>
        <pt x="405" y="0" on="1"/>
        <pt x="218" y="294" on="1"/>
        <pt x="162" y="294" on="1"/>
      </contour>
    </TTGlyph>
    <TTGlyph name="R_p" xMin="76" yMin="-186" xMax="924" yMax="683">
      <contour>
        <pt x="410" y="-7" on="1"/>
        <pt x="223" y="292" on="1"/>
        <pt x="164" y="292" on="1"/>
        <pt x="164" y="0" on="1"/>
        <pt x="76" y="0" on="1"/>
        <pt x="76" y="683" on="1"/>
        <pt x="238" y="683" on="1"/>
        <pt x="342" y="683" on="0"/>
        <pt x="460" y="580" on="0"/>
        <pt x="460" y="489" on="1"/>
        <pt x="460" y="414" on="0"/>
        <pt x="379" y="320" on="0"/>
        <pt x="316" y="302" on="1"/>
        <pt x="499" y="14" on="1"/>
      </contour>
      <contour>
        <pt x="371" y="485" on="1"/>
        <pt x="371" y="541" on="0"/>
        <pt x="304" y="604" on="0"/>
        <pt x="236" y="604" on="1"/>
        <pt x="164" y="604" on="1"/>
        <pt x="164" y="366" on="1"/>
        <pt x="228" y="366" on="1"/>
        <pt x="295" y="366" on="0"/>
        <pt x="371" y="430" on="0"/>
      </contour>
      <contour>
        <pt x="837" y="249" on="1"/>
        <pt x="837" y="333" on="0"/>
        <pt x="782" y="413" on="0"/>
        <pt x="742" y="413" on="1"/>
        <pt x="711" y="413" on="0"/>
        <pt x="658" y="375" on="0"/>
        <pt x="632" y="343" on="1"/>
        <pt x="632" y="91" on="1"/>
        <pt x="654" y="80" on="0"/>
        <pt x="694" y="70" on="0"/>
        <pt x="721" y="70" on="1"/>
        <pt x="770" y="70" on="0"/>
        <pt x="837" y="159" on="0"/>
      </contour>
      <contour>
        <pt x="924" y="253" on="1"/>
        <pt x="924" y="187" on="0"/>
        <pt x="892" y="89" on="0"/>
        <pt x="837" y="25" on="0"/>
        <pt x="766" y="-6" on="0"/>
        <pt x="727" y="-6" on="1"/>
        <pt x="699" y="-6" on="0"/>
        <pt x="651" y="5" on="0"/>
        <pt x="632" y="13" on="1"/>
        <pt x="632" y="-173" on="1"/>
        <pt x="545" y="-186" on="1"/>
        <pt x="545" y="482" on="1"/>
        <pt x="614" y="482" on="1"/>
        <pt x="624" y="421" on="1"/>
        <pt x="649" y="450" on="0"/>
        <pt x="713" y="492" on="0"/>
        <pt x="757" y="492" on="1"/>
        <pt x="791" y="492" on="0"/>
        <pt x="852" y="463" on="0"/>
        <pt x="897" y="405" on="0"/>
        <pt x="924" y="314" on="0"/>
      </contour>
    </TTGlyph>
    <TTGlyph name="R_p.flat" xMin="76" yMin="-186" xMax="924" yMax="683">
      <contour>
        <pt x="371" y="485" on="1"/>
        <pt x="371" y="541" on="0"/>
        <pt x="304" y="604" on="0"/>
        <pt x="236" y="604" on="1"/>
        <pt x="164" y="604" on="1"/>
        <pt x="164" y="366" on="1"/>
        <pt x="228" y="366" on="1"/>
        <pt x="295" y="366" on="0"/>
        <pt x="371" y="430" on="0"/>
      </contour>
      <contour>
        <pt x="837" y="249" on="1"/>
        <pt x="837" y="333" on="0"/>
        <pt x="782" y="413" on="0"/>
        <pt x="742" y="413" on="1"/>
        <pt x="711" y="413" on="0"/>
        <pt x="658" y="375" on="0"/>
        <pt x="632" y="343" on="1"/>
        <pt x="632" y="91" on="1"/>
        <pt x="654" y="80" on="0"/>
        <pt x="694" y="70" on="0"/>
        <pt x="721" y="70" on="1"/>
        <pt x="770" y="70" on="0"/>
        <pt x="837" y="159" on="0"/>
      </contour>
      <contour>
        <pt x="405" y="0" on="1"/>
        <pt x="223" y="292" on="1"/>
        <pt x="164" y="292" on="1"/>
        <pt x="164" y="0" on="1"/>
        <pt x="76" y="0" on="1"/>
        <pt x="76" y="683" on="1"/>
        <pt x="238" y="683" on="1"/>
        <pt x="342" y="683" on="0"/>
        <pt x="460" y="580" on="0"/>
        <pt x="460" y="489" on="1"/>
        <pt x="460" y="414" on="0"/>
        <pt x="379" y="320" on="0"/>
        <pt x="316" y="302" on="1"/>
        <pt x="508" y="0" on="1"/>
      </contour>
      <contour>
        <pt x="924" y="253" on="1"/>
        <pt x="924" y="187" on="0"/>
        <pt x="892" y="89" on="0"/>
        <pt x="837" y="25" on="0"/>
        <pt x="766" y="-6" on="0"/>
        <pt x="727" y="-6" on="1"/>
        <pt x="699" y="-6" on="0"/>
        <pt x="651" y="5" on="0"/>
        <pt x="632" y="13" on="1"/>
        <pt x="632" y="-173" on="1"/>
        <pt x="545" y="-186" on="1"/>
        <pt x="545" y="482" on="1"/>
        <pt x="614" y="482" on="1"/>
        <pt x="624" y="421" on="1"/>
        <pt x="649" y="450" on="0"/>
        <pt x="713" y="492" on="0"/>
        <pt x="757" y="492" on="1"/>
        <pt x="791" y="492" on="0"/>
        <pt x="852" y="463" on="0"/>
        <pt x="897" y="405" on="0"/>
        <pt x="924" y="314" on="0"/>
      </contour>
    </TTGlyph>
    <TTGlyph name="Racute" xMin="70" yMin="-7" xMax="503" yMax="892">
      <component glyphName="R" x="0" y="0" flags="0x204"/>
      <component glyphName="acute" x="97" y="203" flags="0x4"/>
    </TTGlyph>
    <TTGlyph name="Racute.flat" xMin="70" yMin="0" xMax="512" yMax="892">
      <component glyphName="R.flat" x="0" y="0" flags="0x204"/>
      <component glyphName="acute" x="97" y="203" flags="0x4"/>
    </TTGlyph>
    <TTGlyph name="Rcaron" xMin="70" yMin="-7" xMax="503" yMax="884">
      <component glyphName="R" x="0" y="0" flags="0x204"/>
      <component glyphName="caron" x="45" y="203" flags="0x4"/>
    </TTGlyph>
    <TTGlyph name="Rcaron.flat" xMin="70" yMin="0" xMax="512" yMax="884">
      <component glyphName="R.flat" x="0" y="0" flags="0x204"/>
      <component glyphName="caron" x="45" y="203" flags="0x4"/>
    </TTGlyph>
    <TTGlyph name="Rcommaaccent" xMin="70" yMin="-230" xMax="503" yMax="690">
      <component glyphName="R" x="0" y="0" flags="0x204"/>
      <component glyphName="commaaccent" x="65" y="8" flags="0x4"/>
    </TTGlyph>
    <TTGlyph name="Rcommaaccent.flat" xMin="70" yMin="-230" xMax="512" yMax="690">
      <component glyphName="R.flat" x="0" y="0" flags="0x204"/>
      <component glyphName="commaaccent" x="65" y="8" flags="0x4"/>
    </TTGlyph>
    <TTGlyph name="S" xMin="40" yMin="-8" xMax="418" yMax="698">
      <contour>
        <pt x="418" y="182" on="1"/>
        <pt x="418" y="98" on="0"/>
        <pt x="304" y="-8" on="0"/>
        <pt x="211" y="-8" on="1"/>
        <pt x="162" y="-8" on="0"/>
        <pt x="76" y="16" on="0"/>
        <pt x="40" y="35" on="1"/>
        <pt x="54" y="127" on="1"/>
        <pt x="87" y="106" on="0"/>
        <pt x="168" y="75" on="0"/>
        <pt x="213" y="75" on="1"/>
        <pt x="263" y="75" on="0"/>
        <pt x="327" y="127" on="0"/>
        <pt x="327" y="174" on="1"/>
        <pt x="327" y="219" on="0"/>
        <pt x="276" y="278" on="0"/>
        <pt x="210" y="317" on="1"/>
        <pt x="128" y="365" on="0"/>
        <pt x="51" y="450" on="0"/>
        <pt x="51" y="522" on="1"/>
        <pt x="51" y="600" on="0"/>
        <pt x="158" y="698" on="0"/>
        <pt x="246" y="698" on="1"/>
        <pt x="289" y="698" on="0"/>
        <pt x="359" y="678" on="0"/>
        <pt x="387" y="662" on="1"/>
        <pt x="372" y="570" on="1"/>
        <pt x="344" y="591" on="0"/>
        <pt x="278" y="616" on="0"/>
        <pt x="243" y="616" on="1"/>
        <pt x="193" y="616" on="0"/>
        <pt x="142" y="565" on="0"/>
        <pt x="142" y="528" on="1"/>
        <pt x="142" y="486" on="0"/>
        <pt x="193" y="434" on="0"/>
        <pt x="259" y="395" on="1"/>
        <pt x="345" y="344" on="0"/>
        <pt x="418" y="254" on="0"/>
      </contour>
    </TTGlyph>
    <TTGlyph name="Sacute" xMin="40" yMin="-8" xMax="418" yMax="899">
      <component glyphName="S" x="0" y="0" flags="0x204"/>
      <component glyphName="acute" x="84" y="210" flags="0x4"/>
    </TTGlyph>
    <TTGlyph name="Scaron" xMin="40" yMin="-8" xMax="418" yMax="891">
      <component glyphName="S" x="0" y="0" flags="0x204"/>
      <component glyphName="caron" x="32" y="210" flags="0x4"/>
    </TTGlyph>
    <TTGlyph name="Scedilla" xMin="40" yMin="-193" xMax="418" yMax="698">
      <component glyphName="S" x="0" y="0" flags="0x204"/>
      <component glyphName="cedilla" x="10" y="-3" flags="0x4"/>
    </TTGlyph>
    <TTGlyph name="Scommaaccent" xMin="40" yMin="-242" xMax="418" yMax="698">
      <component glyphName="S" x="0" y="0" flags="0x204"/>
      <component glyphName="commaaccent" x="30" y="-4" flags="0x4"/>
    </TTGlyph>
    <TTGlyph name="T" xMin="24" yMin="0" xMax="490" yMax="690">
      <contour>
        <pt x="490" y="606" on="1"/>
        <pt x="300" y="606" on="1"/>
        <pt x="300" y="0" on="1"/>
        <pt x="208" y="0" on="1"/>
        <pt x="208" y="606" on="1"/>
        <pt x="24" y="606" on="1"/>
        <pt x="24" y="690" on="1"/>
        <pt x="476" y="690" on="1"/>
      </contour>
    </TTGlyph>
    <TTGlyph name="T.flat" xMin="24" yMin="0" xMax="484" yMax="690">
      <contour>
        <pt x="484" y="606" on="1"/>
        <pt x="300" y="606" on="1"/>
        <pt x="300" y="0" on="1"/>
        <pt x="208" y="0" on="1"/>
        <pt x="208" y="606" on="1"/>
        <pt x="24" y="606" on="1"/>
        <pt x="24" y="690" on="1"/>
        <pt x="484" y="690" on="1"/>
      </contour>
    </TTGlyph>
    <TTGlyph name="Tcaron" xMin="24" yMin="0" xMax="490" yMax="884">
      <component glyphName="T" x="0" y="0" flags="0x204"/>
      <component glyphName="caron" x="52" y="203" flags="0x4"/>
    </TTGlyph>
    <TTGlyph name="Tcaron.flat" xMin="24" yMin="0" xMax="484" yMax="884">
      <component glyphName="T.flat" x="0" y="0" flags="0x204"/>
      <component glyphName="caron" x="52" y="203" flags="0x4"/>
    </TTGlyph>
    <TTGlyph name="Tcommaaccent" xMin="24" yMin="-238" xMax="490" yMax="690">
      <component glyphName="T" x="0" y="0" flags="0x204"/>
      <component glyphName="commaaccent" x="55" y="0" flags="0x4"/>
    </TTGlyph>
    <TTGlyph name="Tcommaaccent.flat" xMin="24" yMin="-238" xMax="484" yMax="690">
      <component glyphName="T.flat" x="0" y="0" flags="0x204"/>
      <component glyphName="commaaccent" x="55" y="0" flags="0x4"/>
    </TTGlyph>
    <TTGlyph name="Thorn" xMin="70" yMin="0" xMax="453" yMax="690">
      <contour>
        <pt x="453" y="358" on="1"/>
        <pt x="453" y="252" on="0"/>
        <pt x="321" y="142" on="0"/>
        <pt x="214" y="142" on="1"/>
        <pt x="162" y="142" on="1"/>
        <pt x="162" y="0" on="1"/>
        <pt x="70" y="0" on="1"/>
        <pt x="70" y="690" on="1"/>
        <pt x="162" y="690" on="1"/>
        <pt x="162" y="565" on="1"/>
        <pt x="225" y="565" on="1"/>
        <pt x="332" y="565" on="0"/>
        <pt x="453" y="458" on="0"/>
      </contour>
      <contour>
        <pt x="361" y="356" on="1"/>
        <pt x="361" y="418" on="0"/>
        <pt x="291" y="483" on="0"/>
        <pt x="220" y="483" on="1"/>
        <pt x="162" y="483" on="1"/>
        <pt x="162" y="224" on="1"/>
        <pt x="215" y="224" on="1"/>
        <pt x="286" y="224" on="0"/>
        <pt x="361" y="290" on="0"/>
      </contour>
    </TTGlyph>
    <TTGlyph name="U" xMin="65" yMin="-13" xMax="532" yMax="690">
      <contour>
        <pt x="532" y="239" on="1"/>
        <pt x="532" y="123" on="0"/>
        <pt x="409" y="-13" on="0"/>
        <pt x="298" y="-13" on="1"/>
        <pt x="185" y="-13" on="0"/>
        <pt x="65" y="120" on="0"/>
        <pt x="65" y="235" on="1"/>
        <pt x="65" y="690" on="1"/>
        <pt x="158" y="690" on="1"/>
        <pt x="158" y="243" on="1"/>
        <pt x="158" y="167" on="0"/>
        <pt x="223" y="71" on="0"/>
        <pt x="298" y="71" on="1"/>
        <pt x="371" y="71" on="0"/>
        <pt x="441" y="161" on="0"/>
        <pt x="441" y="241" on="1"/>
        <pt x="441" y="690" on="1"/>
        <pt x="532" y="690" on="1"/>
      </contour>
    </TTGlyph>
    <TTGlyph name="U.alt" xMin="65" yMin="-8" xMax="529" yMax="690">
      <contour>
        <pt x="455" y="0" on="1"/>
        <pt x="445" y="67" on="1"/>
        <pt x="402" y="34" on="0"/>
        <pt x="308" y="-8" on="0"/>
        <pt x="255" y="-8" on="1"/>
        <pt x="170" y="-8" on="0"/>
        <pt x="65" y="88" on="0"/>
        <pt x="65" y="192" on="1"/>
        <pt x="65" y="690" on="1"/>
        <pt x="157" y="690" on="1"/>
        <pt x="157" y="200" on="1"/>
        <pt x="157" y="137" on="0"/>
        <pt x="212" y="75" on="0"/>
        <pt x="265" y="75" on="1"/>
        <pt x="308" y="75" on="0"/>
        <pt x="392" y="116" on="0"/>
        <pt x="437" y="151" on="1"/>
        <pt x="437" y="690" on="1"/>
        <pt x="529" y="690" on="1"/>
        <pt x="529" y="0" on="1"/>
      </contour>
    </TTGlyph>
    <TTGlyph name="Uacute" xMin="65" yMin="-13" xMax="532" yMax="882">
      <component glyphName="U" x="0" y="0" flags="0x204"/>
      <component glyphName="acute" x="146" y="193" flags="0x4"/>
    </TTGlyph>
    <TTGlyph name="Uacute.alt" xMin="65" yMin="-8" xMax="529" yMax="882">
      <component glyphName="U.alt" x="0" y="0" flags="0x204"/>
      <component glyphName="acute" x="146" y="193" flags="0x4"/>
    </TTGlyph>
    <TTGlyph name="Ubreve" xMin="65" yMin="-13" xMax="532" yMax="858">
      <component glyphName="U" x="0" y="0" flags="0x204"/>
      <component glyphName="breve" x="95" y="190" flags="0x4"/>
    </TTGlyph>
    <TTGlyph name="Ubreve.alt" xMin="65" yMin="-8" xMax="529" yMax="858">
      <component glyphName="U.alt" x="0" y="0" flags="0x204"/>
      <component glyphName="breve" x="94" y="190" flags="0x4"/>
    </TTGlyph>
    <TTGlyph name="Ucircumflex" xMin="65" yMin="-13" xMax="532" yMax="875">
      <component glyphName="U" x="0" y="0" flags="0x204"/>
      <component glyphName="circumflex" x="95" y="193" flags="0x4"/>
    </TTGlyph>
    <TTGlyph name="Ucircumflex.alt" xMin="65" yMin="-8" xMax="529" yMax="875">
      <component glyphName="U.alt" x="0" y="0" flags="0x204"/>
      <component glyphName="circumflex" x="95" y="193" flags="0x4"/>
    </TTGlyph>
    <TTGlyph name="Udieresis" xMin="65" yMin="-13" xMax="532" yMax="839">
      <component glyphName="U" x="0" y="0" flags="0x204"/>
      <component glyphName="dieresis" x="95" y="193" flags="0x4"/>
    </TTGlyph>
    <TTGlyph name="Udieresis.alt" xMin="65" yMin="-8" xMax="529" yMax="839">
      <component glyphName="U.alt" x="0" y="0" flags="0x204"/>
      <component glyphName="dieresis" x="94" y="193" flags="0x4"/>
    </TTGlyph>
    <TTGlyph name="Ugrave" xMin="65" yMin="-13" xMax="532" yMax="882">
      <component glyphName="U" x="0" y="0" flags="0x204"/>
      <component glyphName="grave" x="43" y="193" flags="0x4"/>
    </TTGlyph>
    <TTGlyph name="Ugrave.alt" xMin="65" yMin="-8" xMax="529" yMax="882">
      <component glyphName="U.alt" x="0" y="0" flags="0x204"/>
      <component glyphName="grave" x="43" y="193" flags="0x4"/>
    </TTGlyph>
    <TTGlyph name="Uhungarumlaut" xMin="65" yMin="-13" xMax="532" yMax="882">
      <component glyphName="U" x="0" y="0" flags="0x204"/>
      <component glyphName="hungarumlaut" x="142" y="193" flags="0x4"/>
    </TTGlyph>
    <TTGlyph name="Uhungarumlaut.alt" xMin="65" yMin="-8" xMax="529" yMax="882">
      <component glyphName="U.alt" x="0" y="0" flags="0x204"/>
      <component glyphName="hungarumlaut" x="142" y="193" flags="0x4"/>
    </TTGlyph>
    <TTGlyph name="Umacron" xMin="65" yMin="-13" xMax="532" yMax="826">
      <component glyphName="U" x="0" y="0" flags="0x204"/>
      <component glyphName="macron" x="95" y="193" flags="0x4"/>
    </TTGlyph>
    <TTGlyph name="Umacron.alt" xMin="65" yMin="-8" xMax="529" yMax="826">
      <component glyphName="U.alt" x="0" y="0" flags="0x204"/>
      <component glyphName="macron" x="94" y="193" flags="0x4"/>
    </TTGlyph>
    <TTGlyph name="Uogonek" xMin="65" yMin="-181" xMax="532" yMax="690">
      <component glyphName="U" x="0" y="0" flags="0x204"/>
      <component glyphName="ogonek" x="99" y="0" flags="0x4"/>
    </TTGlyph>
    <TTGlyph name="Uogonek.alt" xMin="65" yMin="-181" xMax="536" yMax="690">
      <component glyphName="U.alt" x="0" y="0" flags="0x204"/>
      <component glyphName="ogonek" x="265" y="0" flags="0x4"/>
    </TTGlyph>
    <TTGlyph name="Uring" xMin="65" yMin="-13" xMax="532" yMax="919">
      <component glyphName="U" x="0" y="0" flags="0x204"/>
      <component glyphName="ring" x="95" y="183" flags="0x4"/>
    </TTGlyph>
    <TTGlyph name="Uring.alt" xMin="65" yMin="-8" xMax="529" yMax="919">
      <component glyphName="U.alt" x="0" y="0" flags="0x204"/>
      <component glyphName="ring" x="94" y="183" flags="0x4"/>
    </TTGlyph>
    <TTGlyph name="V" xMin="24" yMin="-4" xMax="559" yMax="697">
      <contour>
        <pt x="559" y="690" on="1"/>
        <pt x="334" y="-4" on="1"/>
        <pt x="246" y="-4" on="1"/>
        <pt x="24" y="677" on="1"/>
        <pt x="116" y="697" on="1"/>
        <pt x="292" y="121" on="1"/>
        <pt x="463" y="690" on="1"/>
      </contour>
    </TTGlyph>
    <TTGlyph name="V.flat" xMin="22" yMin="-4" xMax="562" yMax="690">
      <contour>
        <pt x="562" y="690" on="1"/>
        <pt x="337" y="-4" on="1"/>
        <pt x="248" y="-4" on="1"/>
        <pt x="22" y="690" on="1"/>
        <pt x="120" y="690" on="1"/>
        <pt x="294" y="121" on="1"/>
        <pt x="466" y="690" on="1"/>
      </contour>
    </TTGlyph>
    <TTGlyph name="W" xMin="30" yMin="-2" xMax="861" yMax="697">
      <contour>
        <pt x="861" y="690" on="1"/>
        <pt x="683" y="-2" on="1"/>
        <pt x="600" y="-2" on="1"/>
        <pt x="442" y="558" on="1"/>
        <pt x="286" y="-2" on="1"/>
        <pt x="205" y="-2" on="1"/>
        <pt x="30" y="677" on="1"/>
        <pt x="122" y="697" on="1"/>
        <pt x="250" y="152" on="1"/>
        <pt x="397" y="690" on="1"/>
        <pt x="491" y="690" on="1"/>
        <pt x="642" y="152" on="1"/>
        <pt x="768" y="690" on="1"/>
      </contour>
    </TTGlyph>
    <TTGlyph name="W.alt" xMin="26" yMin="-3" xMax="852" yMax="697">
      <contour>
        <pt x="557" y="-3" on="1"/>
        <pt x="440" y="370" on="1"/>
        <pt x="320" y="-3" on="1"/>
        <pt x="234" y="-3" on="1"/>
        <pt x="26" y="677" on="1"/>
        <pt x="117" y="697" on="1"/>
        <pt x="280" y="129" on="1"/>
        <pt x="398" y="499" on="1"/>
        <pt x="343" y="677" on="1"/>
        <pt x="435" y="697" on="1"/>
        <pt x="602" y="129" on="1"/>
        <pt x="756" y="690" on="1"/>
        <pt x="852" y="690" on="1"/>
        <pt x="644" y="-3" on="1"/>
      </contour>
    </TTGlyph>
    <TTGlyph name="W.alt_flat" xMin="24" yMin="-3" xMax="855" yMax="690">
      <contour>
        <pt x="559" y="-3" on="1"/>
        <pt x="442" y="371" on="1"/>
        <pt x="323" y="-3" on="1"/>
        <pt x="236" y="-3" on="1"/>
        <pt x="24" y="690" on="1"/>
        <pt x="122" y="690" on="1"/>
        <pt x="282" y="129" on="1"/>
        <pt x="401" y="501" on="1"/>
        <pt x="342" y="690" on="1"/>
        <pt x="440" y="690" on="1"/>
        <pt x="605" y="129" on="1"/>
        <pt x="759" y="690" on="1"/>
        <pt x="855" y="690" on="1"/>
        <pt x="646" y="-3" on="1"/>
      </contour>
    </TTGlyph>
    <TTGlyph name="W.flat" xMin="27" yMin="-2" xMax="861" yMax="690">
      <contour>
        <pt x="861" y="690" on="1"/>
        <pt x="683" y="-2" on="1"/>
        <pt x="600" y="-2" on="1"/>
        <pt x="442" y="558" on="1"/>
        <pt x="286" y="-2" on="1"/>
        <pt x="205" y="-2" on="1"/>
        <pt x="27" y="690" on="1"/>
        <pt x="124" y="690" on="1"/>
        <pt x="250" y="152" on="1"/>
        <pt x="397" y="690" on="1"/>
        <pt x="491" y="690" on="1"/>
        <pt x="642" y="152" on="1"/>
        <pt x="768" y="690" on="1"/>
      </contour>
    </TTGlyph>
    <TTGlyph name="Wacute" xMin="30" yMin="-2" xMax="861" yMax="892">
      <component glyphName="W" x="0" y="0" flags="0x204"/>
      <component glyphName="acute" x="291" y="203" flags="0x4"/>
    </TTGlyph>
    <TTGlyph name="Wacute.alt" xMin="26" yMin="-3" xMax="852" yMax="892">
      <component glyphName="W.alt" x="0" y="0" flags="0x204"/>
      <component glyphName="acute" x="279" y="203" flags="0x4"/>
    </TTGlyph>
    <TTGlyph name="Wacute.alt_flat" xMin="24" yMin="-3" xMax="855" yMax="892">
      <component glyphName="W.alt_flat" x="0" y="0" flags="0x204"/>
      <component glyphName="acute" x="280" y="203" flags="0x4"/>
    </TTGlyph>
    <TTGlyph name="Wacute.flat" xMin="27" yMin="-2" xMax="861" yMax="892">
      <component glyphName="W.flat" x="0" y="0" flags="0x204"/>
      <component glyphName="acute" x="291" y="203" flags="0x4"/>
    </TTGlyph>
    <TTGlyph name="Wcircumflex" xMin="30" yMin="-2" xMax="861" yMax="885">
      <component glyphName="W" x="0" y="0" flags="0x204"/>
      <component glyphName="circumflex" x="240" y="203" flags="0x4"/>
    </TTGlyph>
    <TTGlyph name="Wcircumflex.alt" xMin="26" yMin="-3" xMax="852" yMax="885">
      <component glyphName="W.alt" x="0" y="0" flags="0x204"/>
      <component glyphName="circumflex" x="228" y="203" flags="0x4"/>
    </TTGlyph>
    <TTGlyph name="Wcircumflex.alt_flat" xMin="24" yMin="-3" xMax="855" yMax="885">
      <component glyphName="W.alt_flat" x="0" y="0" flags="0x204"/>
      <component glyphName="circumflex" x="229" y="203" flags="0x4"/>
    </TTGlyph>
    <TTGlyph name="Wcircumflex.flat" xMin="27" yMin="-2" xMax="861" yMax="885">
      <component glyphName="W.flat" x="0" y="0" flags="0x204"/>
      <component glyphName="circumflex" x="240" y="203" flags="0x4"/>
    </TTGlyph>
    <TTGlyph name="Wdieresis" xMin="30" yMin="-2" xMax="861" yMax="849">
      <component glyphName="W" x="0" y="0" flags="0x204"/>
      <component glyphName="dieresis" x="239" y="203" flags="0x4"/>
    </TTGlyph>
    <TTGlyph name="Wdieresis.alt" xMin="26" yMin="-3" xMax="852" yMax="849">
      <component glyphName="W.alt" x="0" y="0" flags="0x204"/>
      <component glyphName="dieresis" x="227" y="203" flags="0x4"/>
    </TTGlyph>
    <TTGlyph name="Wdieresis.alt_flat" xMin="24" yMin="-3" xMax="855" yMax="849">
      <component glyphName="W.alt_flat" x="0" y="0" flags="0x204"/>
      <component glyphName="dieresis" x="229" y="203" flags="0x4"/>
    </TTGlyph>
    <TTGlyph name="Wdieresis.flat" xMin="27" yMin="-2" xMax="861" yMax="849">
      <component glyphName="W.flat" x="0" y="0" flags="0x204"/>
      <component glyphName="dieresis" x="239" y="203" flags="0x4"/>
    </TTGlyph>
    <TTGlyph name="Wgrave" xMin="30" yMin="-2" xMax="861" yMax="892">
      <component glyphName="W" x="0" y="0" flags="0x204"/>
      <component glyphName="grave" x="188" y="203" flags="0x4"/>
    </TTGlyph>
    <TTGlyph name="Wgrave.alt" xMin="26" yMin="-3" xMax="852" yMax="892">
      <component glyphName="W.alt" x="0" y="0" flags="0x204"/>
      <component glyphName="grave" x="176" y="203" flags="0x4"/>
    </TTGlyph>
    <TTGlyph name="Wgrave.alt_flat" xMin="24" yMin="-3" xMax="855" yMax="892">
      <component glyphName="W.alt_flat" x="0" y="0" flags="0x204"/>
      <component glyphName="grave" x="177" y="203" flags="0x4"/>
    </TTGlyph>
    <TTGlyph name="Wgrave.flat" xMin="27" yMin="-2" xMax="861" yMax="892">
      <component glyphName="W.flat" x="0" y="0" flags="0x204"/>
      <component glyphName="grave" x="188" y="203" flags="0x4"/>
    </TTGlyph>
    <TTGlyph name="X" xMin="17" yMin="-7" xMax="529" yMax="697">
      <contour>
        <pt x="436" y="-7" on="1"/>
        <pt x="273" y="286" on="1"/>
        <pt x="116" y="0" on="1"/>
        <pt x="17" y="0" on="1"/>
        <pt x="224" y="358" on="1"/>
        <pt x="37" y="678" on="1"/>
        <pt x="130" y="697" on="1"/>
        <pt x="275" y="436" on="1"/>
        <pt x="413" y="690" on="1"/>
        <pt x="513" y="690" on="1"/>
        <pt x="324" y="363" on="1"/>
        <pt x="529" y="13" on="1"/>
      </contour>
    </TTGlyph>
    <TTGlyph name="X.flat" xMin="17" yMin="0" xMax="528" yMax="690">
      <contour>
        <pt x="425" y="0" on="1"/>
        <pt x="271" y="283" on="1"/>
        <pt x="116" y="0" on="1"/>
        <pt x="17" y="0" on="1"/>
        <pt x="222" y="356" on="1"/>
        <pt x="32" y="690" on="1"/>
        <pt x="136" y="690" on="1"/>
        <pt x="274" y="434" on="1"/>
        <pt x="413" y="690" on="1"/>
        <pt x="513" y="690" on="1"/>
        <pt x="323" y="361" on="1"/>
        <pt x="528" y="0" on="1"/>
      </contour>
    </TTGlyph>
    <TTGlyph name="Y" xMin="15" yMin="0" xMax="534" yMax="697">
      <contour>
        <pt x="534" y="690" on="1"/>
        <pt x="318" y="274" on="1"/>
        <pt x="318" y="0" on="1"/>
        <pt x="226" y="0" on="1"/>
        <pt x="226" y="274" on="1"/>
        <pt x="15" y="678" on="1"/>
        <pt x="108" y="697" on="1"/>
        <pt x="273" y="366" on="1"/>
        <pt x="431" y="690" on="1"/>
      </contour>
    </TTGlyph>
    <TTGlyph name="Y.flat" xMin="12" yMin="0" xMax="536" yMax="690">
      <contour>
        <pt x="536" y="690" on="1"/>
        <pt x="320" y="274" on="1"/>
        <pt x="320" y="0" on="1"/>
        <pt x="228" y="0" on="1"/>
        <pt x="228" y="274" on="1"/>
        <pt x="12" y="690" on="1"/>
        <pt x="115" y="690" on="1"/>
        <pt x="276" y="366" on="1"/>
        <pt x="434" y="690" on="1"/>
      </contour>
    </TTGlyph>
    <TTGlyph name="Yacute" xMin="15" yMin="0" xMax="534" yMax="882">
      <component glyphName="Y" x="0" y="0" flags="0x204"/>
      <component glyphName="acute" x="122" y="193" flags="0x4"/>
    </TTGlyph>
    <TTGlyph name="Yacute.flat" xMin="12" yMin="0" xMax="536" yMax="882">
      <component glyphName="Y.flat" x="0" y="0" flags="0x204"/>
      <component glyphName="acute" x="122" y="193" flags="0x4"/>
    </TTGlyph>
    <TTGlyph name="Ycircumflex" xMin="15" yMin="0" xMax="534" yMax="875">
      <component glyphName="Y" x="0" y="0" flags="0x204"/>
      <component glyphName="circumflex" x="71" y="193" flags="0x4"/>
    </TTGlyph>
    <TTGlyph name="Ycircumflex.flat" xMin="12" yMin="0" xMax="536" yMax="875">
      <component glyphName="Y.flat" x="0" y="0" flags="0x204"/>
      <component glyphName="circumflex" x="71" y="193" flags="0x4"/>
    </TTGlyph>
    <TTGlyph name="Ydieresis" xMin="15" yMin="0" xMax="534" yMax="839">
      <component glyphName="Y" x="0" y="0" flags="0x204"/>
      <component glyphName="dieresis" x="70" y="193" flags="0x4"/>
    </TTGlyph>
    <TTGlyph name="Ydieresis.flat" xMin="12" yMin="0" xMax="536" yMax="839">
      <component glyphName="Y.flat" x="0" y="0" flags="0x204"/>
      <component glyphName="dieresis" x="70" y="193" flags="0x4"/>
    </TTGlyph>
    <TTGlyph name="Ygrave" xMin="15" yMin="0" xMax="534" yMax="882">
      <component glyphName="Y" x="0" y="0" flags="0x204"/>
      <component glyphName="grave" x="19" y="193" flags="0x4"/>
    </TTGlyph>
    <TTGlyph name="Ygrave.flat" xMin="12" yMin="0" xMax="536" yMax="882">
      <component glyphName="Y.flat" x="0" y="0" flags="0x204"/>
      <component glyphName="grave" x="19" y="193" flags="0x4"/>
    </TTGlyph>
    <TTGlyph name="Z" xMin="37" yMin="0" xMax="480" yMax="690">
      <contour>
        <pt x="480" y="0" on="1"/>
        <pt x="37" y="0" on="1"/>
        <pt x="37" y="70" on="1"/>
        <pt x="367" y="608" on="1"/>
        <pt x="65" y="608" on="1"/>
        <pt x="52" y="690" on="1"/>
        <pt x="474" y="690" on="1"/>
        <pt x="474" y="620" on="1"/>
        <pt x="144" y="82" on="1"/>
        <pt x="467" y="82" on="1"/>
      </contour>
    </TTGlyph>
    <TTGlyph name="Z.flat" xMin="37" yMin="0" xMax="474" yMax="690">
      <contour>
        <pt x="472" y="0" on="1"/>
        <pt x="37" y="0" on="1"/>
        <pt x="37" y="70" on="1"/>
        <pt x="367" y="608" on="1"/>
        <pt x="57" y="608" on="1"/>
        <pt x="57" y="690" on="1"/>
        <pt x="474" y="690" on="1"/>
        <pt x="474" y="620" on="1"/>
        <pt x="144" y="82" on="1"/>
        <pt x="472" y="82" on="1"/>
      </contour>
    </TTGlyph>
    <TTGlyph name="Zacute" xMin="37" yMin="0" xMax="480" yMax="892">
      <component glyphName="Z" x="0" y="0" flags="0x204"/>
      <component glyphName="acute" x="105" y="203" flags="0x4"/>
    </TTGlyph>
    <TTGlyph name="Zacute.flat" xMin="37" yMin="0" xMax="474" yMax="892">
      <component glyphName="Z.flat" x="0" y="0" flags="0x204"/>
      <component glyphName="acute" x="105" y="203" flags="0x4"/>
    </TTGlyph>
    <TTGlyph name="Zcaron" xMin="37" yMin="0" xMax="480" yMax="884">
      <component glyphName="Z" x="0" y="0" flags="0x204"/>
      <component glyphName="caron" x="53" y="203" flags="0x4"/>
    </TTGlyph>
    <TTGlyph name="Zcaron.flat" xMin="37" yMin="0" xMax="474" yMax="884">
      <component glyphName="Z.flat" x="0" y="0" flags="0x204"/>
      <component glyphName="caron" x="53" y="203" flags="0x4"/>
    </TTGlyph>
    <TTGlyph name="Zdotaccent" xMin="37" yMin="0" xMax="480" yMax="849">
      <component glyphName="Z" x="0" y="0" flags="0x204"/>
      <component glyphName="dotaccent" x="53" y="203" flags="0x4"/>
    </TTGlyph>
    <TTGlyph name="Zdotaccent.flat" xMin="37" yMin="0" xMax="474" yMax="849">
      <component glyphName="Z.flat" x="0" y="0" flags="0x204"/>
      <component glyphName="dotaccent" x="53" y="203" flags="0x4"/>
    </TTGlyph>
    <TTGlyph name="a" xMin="33" yMin="-10" xMax="383" yMax="491">
      <contour>
        <pt x="297" y="125" on="1"/>
        <pt x="297" y="244" on="1"/>
        <pt x="193" y="231" on="0"/>
        <pt x="118" y="169" on="0"/>
        <pt x="118" y="130" on="1"/>
        <pt x="118" y="100" on="0"/>
        <pt x="151" y="65" on="0"/>
        <pt x="179" y="65" on="1"/>
        <pt x="209" y="65" on="0"/>
        <pt x="267" y="97" on="0"/>
      </contour>
      <contour>
        <pt x="383" y="0" on="1"/>
        <pt x="313" y="0" on="1"/>
        <pt x="305" y="58" on="1"/>
        <pt x="274" y="27" on="0"/>
        <pt x="207" y="-10" on="0"/>
        <pt x="160" y="-10" on="1"/>
        <pt x="104" y="-10" on="0"/>
        <pt x="33" y="64" on="0"/>
        <pt x="33" y="126" on="1"/>
        <pt x="33" y="210" on="0"/>
        <pt x="166" y="295" on="0"/>
        <pt x="297" y="312" on="1"/>
        <pt x="297" y="334" on="1"/>
        <pt x="297" y="376" on="0"/>
        <pt x="254" y="414" on="0"/>
        <pt x="216" y="414" on="1"/>
        <pt x="179" y="414" on="0"/>
        <pt x="106" y="391" on="0"/>
        <pt x="72" y="374" on="1"/>
        <pt x="60" y="452" on="1"/>
        <pt x="96" y="468" on="0"/>
        <pt x="177" y="491" on="0"/>
        <pt x="226" y="491" on="1"/>
        <pt x="307" y="491" on="0"/>
        <pt x="383" y="415" on="0"/>
        <pt x="383" y="338" on="1"/>
      </contour>
    </TTGlyph>
    <TTGlyph name="aacute" xMin="33" yMin="-10" xMax="383" yMax="692">
      <component glyphName="a" x="0" y="0" flags="0x204"/>
      <component glyphName="acute" x="66" y="3" flags="0x4"/>
    </TTGlyph>
    <TTGlyph name="abreve" xMin="33" yMin="-10" xMax="383" yMax="671">
      <component glyphName="a" x="0" y="0" flags="0x204"/>
      <component glyphName="breve" x="15" y="3" flags="0x4"/>
    </TTGlyph>
    <TTGlyph name="acircumflex" xMin="33" yMin="-10" xMax="383" yMax="685">
      <component glyphName="a" x="0" y="0" flags="0x204"/>
      <component glyphName="circumflex" x="15" y="3" flags="0x4"/>
    </TTGlyph>
    <TTGlyph name="acute" xMin="119" yMin="543" xMax="295" yMax="689">
      <contour>
        <pt x="295" y="665" on="1"/>
        <pt x="179" y="543" on="1"/>
        <pt x="119" y="543" on="1"/>
        <pt x="195" y="689" on="1"/>
      </contour>
    </TTGlyph>
    <TTGlyph name="adieresis" xMin="33" yMin="-10" xMax="383" yMax="649">
      <component glyphName="a" x="0" y="0" flags="0x204"/>
      <component glyphName="dieresis" x="15" y="3" flags="0x4"/>
    </TTGlyph>
    <TTGlyph name="ae" xMin="33" yMin="-10" xMax="663" yMax="492">
      <contour>
        <pt x="381" y="293" on="1"/>
        <pt x="576" y="293" on="1"/>
        <pt x="571" y="352" on="0"/>
        <pt x="525" y="422" on="0"/>
        <pt x="481" y="422" on="1"/>
        <pt x="444" y="422" on="0"/>
        <pt x="389" y="354" on="0"/>
      </contour>
      <contour>
        <pt x="187" y="65" on="1"/>
        <pt x="216" y="65" on="0"/>
        <pt x="277" y="94" on="0"/>
        <pt x="309" y="123" on="1"/>
        <pt x="301" y="148" on="0"/>
        <pt x="291" y="209" on="0"/>
        <pt x="291" y="243" on="1"/>
        <pt x="291" y="244" on="1"/>
        <pt x="190" y="230" on="0"/>
        <pt x="118" y="169" on="0"/>
        <pt x="118" y="130" on="1"/>
        <pt x="118" y="99" on="0"/>
        <pt x="156" y="65" on="0"/>
      </contour>
      <contour>
        <pt x="177" y="-10" on="1"/>
        <pt x="116" y="-10" on="0"/>
        <pt x="33" y="61" on="0"/>
        <pt x="33" y="126" on="1"/>
        <pt x="33" y="207" on="0"/>
        <pt x="162" y="294" on="0"/>
        <pt x="292" y="311" on="1"/>
        <pt x="292" y="334" on="1"/>
        <pt x="292" y="376" on="0"/>
        <pt x="255" y="414" on="0"/>
        <pt x="217" y="414" on="1"/>
        <pt x="180" y="414" on="0"/>
        <pt x="106" y="391" on="0"/>
        <pt x="72" y="374" on="1"/>
        <pt x="60" y="452" on="1"/>
        <pt x="96" y="468" on="0"/>
        <pt x="176" y="491" on="0"/>
        <pt x="223" y="491" on="1"/>
        <pt x="276" y="491" on="0"/>
        <pt x="338" y="461" on="0"/>
        <pt x="354" y="427" on="1"/>
        <pt x="376" y="458" on="0"/>
        <pt x="440" y="492" on="0"/>
        <pt x="482" y="492" on="1"/>
        <pt x="530" y="492" on="0"/>
        <pt x="599" y="453" on="0"/>
        <pt x="643" y="387" on="0"/>
        <pt x="663" y="298" on="0"/>
        <pt x="663" y="248" on="1"/>
        <pt x="663" y="224" on="1"/>
        <pt x="378" y="224" on="1"/>
        <pt x="381" y="148" on="0"/>
        <pt x="445" y="67" on="0"/>
        <pt x="501" y="67" on="1"/>
        <pt x="542" y="67" on="0"/>
        <pt x="614" y="99" on="0"/>
        <pt x="649" y="127" on="1"/>
        <pt x="662" y="49" on="1"/>
        <pt x="630" y="24" on="0"/>
        <pt x="546" y="-9" on="0"/>
        <pt x="494" y="-9" on="1"/>
        <pt x="446" y="-9" on="0"/>
        <pt x="367" y="27" on="0"/>
        <pt x="340" y="62" on="1"/>
        <pt x="306" y="31" on="0"/>
        <pt x="226" y="-10" on="0"/>
      </contour>
    </TTGlyph>
    <TTGlyph name="aeacute" xMin="33" yMin="-10" xMax="663" yMax="689">
      <component glyphName="ae" x="0" y="0" flags="0x204"/>
      <component glyphName="acute" x="204" y="0" flags="0x4"/>
    </TTGlyph>
    <TTGlyph name="agrave" xMin="33" yMin="-10" xMax="383" yMax="692">
      <component glyphName="a" x="0" y="0" flags="0x204"/>
      <component glyphName="grave" x="-37" y="3" flags="0x4"/>
    </TTGlyph>
    <TTGlyph name="amacron" xMin="33" yMin="-10" xMax="383" yMax="636">
      <component glyphName="a" x="0" y="0" flags="0x204"/>
      <component glyphName="macron" x="15" y="3" flags="0x4"/>
    </TTGlyph>
    <TTGlyph name="ampersand" xMin="31" yMin="-12" xMax="601" yMax="703">
      <contour>
        <pt x="235" y="68" on="1"/>
        <pt x="275" y="68" on="0"/>
        <pt x="344" y="109" on="0"/>
        <pt x="374" y="154" on="1"/>
        <pt x="223" y="329" on="1"/>
        <pt x="177" y="303" on="0"/>
        <pt x="121" y="229" on="0"/>
        <pt x="121" y="180" on="1"/>
        <pt x="121" y="130" on="0"/>
        <pt x="186" y="68" on="0"/>
      </contour>
      <contour>
        <pt x="512" y="-7" on="1"/>
        <pt x="427" y="92" on="1"/>
        <pt x="390" y="43" on="0"/>
        <pt x="293" y="-12" on="0"/>
        <pt x="233" y="-12" on="1"/>
        <pt x="137" y="-12" on="0"/>
        <pt x="31" y="93" on="0"/>
        <pt x="31" y="174" on="1"/>
        <pt x="31" y="249" on="0"/>
        <pt x="115" y="353" on="0"/>
        <pt x="173" y="387" on="1"/>
        <pt x="144" y="424" on="0"/>
        <pt x="115" y="492" on="0"/>
        <pt x="115" y="535" on="1"/>
        <pt x="115" y="569" on="0"/>
        <pt x="139" y="631" on="0"/>
        <pt x="184" y="676" on="0"/>
        <pt x="250" y="703" on="0"/>
        <pt x="292" y="703" on="1"/>
        <pt x="333" y="703" on="0"/>
        <pt x="406" y="681" on="0"/>
        <pt x="436" y="663" on="1"/>
        <pt x="420" y="575" on="1"/>
        <pt x="387" y="597" on="0"/>
        <pt x="323" y="623" on="0"/>
        <pt x="292" y="623" on="1"/>
        <pt x="253" y="623" on="0"/>
        <pt x="205" y="578" on="0"/>
        <pt x="205" y="537" on="1"/>
        <pt x="205" y="504" on="0"/>
        <pt x="235" y="446" on="0"/>
        <pt x="269" y="406" on="1"/>
        <pt x="415" y="235" on="1"/>
        <pt x="428" y="269" on="0"/>
        <pt x="451" y="353" on="0"/>
        <pt x="458" y="402" on="1"/>
        <pt x="537" y="384" on="1"/>
        <pt x="527" y="322" on="0"/>
        <pt x="494" y="213" on="0"/>
        <pt x="472" y="167" on="1"/>
        <pt x="601" y="16" on="1"/>
      </contour>
    </TTGlyph>
    <TTGlyph name="ampersand.flat" xMin="31" yMin="-12" xMax="614" yMax="703">
      <contour>
        <pt x="235" y="68" on="1"/>
        <pt x="274" y="68" on="0"/>
        <pt x="344" y="109" on="0"/>
        <pt x="374" y="153" on="1"/>
        <pt x="223" y="329" on="1"/>
        <pt x="177" y="303" on="0"/>
        <pt x="121" y="229" on="0"/>
        <pt x="121" y="180" on="1"/>
        <pt x="121" y="130" on="0"/>
        <pt x="186" y="68" on="0"/>
      </contour>
      <contour>
        <pt x="507" y="0" on="1"/>
        <pt x="427" y="92" on="1"/>
        <pt x="390" y="43" on="0"/>
        <pt x="293" y="-12" on="0"/>
        <pt x="233" y="-12" on="1"/>
        <pt x="137" y="-12" on="0"/>
        <pt x="31" y="93" on="0"/>
        <pt x="31" y="174" on="1"/>
        <pt x="31" y="249" on="0"/>
        <pt x="115" y="353" on="0"/>
        <pt x="173" y="387" on="1"/>
        <pt x="144" y="424" on="0"/>
        <pt x="115" y="492" on="0"/>
        <pt x="115" y="535" on="1"/>
        <pt x="115" y="569" on="0"/>
        <pt x="139" y="631" on="0"/>
        <pt x="184" y="676" on="0"/>
        <pt x="250" y="703" on="0"/>
        <pt x="292" y="703" on="1"/>
        <pt x="333" y="703" on="0"/>
        <pt x="406" y="681" on="0"/>
        <pt x="436" y="663" on="1"/>
        <pt x="420" y="575" on="1"/>
        <pt x="387" y="597" on="0"/>
        <pt x="323" y="623" on="0"/>
        <pt x="292" y="623" on="1"/>
        <pt x="253" y="623" on="0"/>
        <pt x="205" y="578" on="0"/>
        <pt x="205" y="537" on="1"/>
        <pt x="205" y="504" on="0"/>
        <pt x="236" y="446" on="0"/>
        <pt x="269" y="406" on="1"/>
        <pt x="415" y="234" on="1"/>
        <pt x="428" y="268" on="0"/>
        <pt x="451" y="353" on="0"/>
        <pt x="458" y="402" on="1"/>
        <pt x="537" y="384" on="1"/>
        <pt x="527" y="322" on="0"/>
        <pt x="494" y="212" on="0"/>
        <pt x="472" y="167" on="1"/>
        <pt x="614" y="0" on="1"/>
      </contour>
    </TTGlyph>
    <TTGlyph name="aogonek" xMin="33" yMin="-181" xMax="395" yMax="491">
      <component glyphName="a" x="0" y="0" flags="0x204"/>
      <component glyphName="ogonek" x="124" y="0" flags="0x4"/>
    </TTGlyph>
    <TTGlyph name="aring" xMin="33" yMin="-10" xMax="383" yMax="739">
      <component glyphName="a" x="0" y="0" flags="0x204"/>
      <component glyphName="ring" x="15" y="3" flags="0x4"/>
    </TTGlyph>
    <TTGlyph name="aringacute" xMin="33" yMin="-10" xMax="383" yMax="921">
      <component glyphName="a" x="0" y="0" flags="0x204"/>
      <component glyphName="acute" x="66" y="232" flags="0x4"/>
      <component glyphName="ring" x="15" y="3" flags="0x4"/>
    </TTGlyph>
    <TTGlyph name="asciicircum" xMin="59" yMin="512" xMax="337" yMax="693">
      <contour>
        <pt x="337" y="512" on="1"/>
        <pt x="271" y="512" on="1"/>
        <pt x="198" y="617" on="1"/>
        <pt x="124" y="512" on="1"/>
        <pt x="59" y="512" on="1"/>
        <pt x="162" y="693" on="1"/>
        <pt x="235" y="693" on="1"/>
      </contour>
    </TTGlyph>
    <TTGlyph name="asciitilde" xMin="48" yMin="244" xMax="367" yMax="386">
      <contour>
        <pt x="367" y="375" on="1"/>
        <pt x="360" y="308" on="0"/>
        <pt x="317" y="248" on="0"/>
        <pt x="283" y="248" on="1"/>
        <pt x="264" y="248" on="0"/>
        <pt x="223" y="266" on="0"/>
        <pt x="203" y="277" on="1"/>
        <pt x="178" y="290" on="0"/>
        <pt x="149" y="304" on="0"/>
        <pt x="139" y="304" on="1"/>
        <pt x="127" y="304" on="0"/>
        <pt x="114" y="279" on="0"/>
        <pt x="107" y="244" on="1"/>
        <pt x="48" y="255" on="1"/>
        <pt x="55" y="322" on="0"/>
        <pt x="98" y="382" on="0"/>
        <pt x="132" y="382" on="1"/>
        <pt x="151" y="382" on="0"/>
        <pt x="191" y="364" on="0"/>
        <pt x="212" y="353" on="1"/>
        <pt x="237" y="340" on="0"/>
        <pt x="266" y="326" on="0"/>
        <pt x="276" y="326" on="1"/>
        <pt x="287" y="326" on="0"/>
        <pt x="301" y="351" on="0"/>
        <pt x="308" y="386" on="1"/>
      </contour>
    </TTGlyph>
    <TTGlyph name="asterisk" xMin="26" yMin="416" xMax="320" yMax="695">
      <contour>
        <pt x="320" y="579" on="1"/>
        <pt x="219" y="531" on="1"/>
        <pt x="273" y="432" on="1"/>
        <pt x="249" y="416" on="1"/>
        <pt x="173" y="497" on="1"/>
        <pt x="96" y="416" on="1"/>
        <pt x="73" y="432" on="1"/>
        <pt x="126" y="531" on="1"/>
        <pt x="26" y="579" on="1"/>
        <pt x="35" y="606" on="1"/>
        <pt x="144" y="586" on="1"/>
        <pt x="157" y="695" on="1"/>
        <pt x="188" y="695" on="1"/>
        <pt x="201" y="586" on="1"/>
        <pt x="311" y="606" on="1"/>
      </contour>
    </TTGlyph>
    <TTGlyph name="at" xMin="42" yMin="-138" xMax="721" yMax="627">
      <contour>
        <pt x="338" y="-138" on="1"/>
        <pt x="203" y="-138" on="0"/>
        <pt x="42" y="29" on="0"/>
        <pt x="42" y="175" on="1"/>
        <pt x="42" y="267" on="0"/>
        <pt x="105" y="432" on="0"/>
        <pt x="211" y="555" on="0"/>
        <pt x="354" y="627" on="0"/>
        <pt x="433" y="627" on="1"/>
        <pt x="496" y="627" on="0"/>
        <pt x="602" y="586" on="0"/>
        <pt x="678" y="509" on="0"/>
        <pt x="721" y="396" on="0"/>
        <pt x="721" y="324" on="1"/>
        <pt x="721" y="264" on="0"/>
        <pt x="696" y="162" on="0"/>
        <pt x="650" y="87" on="0"/>
        <pt x="586" y="45" on="0"/>
        <pt x="547" y="45" on="1"/>
        <pt x="501" y="45" on="0"/>
        <pt x="445" y="93" on="0"/>
        <pt x="440" y="134" on="1"/>
        <pt x="404" y="91" on="0"/>
        <pt x="345" y="45" on="0"/>
        <pt x="308" y="45" on="1"/>
        <pt x="269" y="45" on="0"/>
        <pt x="207" y="107" on="0"/>
        <pt x="207" y="170" on="1"/>
        <pt x="207" y="230" on="0"/>
        <pt x="245" y="333" on="0"/>
        <pt x="308" y="407" on="0"/>
        <pt x="391" y="450" on="0"/>
        <pt x="435" y="450" on="1"/>
        <pt x="467" y="450" on="0"/>
        <pt x="521" y="436" on="0"/>
        <pt x="549" y="425" on="1"/>
        <pt x="511" y="185" on="1"/>
        <pt x="510" y="178" on="0"/>
        <pt x="507" y="156" on="0"/>
        <pt x="507" y="147" on="1"/>
        <pt x="507" y="122" on="0"/>
        <pt x="533" y="93" on="0"/>
        <pt x="558" y="93" on="1"/>
        <pt x="583" y="93" on="0"/>
        <pt x="627" y="128" on="0"/>
        <pt x="660" y="189" on="0"/>
        <pt x="679" y="273" on="0"/>
        <pt x="679" y="323" on="1"/>
        <pt x="679" y="389" on="0"/>
        <pt x="642" y="490" on="0"/>
        <pt x="576" y="557" on="0"/>
        <pt x="484" y="591" on="0"/>
        <pt x="431" y="591" on="1"/>
        <pt x="362" y="591" on="0"/>
        <pt x="236" y="526" on="0"/>
        <pt x="141" y="414" on="0"/>
        <pt x="85" y="262" on="0"/>
        <pt x="85" y="176" on="1"/>
        <pt x="85" y="107" on="0"/>
        <pt x="123" y="2" on="0"/>
        <pt x="191" y="-67" on="0"/>
        <pt x="285" y="-102" on="0"/>
        <pt x="339" y="-102" on="1"/>
        <pt x="397" y="-102" on="0"/>
        <pt x="495" y="-75" on="0"/>
        <pt x="537" y="-53" on="1"/>
        <pt x="543" y="-90" on="1"/>
        <pt x="501" y="-111" on="0"/>
        <pt x="400" y="-138" on="0"/>
      </contour>
      <contour>
        <pt x="328" y="111" on="1"/>
        <pt x="351" y="111" on="0"/>
        <pt x="407" y="161" on="0"/>
        <pt x="439" y="202" on="1"/>
        <pt x="468" y="380" on="1"/>
        <pt x="458" y="383" on="0"/>
        <pt x="439" y="386" on="0"/>
        <pt x="424" y="386" on="1"/>
        <pt x="396" y="386" on="0"/>
        <pt x="345" y="352" on="0"/>
        <pt x="305" y="296" on="0"/>
        <pt x="281" y="221" on="0"/>
        <pt x="281" y="180" on="1"/>
        <pt x="281" y="145" on="0"/>
        <pt x="306" y="111" on="0"/>
      </contour>
    </TTGlyph>
    <TTGlyph name="atilde" xMin="33" yMin="-10" xMax="383" yMax="671">
      <component glyphName="a" x="0" y="0" flags="0x204"/>
      <component glyphName="tilde" x="18" y="3" flags="0x4"/>
    </TTGlyph>
    <TTGlyph name="b" xMin="61" yMin="-6" xMax="440" yMax="722">
      <contour>
        <pt x="440" y="253" on="1"/>
        <pt x="440" y="187" on="0"/>
        <pt x="407" y="88" on="0"/>
        <pt x="350" y="25" on="0"/>
        <pt x="272" y="-6" on="0"/>
        <pt x="226" y="-6" on="1"/>
        <pt x="179" y="-6" on="0"/>
        <pt x="101" y="12" on="0"/>
        <pt x="61" y="27" on="1"/>
        <pt x="61" y="709" on="1"/>
        <pt x="148" y="722" on="1"/>
        <pt x="148" y="433" on="1"/>
        <pt x="171" y="456" on="0"/>
        <pt x="230" y="492" on="0"/>
        <pt x="271" y="492" on="1"/>
        <pt x="305" y="492" on="0"/>
        <pt x="367" y="463" on="0"/>
        <pt x="413" y="405" on="0"/>
        <pt x="440" y="314" on="0"/>
      </contour>
      <contour>
        <pt x="352" y="249" on="1"/>
        <pt x="352" y="333" on="0"/>
        <pt x="297" y="413" on="0"/>
        <pt x="257" y="413" on="1"/>
        <pt x="228" y="413" on="0"/>
        <pt x="174" y="376" on="0"/>
        <pt x="148" y="347" on="1"/>
        <pt x="148" y="85" on="1"/>
        <pt x="167" y="78" on="0"/>
        <pt x="201" y="70" on="0"/>
        <pt x="226" y="70" on="1"/>
        <pt x="283" y="70" on="0"/>
        <pt x="352" y="156" on="0"/>
      </contour>
    </TTGlyph>
    <TTGlyph name="backslash" xMin="15" yMin="-128" xMax="442" yMax="699">
      <contour>
        <pt x="442" y="-112" on="1"/>
        <pt x="370" y="-128" on="1"/>
        <pt x="15" y="683" on="1"/>
        <pt x="88" y="699" on="1"/>
      </contour>
    </TTGlyph>
    <TTGlyph name="baht" xMin="-21" yMin="-125" xMax="466" yMax="736">
      <contour>
        <pt x="223" y="608" on="1"/>
        <pt x="157" y="608" on="1"/>
        <pt x="157" y="394" on="1"/>
        <pt x="219" y="394" on="1"/>
        <pt x="283" y="394" on="0"/>
        <pt x="350" y="455" on="0"/>
        <pt x="350" y="504" on="1"/>
        <pt x="350" y="550" on="0"/>
        <pt x="290" y="608" on="0"/>
      </contour>
      <contour>
        <pt x="219" y="322" on="1"/>
        <pt x="157" y="322" on="1"/>
        <pt x="157" y="75" on="1"/>
        <pt x="222" y="75" on="1"/>
        <pt x="295" y="75" on="0"/>
        <pt x="374" y="138" on="0"/>
        <pt x="374" y="197" on="1"/>
        <pt x="374" y="256" on="0"/>
        <pt x="295" y="322" on="0"/>
      </contour>
      <contour>
        <pt x="217" y="0" on="1"/>
        <pt x="116" y="0" on="1"/>
        <pt x="52" y="-125" on="1"/>
        <pt x="-21" y="-108" on="1"/>
        <pt x="71" y="73" on="1"/>
        <pt x="71" y="683" on="1"/>
        <pt x="225" y="683" on="1"/>
        <pt x="262" y="683" on="0"/>
        <pt x="326" y="669" on="0"/>
        <pt x="352" y="655" on="1"/>
        <pt x="393" y="736" on="1"/>
        <pt x="466" y="718" on="1"/>
        <pt x="408" y="607" on="1"/>
        <pt x="422" y="588" on="0"/>
        <pt x="437" y="540" on="0"/>
        <pt x="437" y="512" on="1"/>
        <pt x="437" y="457" on="0"/>
        <pt x="381" y="382" on="0"/>
        <pt x="338" y="365" on="1"/>
        <pt x="393" y="347" on="0"/>
        <pt x="460" y="264" on="0"/>
        <pt x="460" y="198" on="1"/>
        <pt x="460" y="99" on="0"/>
        <pt x="327" y="0" on="0"/>
      </contour>
    </TTGlyph>
    <TTGlyph name="bar" xMin="85" yMin="-186" xMax="158" yMax="721">
      <contour>
        <pt x="158" y="-175" on="1"/>
        <pt x="85" y="-186" on="1"/>
        <pt x="85" y="710" on="1"/>
        <pt x="158" y="721" on="1"/>
      </contour>
    </TTGlyph>
    <TTGlyph name="bar.tab" xMin="84" yMin="-132" xMax="158" yMax="807">
      <contour>
        <pt x="158" y="-121" on="1"/>
        <pt x="84" y="-132" on="1"/>
        <pt x="84" y="795" on="1"/>
        <pt x="158" y="807" on="1"/>
      </contour>
    </TTGlyph>
    <TTGlyph name="braceleft" xMin="32" yMin="-94" xMax="394" yMax="700">
      <contour>
        <pt x="394" y="-94" on="1"/>
        <pt x="295" y="-94" on="1"/>
        <pt x="223" y="-94" on="0"/>
        <pt x="155" y="-28" on="0"/>
        <pt x="155" y="35" on="1"/>
        <pt x="155" y="69" on="0"/>
        <pt x="168" y="139" on="0"/>
        <pt x="168" y="175" on="1"/>
        <pt x="168" y="229" on="0"/>
        <pt x="113" y="271" on="0"/>
        <pt x="73" y="271" on="1"/>
        <pt x="43" y="271" on="1"/>
        <pt x="32" y="337" on="1"/>
        <pt x="74" y="337" on="1"/>
        <pt x="114" y="337" on="0"/>
        <pt x="168" y="378" on="0"/>
        <pt x="168" y="431" on="1"/>
        <pt x="168" y="467" on="0"/>
        <pt x="155" y="535" on="0"/>
        <pt x="155" y="569" on="1"/>
        <pt x="155" y="632" on="0"/>
        <pt x="223" y="700" on="0"/>
        <pt x="295" y="700" on="1"/>
        <pt x="389" y="700" on="1"/>
        <pt x="389" y="633" on="1"/>
        <pt x="302" y="633" on="1"/>
        <pt x="269" y="633" on="0"/>
        <pt x="238" y="599" on="0"/>
        <pt x="238" y="571" on="1"/>
        <pt x="238" y="540" on="0"/>
        <pt x="252" y="465" on="0"/>
        <pt x="252" y="432" on="1"/>
        <pt x="252" y="371" on="0"/>
        <pt x="197" y="314" on="0"/>
        <pt x="152" y="304" on="1"/>
        <pt x="152" y="302" on="1"/>
        <pt x="197" y="292" on="0"/>
        <pt x="252" y="236" on="0"/>
        <pt x="252" y="174" on="1"/>
        <pt x="252" y="142" on="0"/>
        <pt x="238" y="66" on="0"/>
        <pt x="238" y="36" on="1"/>
        <pt x="238" y="7" on="0"/>
        <pt x="268" y="-27" on="0"/>
        <pt x="301" y="-27" on="1"/>
        <pt x="384" y="-27" on="1"/>
      </contour>
    </TTGlyph>
    <TTGlyph name="braceleft.flat" xMin="37" yMin="-94" xMax="389" yMax="700">
      <contour>
        <pt x="389" y="-94" on="1"/>
        <pt x="295" y="-94" on="1"/>
        <pt x="223" y="-94" on="0"/>
        <pt x="155" y="-28" on="0"/>
        <pt x="155" y="35" on="1"/>
        <pt x="155" y="69" on="0"/>
        <pt x="168" y="139" on="0"/>
        <pt x="168" y="175" on="1"/>
        <pt x="168" y="229" on="0"/>
        <pt x="113" y="271" on="0"/>
        <pt x="73" y="271" on="1"/>
        <pt x="37" y="271" on="1"/>
        <pt x="37" y="337" on="1"/>
        <pt x="74" y="337" on="1"/>
        <pt x="114" y="337" on="0"/>
        <pt x="168" y="378" on="0"/>
        <pt x="168" y="431" on="1"/>
        <pt x="168" y="467" on="0"/>
        <pt x="155" y="535" on="0"/>
        <pt x="155" y="569" on="1"/>
        <pt x="155" y="632" on="0"/>
        <pt x="223" y="700" on="0"/>
        <pt x="295" y="700" on="1"/>
        <pt x="389" y="700" on="1"/>
        <pt x="389" y="633" on="1"/>
        <pt x="302" y="633" on="1"/>
        <pt x="269" y="633" on="0"/>
        <pt x="238" y="599" on="0"/>
        <pt x="238" y="571" on="1"/>
        <pt x="238" y="540" on="0"/>
        <pt x="252" y="465" on="0"/>
        <pt x="252" y="432" on="1"/>
        <pt x="252" y="371" on="0"/>
        <pt x="197" y="314" on="0"/>
        <pt x="152" y="304" on="1"/>
        <pt x="152" y="302" on="1"/>
        <pt x="197" y="292" on="0"/>
        <pt x="252" y="236" on="0"/>
        <pt x="252" y="174" on="1"/>
        <pt x="252" y="142" on="0"/>
        <pt x="238" y="66" on="0"/>
        <pt x="238" y="36" on="1"/>
        <pt x="238" y="7" on="0"/>
        <pt x="268" y="-27" on="0"/>
        <pt x="301" y="-27" on="1"/>
        <pt x="389" y="-27" on="1"/>
      </contour>
    </TTGlyph>
    <TTGlyph name="braceright" xMin="34" yMin="-94" xMax="397" yMax="700">
      <contour>
        <pt x="34" y="700" on="1"/>
        <pt x="134" y="700" on="1"/>
        <pt x="206" y="700" on="0"/>
        <pt x="273" y="634" on="0"/>
        <pt x="273" y="571" on="1"/>
        <pt x="273" y="537" on="0"/>
        <pt x="260" y="467" on="0"/>
        <pt x="260" y="431" on="1"/>
        <pt x="260" y="377" on="0"/>
        <pt x="315" y="336" on="0"/>
        <pt x="356" y="336" on="1"/>
        <pt x="386" y="336" on="1"/>
        <pt x="397" y="270" on="1"/>
        <pt x="355" y="270" on="1"/>
        <pt x="314" y="270" on="0"/>
        <pt x="260" y="228" on="0"/>
        <pt x="260" y="175" on="1"/>
        <pt x="260" y="139" on="0"/>
        <pt x="273" y="71" on="0"/>
        <pt x="273" y="37" on="1"/>
        <pt x="273" y="-26" on="0"/>
        <pt x="205" y="-94" on="0"/>
        <pt x="134" y="-94" on="1"/>
        <pt x="40" y="-94" on="1"/>
        <pt x="40" y="-27" on="1"/>
        <pt x="127" y="-27" on="1"/>
        <pt x="160" y="-27" on="0"/>
        <pt x="190" y="7" on="0"/>
        <pt x="190" y="35" on="1"/>
        <pt x="190" y="66" on="0"/>
        <pt x="177" y="141" on="0"/>
        <pt x="177" y="174" on="1"/>
        <pt x="177" y="235" on="0"/>
        <pt x="232" y="292" on="0"/>
        <pt x="276" y="302" on="1"/>
        <pt x="276" y="304" on="1"/>
        <pt x="232" y="314" on="0"/>
        <pt x="177" y="370" on="0"/>
        <pt x="177" y="432" on="1"/>
        <pt x="177" y="464" on="0"/>
        <pt x="190" y="540" on="0"/>
        <pt x="190" y="571" on="1"/>
        <pt x="190" y="599" on="0"/>
        <pt x="161" y="633" on="0"/>
        <pt x="127" y="633" on="1"/>
        <pt x="45" y="633" on="1"/>
      </contour>
    </TTGlyph>
    <TTGlyph name="braceright.flat" xMin="40" yMin="-94" xMax="391" yMax="700">
      <contour>
        <pt x="40" y="700" on="1"/>
        <pt x="134" y="700" on="1"/>
        <pt x="206" y="700" on="0"/>
        <pt x="273" y="634" on="0"/>
        <pt x="273" y="571" on="1"/>
        <pt x="273" y="537" on="0"/>
        <pt x="260" y="467" on="0"/>
        <pt x="260" y="431" on="1"/>
        <pt x="260" y="377" on="0"/>
        <pt x="315" y="336" on="0"/>
        <pt x="356" y="336" on="1"/>
        <pt x="391" y="336" on="1"/>
        <pt x="391" y="270" on="1"/>
        <pt x="355" y="270" on="1"/>
        <pt x="314" y="270" on="0"/>
        <pt x="260" y="228" on="0"/>
        <pt x="260" y="175" on="1"/>
        <pt x="260" y="139" on="0"/>
        <pt x="273" y="71" on="0"/>
        <pt x="273" y="37" on="1"/>
        <pt x="273" y="-26" on="0"/>
        <pt x="205" y="-94" on="0"/>
        <pt x="134" y="-94" on="1"/>
        <pt x="40" y="-94" on="1"/>
        <pt x="40" y="-27" on="1"/>
        <pt x="127" y="-27" on="1"/>
        <pt x="160" y="-27" on="0"/>
        <pt x="190" y="7" on="0"/>
        <pt x="190" y="35" on="1"/>
        <pt x="190" y="66" on="0"/>
        <pt x="177" y="141" on="0"/>
        <pt x="177" y="174" on="1"/>
        <pt x="177" y="235" on="0"/>
        <pt x="232" y="292" on="0"/>
        <pt x="276" y="302" on="1"/>
        <pt x="276" y="304" on="1"/>
        <pt x="232" y="314" on="0"/>
        <pt x="177" y="370" on="0"/>
        <pt x="177" y="432" on="1"/>
        <pt x="177" y="464" on="0"/>
        <pt x="190" y="540" on="0"/>
        <pt x="190" y="571" on="1"/>
        <pt x="190" y="599" on="0"/>
        <pt x="161" y="633" on="0"/>
        <pt x="127" y="633" on="1"/>
        <pt x="40" y="633" on="1"/>
      </contour>
    </TTGlyph>
    <TTGlyph name="bracketleft" xMin="85" yMin="-94" xMax="335" yMax="700">
      <contour>
        <pt x="335" y="-94" on="1"/>
        <pt x="85" y="-94" on="1"/>
        <pt x="85" y="700" on="1"/>
        <pt x="330" y="700" on="1"/>
        <pt x="330" y="633" on="1"/>
        <pt x="166" y="633" on="1"/>
        <pt x="166" y="-27" on="1"/>
        <pt x="324" y="-27" on="1"/>
      </contour>
    </TTGlyph>
    <TTGlyph name="bracketleft.flat" xMin="85" yMin="-94" xMax="330" yMax="700">
      <contour>
        <pt x="330" y="-94" on="1"/>
        <pt x="85" y="-94" on="1"/>
        <pt x="85" y="700" on="1"/>
        <pt x="330" y="700" on="1"/>
        <pt x="330" y="633" on="1"/>
        <pt x="166" y="633" on="1"/>
        <pt x="166" y="-27" on="1"/>
        <pt x="330" y="-27" on="1"/>
      </contour>
    </TTGlyph>
    <TTGlyph name="bracketright" xMin="34" yMin="-94" xMax="285" yMax="700">
      <contour>
        <pt x="34" y="700" on="1"/>
        <pt x="285" y="700" on="1"/>
        <pt x="285" y="-94" on="1"/>
        <pt x="40" y="-94" on="1"/>
        <pt x="40" y="-27" on="1"/>
        <pt x="203" y="-27" on="1"/>
        <pt x="203" y="634" on="1"/>
        <pt x="45" y="634" on="1"/>
      </contour>
    </TTGlyph>
    <TTGlyph name="bracketright.flat" xMin="40" yMin="-94" xMax="285" yMax="700">
      <contour>
        <pt x="40" y="700" on="1"/>
        <pt x="285" y="700" on="1"/>
        <pt x="285" y="-94" on="1"/>
        <pt x="40" y="-94" on="1"/>
        <pt x="40" y="-27" on="1"/>
        <pt x="203" y="-27" on="1"/>
        <pt x="203" y="634" on="1"/>
        <pt x="40" y="634" on="1"/>
      </contour>
    </TTGlyph>
    <TTGlyph name="breve" xMin="77" yMin="542" xMax="331" yMax="668">
      <contour>
        <pt x="331" y="657" on="1"/>
        <pt x="324" y="602" on="0"/>
        <pt x="259" y="542" on="0"/>
        <pt x="203" y="542" on="1"/>
        <pt x="149" y="542" on="0"/>
        <pt x="84" y="601" on="0"/>
        <pt x="77" y="657" on="1"/>
        <pt x="136" y="668" on="1"/>
        <pt x="141" y="637" on="0"/>
        <pt x="177" y="609" on="0"/>
        <pt x="204" y="609" on="1"/>
        <pt x="231" y="609" on="0"/>
        <pt x="266" y="637" on="0"/>
        <pt x="272" y="668" on="1"/>
      </contour>
    </TTGlyph>
    <TTGlyph name="bullet" xMin="76" yMin="204" xMax="328" yMax="486">
      <contour>
        <pt x="328" y="345" on="1"/>
        <pt x="309" y="222" on="1"/>
        <pt x="202" y="204" on="1"/>
        <pt x="96" y="222" on="1"/>
        <pt x="76" y="345" on="1"/>
        <pt x="96" y="469" on="1"/>
        <pt x="202" y="486" on="1"/>
        <pt x="309" y="469" on="1"/>
      </contour>
    </TTGlyph>
    <TTGlyph name="c" xMin="36" yMin="-9" xMax="375" yMax="492">
      <contour>
        <pt x="375" y="33" on="1"/>
        <pt x="347" y="13" on="0"/>
        <pt x="281" y="-9" on="0"/>
        <pt x="238" y="-9" on="1"/>
        <pt x="147" y="-9" on="0"/>
        <pt x="36" y="122" on="0"/>
        <pt x="36" y="241" on="1"/>
        <pt x="36" y="360" on="0"/>
        <pt x="152" y="492" on="0"/>
        <pt x="245" y="492" on="1"/>
        <pt x="286" y="492" on="0"/>
        <pt x="349" y="471" on="0"/>
        <pt x="371" y="457" on="1"/>
        <pt x="357" y="372" on="1"/>
        <pt x="330" y="393" on="0"/>
        <pt x="275" y="415" on="0"/>
        <pt x="244" y="415" on="1"/>
        <pt x="189" y="415" on="0"/>
        <pt x="123" y="324" on="0"/>
        <pt x="123" y="242" on="1"/>
        <pt x="123" y="156" on="0"/>
        <pt x="192" y="68" on="0"/>
        <pt x="246" y="68" on="1"/>
        <pt x="276" y="68" on="0"/>
        <pt x="332" y="88" on="0"/>
        <pt x="363" y="112" on="1"/>
      </contour>
    </TTGlyph>
    <TTGlyph name="cacute" xMin="36" yMin="-9" xMax="377" yMax="692">
      <component glyphName="c" x="0" y="0" flags="0x204"/>
      <component glyphName="acute" x="82" y="3" flags="0x4"/>
    </TTGlyph>
    <TTGlyph name="caron" xMin="77" yMin="543" xMax="331" yMax="681">
      <contour>
        <pt x="77" y="681" on="1"/>
        <pt x="134" y="681" on="1"/>
        <pt x="204" y="610" on="1"/>
        <pt x="274" y="681" on="1"/>
        <pt x="331" y="681" on="1"/>
        <pt x="243" y="543" on="1"/>
        <pt x="165" y="543" on="1"/>
      </contour>
    </TTGlyph>
    <TTGlyph name="caron.alt" xMin="150" yMin="537" xMax="256" yMax="722">
      <contour>
        <pt x="237" y="722" on="1"/>
        <pt x="246" y="706" on="0"/>
        <pt x="256" y="671" on="0"/>
        <pt x="256" y="653" on="1"/>
        <pt x="256" y="620" on="0"/>
        <pt x="220" y="560" on="0"/>
        <pt x="193" y="537" on="1"/>
        <pt x="150" y="547" on="1"/>
        <pt x="167" y="572" on="0"/>
        <pt x="182" y="613" on="0"/>
        <pt x="182" y="635" on="1"/>
        <pt x="182" y="653" on="0"/>
        <pt x="169" y="688" on="0"/>
        <pt x="159" y="709" on="1"/>
      </contour>
    </TTGlyph>
    <TTGlyph name="ccaron" xMin="36" yMin="-9" xMax="375" yMax="684">
      <component glyphName="c" x="0" y="0" flags="0x204"/>
      <component glyphName="caron" x="30" y="3" flags="0x4"/>
    </TTGlyph>
    <TTGlyph name="ccedilla" xMin="36" yMin="-190" xMax="375" yMax="492">
      <component glyphName="c" x="0" y="0" flags="0x204"/>
      <component glyphName="cedilla" x="8" y="0" flags="0x4"/>
    </TTGlyph>
    <TTGlyph name="cdotaccent" xMin="36" yMin="-9" xMax="375" yMax="649">
      <component glyphName="c" x="0" y="0" flags="0x204"/>
      <component glyphName="dotaccent" x="30" y="3" flags="0x4"/>
    </TTGlyph>
    <TTGlyph name="cedilla" xMin="113" yMin="-190" xMax="282" yMax="-57">
      <contour>
        <pt x="282" y="-82" on="1"/>
        <pt x="171" y="-190" on="1"/>
        <pt x="113" y="-190" on="1"/>
        <pt x="181" y="-57" on="1"/>
      </contour>
    </TTGlyph>
    <TTGlyph name="cent" xMin="36" yMin="-11" xMax="383" yMax="692">
      <contour>
        <pt x="119" y="342" on="1"/>
        <pt x="119" y="286" on="0"/>
        <pt x="152" y="206" on="0"/>
        <pt x="183" y="187" on="1"/>
        <pt x="234" y="514" on="1"/>
        <pt x="180" y="511" on="0"/>
        <pt x="119" y="420" on="0"/>
      </contour>
      <contour>
        <pt x="237" y="95" on="1"/>
        <pt x="236" y="95" on="0"/>
        <pt x="232" y="95" on="0"/>
        <pt x="231" y="95" on="1"/>
        <pt x="215" y="-11" on="1"/>
        <pt x="152" y="3" on="1"/>
        <pt x="169" y="106" on="1"/>
        <pt x="110" y="127" on="0"/>
        <pt x="36" y="244" on="0"/>
        <pt x="36" y="340" on="1"/>
        <pt x="36" y="400" on="0"/>
        <pt x="67" y="493" on="0"/>
        <pt x="121" y="555" on="0"/>
        <pt x="196" y="587" on="0"/>
        <pt x="239" y="587" on="1"/>
        <pt x="244" y="587" on="1"/>
        <pt x="261" y="692" on="1"/>
        <pt x="323" y="679" on="1"/>
        <pt x="307" y="580" on="1"/>
        <pt x="329" y="576" on="0"/>
        <pt x="364" y="559" on="0"/>
        <pt x="380" y="549" on="1"/>
        <pt x="367" y="465" on="1"/>
        <pt x="351" y="478" on="0"/>
        <pt x="316" y="500" on="0"/>
        <pt x="294" y="506" on="1"/>
        <pt x="241" y="170" on="1"/>
        <pt x="243" y="170" on="0"/>
        <pt x="248" y="170" on="0"/>
        <pt x="250" y="170" on="1"/>
        <pt x="287" y="170" on="0"/>
        <pt x="346" y="193" on="0"/>
        <pt x="372" y="217" on="1"/>
        <pt x="383" y="140" on="1"/>
        <pt x="352" y="117" on="0"/>
        <pt x="283" y="95" on="0"/>
      </contour>
    </TTGlyph>
    <TTGlyph name="cent.tab" xMin="59" yMin="-11" xMax="426" yMax="692">
      <contour>
        <pt x="141" y="342" on="1"/>
        <pt x="141" y="282" on="0"/>
        <pt x="181" y="201" on="0"/>
        <pt x="218" y="184" on="1"/>
        <pt x="268" y="512" on="1"/>
        <pt x="210" y="511" on="0"/>
        <pt x="141" y="422" on="0"/>
      </contour>
      <contour>
        <pt x="271" y="97" on="1"/>
        <pt x="270" y="97" on="0"/>
        <pt x="268" y="97" on="0"/>
        <pt x="267" y="97" on="1"/>
        <pt x="250" y="-11" on="1"/>
        <pt x="187" y="3" on="1"/>
        <pt x="204" y="107" on="1"/>
        <pt x="140" y="126" on="0"/>
        <pt x="59" y="245" on="0"/>
        <pt x="59" y="340" on="1"/>
        <pt x="59" y="399" on="0"/>
        <pt x="92" y="491" on="0"/>
        <pt x="149" y="553" on="0"/>
        <pt x="227" y="586" on="0"/>
        <pt x="273" y="586" on="1"/>
        <pt x="274" y="586" on="0"/>
        <pt x="277" y="586" on="0"/>
        <pt x="278" y="586" on="1"/>
        <pt x="295" y="692" on="1"/>
        <pt x="358" y="678" on="1"/>
        <pt x="342" y="580" on="1"/>
        <pt x="367" y="575" on="0"/>
        <pt x="406" y="557" on="0"/>
        <pt x="422" y="546" on="1"/>
        <pt x="410" y="463" on="1"/>
        <pt x="392" y="476" on="0"/>
        <pt x="352" y="499" on="0"/>
        <pt x="328" y="505" on="1"/>
        <pt x="276" y="171" on="1"/>
        <pt x="281" y="171" on="1"/>
        <pt x="283" y="171" on="1"/>
        <pt x="323" y="171" on="0"/>
        <pt x="386" y="194" on="0"/>
        <pt x="415" y="219" on="1"/>
        <pt x="426" y="143" on="1"/>
        <pt x="393" y="119" on="0"/>
        <pt x="320" y="97" on="0"/>
      </contour>
    </TTGlyph>
    <TTGlyph name="circumflex" xMin="76" yMin="543" xMax="330" yMax="682">
      <contour>
        <pt x="330" y="543" on="1"/>
        <pt x="273" y="543" on="1"/>
        <pt x="203" y="614" on="1"/>
        <pt x="133" y="543" on="1"/>
        <pt x="76" y="543" on="1"/>
        <pt x="164" y="682" on="1"/>
        <pt x="243" y="682" on="1"/>
      </contour>
    </TTGlyph>
    <TTGlyph name="colon" xMin="52" yMin="0" xMax="148" yMax="482">
      <contour>
        <pt x="148" y="363" on="1"/>
        <pt x="52" y="363" on="1"/>
        <pt x="52" y="482" on="1"/>
        <pt x="148" y="482" on="1"/>
      </contour>
      <contour>
        <pt x="148" y="0" on="1"/>
        <pt x="52" y="0" on="1"/>
        <pt x="52" y="119" on="1"/>
        <pt x="148" y="119" on="1"/>
      </contour>
    </TTGlyph>
    <TTGlyph name="colon.tab" xMin="74" yMin="0" xMax="169" yMax="482">
      <contour>
        <pt x="169" y="363" on="1"/>
        <pt x="74" y="363" on="1"/>
        <pt x="74" y="482" on="1"/>
        <pt x="169" y="482" on="1"/>
      </contour>
      <contour>
        <pt x="169" y="0" on="1"/>
        <pt x="74" y="0" on="1"/>
        <pt x="74" y="119" on="1"/>
        <pt x="169" y="119" on="1"/>
      </contour>
    </TTGlyph>
    <TTGlyph name="colonmonetary" xMin="38" yMin="-120" xMax="492" yMax="760">
      <contour>
        <pt x="350" y="-120" on="1"/>
        <pt x="287" y="-105" on="1"/>
        <pt x="304" y="-4" on="1"/>
        <pt x="301" y="-4" on="0"/>
        <pt x="295" y="-4" on="0"/>
        <pt x="292" y="-4" on="1"/>
        <pt x="277" y="-4" on="0"/>
        <pt x="248" y="-1" on="0"/>
        <pt x="235" y="2" on="1"/>
        <pt x="215" y="-120" on="1"/>
        <pt x="152" y="-105" on="1"/>
        <pt x="173" y="27" on="1"/>
        <pt x="109" y="65" on="0"/>
        <pt x="38" y="227" on="0"/>
        <pt x="38" y="337" on="1"/>
        <pt x="38" y="411" on="0"/>
        <pt x="70" y="536" on="0"/>
        <pt x="131" y="627" on="0"/>
        <pt x="222" y="682" on="0"/>
        <pt x="281" y="686" on="1"/>
        <pt x="294" y="760" on="1"/>
        <pt x="356" y="746" on="1"/>
        <pt x="346" y="683" on="1"/>
        <pt x="364" y="680" on="0"/>
        <pt x="398" y="670" on="0"/>
        <pt x="413" y="663" on="1"/>
        <pt x="429" y="760" on="1"/>
        <pt x="492" y="746" on="1"/>
        <pt x="384" y="85" on="1"/>
        <pt x="401" y="92" on="0"/>
        <pt x="436" y="113" on="0"/>
        <pt x="454" y="126" on="1"/>
        <pt x="466" y="49" on="1"/>
        <pt x="445" y="35" on="0"/>
        <pt x="398" y="13" on="0"/>
        <pt x="371" y="6" on="1"/>
      </contour>
      <contour>
        <pt x="122" y="331" on="1"/>
        <pt x="122" y="257" on="0"/>
        <pt x="156" y="142" on="0"/>
        <pt x="191" y="109" on="1"/>
        <pt x="273" y="613" on="1"/>
        <pt x="235" y="607" on="0"/>
        <pt x="178" y="561" on="0"/>
        <pt x="141" y="487" on="0"/>
        <pt x="122" y="388" on="0"/>
      </contour>
      <contour>
        <pt x="299" y="69" on="1"/>
        <pt x="305" y="69" on="0"/>
        <pt x="317" y="69" on="0"/>
        <pt x="323" y="70" on="1"/>
        <pt x="406" y="584" on="1"/>
        <pt x="388" y="594" on="0"/>
        <pt x="351" y="608" on="0"/>
        <pt x="330" y="612" on="1"/>
        <pt x="243" y="78" on="1"/>
        <pt x="256" y="74" on="0"/>
        <pt x="283" y="69" on="0"/>
      </contour>
    </TTGlyph>
    <TTGlyph name="comma" xMin="18" yMin="-126" xMax="160" yMax="119">
      <contour>
        <pt x="160" y="119" on="1"/>
        <pt x="67" y="-126" on="1"/>
        <pt x="18" y="-116" on="1"/>
        <pt x="59" y="119" on="1"/>
      </contour>
    </TTGlyph>
    <TTGlyph name="comma.alt" xMin="16" yMin="-129" xMax="150" yMax="119">
      <contour>
        <pt x="54" y="119" on="1"/>
        <pt x="143" y="119" on="1"/>
        <pt x="146" y="104" on="0"/>
        <pt x="150" y="73" on="0"/>
        <pt x="150" y="58" on="1"/>
        <pt x="150" y="8" on="0"/>
        <pt x="106" y="-86" on="0"/>
        <pt x="66" y="-129" on="1"/>
        <pt x="16" y="-113" on="1"/>
        <pt x="41" y="-69" on="0"/>
        <pt x="63" y="9" on="0"/>
        <pt x="63" y="46" on="1"/>
        <pt x="63" y="63" on="0"/>
        <pt x="58" y="97" on="0"/>
      </contour>
    </TTGlyph>
    <TTGlyph name="comma.tab" xMin="45" yMin="-133" xMax="188" yMax="119">
      <contour>
        <pt x="188" y="119" on="1"/>
        <pt x="96" y="-133" on="1"/>
        <pt x="45" y="-123" on="1"/>
        <pt x="88" y="119" on="1"/>
      </contour>
    </TTGlyph>
    <TTGlyph name="comma.tab_alt" xMin="42" yMin="-133" xMax="177" yMax="119">
      <contour>
        <pt x="80" y="119" on="1"/>
        <pt x="169" y="119" on="1"/>
        <pt x="173" y="104" on="0"/>
        <pt x="177" y="72" on="0"/>
        <pt x="177" y="57" on="1"/>
        <pt x="177" y="6" on="0"/>
        <pt x="131" y="-89" on="0"/>
        <pt x="91" y="-133" on="1"/>
        <pt x="42" y="-117" on="1"/>
        <pt x="67" y="-71" on="0"/>
        <pt x="89" y="8" on="0"/>
        <pt x="89" y="45" on="1"/>
        <pt x="89" y="62" on="0"/>
        <pt x="84" y="97" on="0"/>
      </contour>
    </TTGlyph>
    <TTGlyph name="commaaccent" xMin="136" yMin="-238" xMax="256" yMax="-57">
      <contour>
        <pt x="142" y="-79" on="1"/>
        <pt x="221" y="-57" on="1"/>
        <pt x="238" y="-76" on="0"/>
        <pt x="256" y="-111" on="0"/>
        <pt x="256" y="-132" on="1"/>
        <pt x="256" y="-155" on="0"/>
        <pt x="226" y="-206" on="0"/>
        <pt x="189" y="-238" on="1"/>
        <pt x="136" y="-225" on="1"/>
        <pt x="156" y="-198" on="0"/>
        <pt x="174" y="-159" on="0"/>
        <pt x="174" y="-141" on="1"/>
        <pt x="174" y="-125" on="0"/>
        <pt x="158" y="-97" on="0"/>
      </contour>
    </TTGlyph>
    <TTGlyph name="commaaccent.rot" xMin="152" yMin="544" xMax="272" yMax="725">
      <contour>
        <pt x="266" y="566" on="1"/>
        <pt x="187" y="544" on="1"/>
        <pt x="170" y="563" on="0"/>
        <pt x="152" y="598" on="0"/>
        <pt x="152" y="619" on="1"/>
        <pt x="152" y="642" on="0"/>
        <pt x="182" y="693" on="0"/>
        <pt x="219" y="725" on="1"/>
        <pt x="272" y="712" on="1"/>
        <pt x="252" y="685" on="0"/>
        <pt x="234" y="646" on="0"/>
        <pt x="234" y="628" on="1"/>
        <pt x="234" y="612" on="0"/>
        <pt x="250" y="584" on="0"/>
      </contour>
    </TTGlyph>
    <TTGlyph name="copyright" xMin="45" yMin="-18" xMax="669" yMax="708">
      <contour>
        <pt x="669" y="346" on="1"/>
        <pt x="669" y="265" on="0"/>
        <pt x="623" y="131" on="0"/>
        <pt x="541" y="35" on="0"/>
        <pt x="425" y="-18" on="0"/>
        <pt x="356" y="-18" on="1"/>
        <pt x="287" y="-18" on="0"/>
        <pt x="171" y="35" on="0"/>
        <pt x="90" y="129" on="0"/>
        <pt x="45" y="263" on="0"/>
        <pt x="45" y="344" on="1"/>
        <pt x="45" y="425" on="0"/>
        <pt x="91" y="560" on="0"/>
        <pt x="173" y="655" on="0"/>
        <pt x="288" y="708" on="0"/>
        <pt x="357" y="708" on="1"/>
        <pt x="427" y="708" on="0"/>
        <pt x="542" y="655" on="0"/>
        <pt x="624" y="561" on="0"/>
        <pt x="669" y="427" on="0"/>
      </contour>
      <contour>
        <pt x="626" y="345" on="1"/>
        <pt x="626" y="422" on="0"/>
        <pt x="584" y="544" on="0"/>
        <pt x="511" y="628" on="0"/>
        <pt x="413" y="672" on="0"/>
        <pt x="357" y="672" on="1"/>
        <pt x="301" y="672" on="0"/>
        <pt x="202" y="628" on="0"/>
        <pt x="130" y="544" on="0"/>
        <pt x="88" y="422" on="0"/>
        <pt x="88" y="345" on="1"/>
        <pt x="88" y="268" on="0"/>
        <pt x="130" y="146" on="0"/>
        <pt x="202" y="63" on="0"/>
        <pt x="301" y="19" on="0"/>
        <pt x="357" y="19" on="1"/>
        <pt x="413" y="19" on="0"/>
        <pt x="512" y="63" on="0"/>
        <pt x="584" y="146" on="0"/>
        <pt x="626" y="268" on="0"/>
      </contour>
      <contour>
        <pt x="475" y="180" on="1"/>
        <pt x="453" y="163" on="0"/>
        <pt x="398" y="143" on="0"/>
        <pt x="367" y="143" on="1"/>
        <pt x="294" y="143" on="0"/>
        <pt x="203" y="253" on="0"/>
        <pt x="203" y="348" on="1"/>
        <pt x="203" y="441" on="0"/>
        <pt x="295" y="553" on="0"/>
        <pt x="370" y="553" on="1"/>
        <pt x="399" y="553" on="0"/>
        <pt x="446" y="538" on="0"/>
        <pt x="468" y="524" on="1"/>
        <pt x="459" y="458" on="1"/>
        <pt x="435" y="475" on="0"/>
        <pt x="394" y="491" on="0"/>
        <pt x="370" y="491" on="1"/>
        <pt x="324" y="491" on="0"/>
        <pt x="269" y="411" on="0"/>
        <pt x="269" y="348" on="1"/>
        <pt x="269" y="285" on="0"/>
        <pt x="323" y="205" on="0"/>
        <pt x="369" y="205" on="1"/>
        <pt x="394" y="205" on="0"/>
        <pt x="440" y="224" on="0"/>
        <pt x="466" y="243" on="1"/>
      </contour>
    </TTGlyph>
    <TTGlyph name="d" xMin="36" yMin="-10" xMax="419" yMax="722">
      <contour>
        <pt x="123" y="233" on="1"/>
        <pt x="123" y="149" on="0"/>
        <pt x="179" y="69" on="0"/>
        <pt x="219" y="69" on="1"/>
        <pt x="251" y="69" on="0"/>
        <pt x="305" y="108" on="0"/>
        <pt x="332" y="139" on="1"/>
        <pt x="332" y="391" on="1"/>
        <pt x="309" y="402" on="0"/>
        <pt x="268" y="413" on="0"/>
        <pt x="240" y="413" on="1"/>
        <pt x="191" y="413" on="0"/>
        <pt x="123" y="324" on="0"/>
      </contour>
      <contour>
        <pt x="36" y="230" on="1"/>
        <pt x="36" y="296" on="0"/>
        <pt x="69" y="393" on="0"/>
        <pt x="123" y="457" on="0"/>
        <pt x="196" y="488" on="0"/>
        <pt x="235" y="488" on="1"/>
        <pt x="263" y="488" on="0"/>
        <pt x="312" y="477" on="0"/>
        <pt x="332" y="470" on="1"/>
        <pt x="332" y="709" on="1"/>
        <pt x="419" y="722" on="1"/>
        <pt x="419" y="0" on="1"/>
        <pt x="350" y="0" on="1"/>
        <pt x="340" y="61" on="1"/>
        <pt x="315" y="32" on="0"/>
        <pt x="250" y="-10" on="0"/>
        <pt x="205" y="-10" on="1"/>
        <pt x="171" y="-10" on="0"/>
        <pt x="109" y="19" on="0"/>
        <pt x="63" y="78" on="0"/>
        <pt x="36" y="168" on="0"/>
      </contour>
    </TTGlyph>
    <TTGlyph name="dagger" xMin="50" yMin="-98" xMax="427" yMax="690">
      <contour>
        <pt x="275" y="618" on="1"/>
        <pt x="254" y="494" on="1"/>
        <pt x="223" y="494" on="1"/>
        <pt x="203" y="618" on="1"/>
        <pt x="203" y="690" on="1"/>
        <pt x="275" y="690" on="1"/>
      </contour>
      <contour>
        <pt x="202" y="442" on="1"/>
        <pt x="85" y="422" on="1"/>
        <pt x="50" y="422" on="1"/>
        <pt x="50" y="493" on="1"/>
        <pt x="85" y="493" on="1"/>
        <pt x="202" y="472" on="1"/>
      </contour>
      <contour>
        <pt x="427" y="422" on="1"/>
        <pt x="392" y="422" on="1"/>
        <pt x="275" y="442" on="1"/>
        <pt x="275" y="472" on="1"/>
        <pt x="392" y="493" on="1"/>
        <pt x="427" y="493" on="1"/>
      </contour>
      <contour>
        <pt x="272" y="31" on="1"/>
        <pt x="252" y="-98" on="1"/>
        <pt x="225" y="-98" on="1"/>
        <pt x="205" y="31" on="1"/>
        <pt x="205" y="302" on="1"/>
        <pt x="223" y="421" on="1"/>
        <pt x="254" y="421" on="1"/>
        <pt x="272" y="302" on="1"/>
      </contour>
    </TTGlyph>
    <TTGlyph name="daggerdbl" xMin="55" yMin="-163" xMax="431" yMax="690">
      <contour>
        <pt x="279" y="618" on="1"/>
        <pt x="259" y="494" on="1"/>
        <pt x="228" y="494" on="1"/>
        <pt x="207" y="618" on="1"/>
        <pt x="207" y="690" on="1"/>
        <pt x="279" y="690" on="1"/>
      </contour>
      <contour>
        <pt x="431" y="422" on="1"/>
        <pt x="396" y="422" on="1"/>
        <pt x="280" y="442" on="1"/>
        <pt x="280" y="472" on="1"/>
        <pt x="396" y="493" on="1"/>
        <pt x="431" y="493" on="1"/>
      </contour>
      <contour>
        <pt x="207" y="442" on="1"/>
        <pt x="90" y="422" on="1"/>
        <pt x="55" y="422" on="1"/>
        <pt x="55" y="493" on="1"/>
        <pt x="90" y="493" on="1"/>
        <pt x="207" y="472" on="1"/>
      </contour>
      <contour>
        <pt x="276" y="226" on="1"/>
        <pt x="259" y="107" on="1"/>
        <pt x="228" y="107" on="1"/>
        <pt x="210" y="226" on="1"/>
        <pt x="210" y="302" on="1"/>
        <pt x="228" y="421" on="1"/>
        <pt x="259" y="421" on="1"/>
        <pt x="276" y="302" on="1"/>
      </contour>
      <contour>
        <pt x="280" y="86" on="1"/>
        <pt x="396" y="106" on="1"/>
        <pt x="431" y="106" on="1"/>
        <pt x="431" y="35" on="1"/>
        <pt x="396" y="35" on="1"/>
        <pt x="280" y="55" on="1"/>
      </contour>
      <contour>
        <pt x="55" y="106" on="1"/>
        <pt x="90" y="106" on="1"/>
        <pt x="207" y="86" on="1"/>
        <pt x="207" y="55" on="1"/>
        <pt x="90" y="35" on="1"/>
        <pt x="55" y="35" on="1"/>
      </contour>
      <contour>
        <pt x="207" y="-91" on="1"/>
        <pt x="228" y="34" on="1"/>
        <pt x="259" y="34" on="1"/>
        <pt x="279" y="-91" on="1"/>
        <pt x="279" y="-163" on="1"/>
        <pt x="207" y="-163" on="1"/>
      </contour>
    </TTGlyph>
    <TTGlyph name="dcaron" xMin="36" yMin="-10" xMax="561" yMax="722">
      <component glyphName="d" x="0" y="0" flags="0x204"/>
      <component glyphName="caron.alt" x="305" y="0" flags="0x4"/>
    </TTGlyph>
    <TTGlyph name="dcroat" xMin="36" yMin="-10" xMax="483" yMax="722">
      <contour>
        <pt x="123" y="233" on="1"/>
        <pt x="123" y="149" on="0"/>
        <pt x="179" y="69" on="0"/>
        <pt x="219" y="69" on="1"/>
        <pt x="251" y="69" on="0"/>
        <pt x="305" y="108" on="0"/>
        <pt x="332" y="139" on="1"/>
        <pt x="332" y="391" on="1"/>
        <pt x="309" y="402" on="0"/>
        <pt x="268" y="413" on="0"/>
        <pt x="240" y="413" on="1"/>
        <pt x="191" y="413" on="0"/>
        <pt x="123" y="324" on="0"/>
      </contour>
      <contour>
        <pt x="340" y="61" on="1"/>
        <pt x="315" y="32" on="0"/>
        <pt x="250" y="-10" on="0"/>
        <pt x="205" y="-10" on="1"/>
        <pt x="171" y="-10" on="0"/>
        <pt x="109" y="19" on="0"/>
        <pt x="63" y="78" on="0"/>
        <pt x="36" y="168" on="0"/>
        <pt x="36" y="230" on="1"/>
        <pt x="36" y="296" on="0"/>
        <pt x="69" y="393" on="0"/>
        <pt x="123" y="457" on="0"/>
        <pt x="196" y="488" on="0"/>
        <pt x="235" y="488" on="1"/>
        <pt x="263" y="488" on="0"/>
        <pt x="312" y="477" on="0"/>
        <pt x="332" y="470" on="1"/>
        <pt x="332" y="566" on="1"/>
        <pt x="217" y="566" on="1"/>
        <pt x="206" y="637" on="1"/>
        <pt x="332" y="637" on="1"/>
        <pt x="332" y="709" on="1"/>
        <pt x="419" y="722" on="1"/>
        <pt x="419" y="637" on="1"/>
        <pt x="483" y="637" on="1"/>
        <pt x="483" y="566" on="1"/>
        <pt x="419" y="566" on="1"/>
        <pt x="419" y="0" on="1"/>
        <pt x="350" y="0" on="1"/>
      </contour>
    </TTGlyph>
    <TTGlyph name="dcroat.flat" xMin="36" yMin="-10" xMax="483" yMax="722">
      <contour>
        <pt x="123" y="233" on="1"/>
        <pt x="123" y="149" on="0"/>
        <pt x="179" y="69" on="0"/>
        <pt x="219" y="69" on="1"/>
        <pt x="251" y="69" on="0"/>
        <pt x="305" y="108" on="0"/>
        <pt x="332" y="139" on="1"/>
        <pt x="332" y="391" on="1"/>
        <pt x="309" y="402" on="0"/>
        <pt x="268" y="413" on="0"/>
        <pt x="240" y="413" on="1"/>
        <pt x="191" y="413" on="0"/>
        <pt x="123" y="324" on="0"/>
      </contour>
      <contour>
        <pt x="340" y="61" on="1"/>
        <pt x="315" y="32" on="0"/>
        <pt x="250" y="-10" on="0"/>
        <pt x="205" y="-10" on="1"/>
        <pt x="171" y="-10" on="0"/>
        <pt x="109" y="19" on="0"/>
        <pt x="63" y="78" on="0"/>
        <pt x="36" y="168" on="0"/>
        <pt x="36" y="230" on="1"/>
        <pt x="36" y="296" on="0"/>
        <pt x="69" y="393" on="0"/>
        <pt x="123" y="457" on="0"/>
        <pt x="196" y="488" on="0"/>
        <pt x="235" y="488" on="1"/>
        <pt x="263" y="488" on="0"/>
        <pt x="312" y="477" on="0"/>
        <pt x="332" y="470" on="1"/>
        <pt x="332" y="566" on="1"/>
        <pt x="211" y="566" on="1"/>
        <pt x="211" y="637" on="1"/>
        <pt x="332" y="637" on="1"/>
        <pt x="332" y="709" on="1"/>
        <pt x="419" y="722" on="1"/>
        <pt x="419" y="637" on="1"/>
        <pt x="483" y="637" on="1"/>
        <pt x="483" y="566" on="1"/>
        <pt x="419" y="566" on="1"/>
        <pt x="419" y="0" on="1"/>
        <pt x="350" y="0" on="1"/>
      </contour>
    </TTGlyph>
    <TTGlyph name="degree" xMin="39" yMin="389" xMax="340" yMax="690">
      <contour>
        <pt x="340" y="539" on="1"/>
        <pt x="340" y="474" on="0"/>
        <pt x="256" y="389" on="0"/>
        <pt x="190" y="389" on="1"/>
        <pt x="125" y="389" on="0"/>
        <pt x="39" y="474" on="0"/>
        <pt x="39" y="539" on="1"/>
        <pt x="39" y="604" on="0"/>
        <pt x="124" y="690" on="0"/>
        <pt x="190" y="690" on="1"/>
        <pt x="255" y="690" on="0"/>
        <pt x="340" y="604" on="0"/>
      </contour>
      <contour>
        <pt x="277" y="539" on="1"/>
        <pt x="277" y="577" on="0"/>
        <pt x="227" y="630" on="0"/>
        <pt x="190" y="630" on="1"/>
        <pt x="152" y="630" on="0"/>
        <pt x="103" y="577" on="0"/>
        <pt x="103" y="539" on="1"/>
        <pt x="103" y="501" on="0"/>
        <pt x="153" y="450" on="0"/>
        <pt x="190" y="450" on="1"/>
        <pt x="228" y="450" on="0"/>
        <pt x="277" y="501" on="0"/>
      </contour>
    </TTGlyph>
    <TTGlyph name="degree.tab" xMin="74" yMin="353" xMax="413" yMax="691">
      <contour>
        <pt x="413" y="521" on="1"/>
        <pt x="413" y="448" on="0"/>
        <pt x="317" y="353" on="0"/>
        <pt x="243" y="353" on="1"/>
        <pt x="170" y="353" on="0"/>
        <pt x="74" y="448" on="0"/>
        <pt x="74" y="521" on="1"/>
        <pt x="74" y="594" on="0"/>
        <pt x="171" y="691" on="0"/>
        <pt x="243" y="691" on="1"/>
        <pt x="317" y="691" on="0"/>
        <pt x="413" y="594" on="0"/>
      </contour>
      <contour>
        <pt x="138" y="521" on="1"/>
        <pt x="138" y="474" on="0"/>
        <pt x="198" y="414" on="0"/>
        <pt x="243" y="414" on="1"/>
        <pt x="287" y="414" on="0"/>
        <pt x="348" y="474" on="0"/>
        <pt x="348" y="521" on="1"/>
        <pt x="348" y="567" on="0"/>
        <pt x="287" y="629" on="0"/>
        <pt x="243" y="629" on="1"/>
        <pt x="198" y="629" on="0"/>
        <pt x="138" y="567" on="0"/>
      </contour>
    </TTGlyph>
    <TTGlyph name="dieresis" xMin="78" yMin="547" xMax="329" yMax="646">
      <contour>
        <pt x="169" y="547" on="1"/>
        <pt x="78" y="547" on="1"/>
        <pt x="78" y="646" on="1"/>
        <pt x="169" y="646" on="1"/>
      </contour>
      <contour>
        <pt x="329" y="547" on="1"/>
        <pt x="239" y="547" on="1"/>
        <pt x="239" y="646" on="1"/>
        <pt x="329" y="646" on="1"/>
      </contour>
    </TTGlyph>
    <TTGlyph name="divide" xMin="48" yMin="129" xMax="449" yMax="555">
      <contour>
        <pt x="292" y="456" on="1"/>
        <pt x="204" y="456" on="1"/>
        <pt x="204" y="555" on="1"/>
        <pt x="292" y="555" on="1"/>
      </contour>
      <contour>
        <pt x="449" y="306" on="1"/>
        <pt x="48" y="306" on="1"/>
        <pt x="48" y="377" on="1"/>
        <pt x="449" y="377" on="1"/>
      </contour>
      <contour>
        <pt x="292" y="129" on="1"/>
        <pt x="204" y="129" on="1"/>
        <pt x="204" y="228" on="1"/>
        <pt x="292" y="228" on="1"/>
      </contour>
    </TTGlyph>
    <TTGlyph name="divide.tab" xMin="43" yMin="129" xMax="444" yMax="555">
      <contour>
        <pt x="287" y="456" on="1"/>
        <pt x="199" y="456" on="1"/>
        <pt x="199" y="555" on="1"/>
        <pt x="287" y="555" on="1"/>
      </contour>
      <contour>
        <pt x="444" y="306" on="1"/>
        <pt x="43" y="306" on="1"/>
        <pt x="43" y="377" on="1"/>
        <pt x="444" y="377" on="1"/>
      </contour>
      <contour>
        <pt x="287" y="129" on="1"/>
        <pt x="199" y="129" on="1"/>
        <pt x="199" y="228" on="1"/>
        <pt x="287" y="228" on="1"/>
      </contour>
    </TTGlyph>
    <TTGlyph name="dollar" xMin="29" yMin="-124" xMax="436" yMax="763">
      <contour>
        <pt x="133" y="520" on="1"/>
        <pt x="133" y="483" on="0"/>
        <pt x="173" y="434" on="0"/>
        <pt x="224" y="407" on="1"/>
        <pt x="256" y="614" on="1"/>
        <pt x="253" y="614" on="0"/>
        <pt x="246" y="614" on="0"/>
        <pt x="243" y="614" on="1"/>
        <pt x="190" y="614" on="0"/>
        <pt x="133" y="563" on="0"/>
      </contour>
      <contour>
        <pt x="233" y="70" on="1"/>
        <pt x="293" y="70" on="0"/>
        <pt x="354" y="127" on="0"/>
        <pt x="354" y="176" on="1"/>
        <pt x="354" y="210" on="0"/>
        <pt x="320" y="265" on="0"/>
        <pt x="266" y="293" on="1"/>
        <pt x="232" y="70" on="1"/>
      </contour>
      <contour>
        <pt x="225" y="-4" on="1"/>
        <pt x="222" y="-4" on="1"/>
        <pt x="203" y="-124" on="1"/>
        <pt x="142" y="-111" on="1"/>
        <pt x="159" y="2" on="1"/>
        <pt x="119" y="9" on="0"/>
        <pt x="52" y="35" on="0"/>
        <pt x="29" y="49" on="1"/>
        <pt x="41" y="132" on="1"/>
        <pt x="69" y="113" on="0"/>
        <pt x="136" y="83" on="0"/>
        <pt x="173" y="76" on="1"/>
        <pt x="211" y="319" on="1"/>
        <pt x="130" y="359" on="0"/>
        <pt x="52" y="444" on="0"/>
        <pt x="52" y="513" on="1"/>
        <pt x="52" y="593" on="0"/>
        <pt x="162" y="687" on="0"/>
        <pt x="252" y="687" on="1"/>
        <pt x="256" y="687" on="0"/>
        <pt x="263" y="687" on="0"/>
        <pt x="266" y="687" on="1"/>
        <pt x="278" y="763" on="1"/>
        <pt x="339" y="749" on="1"/>
        <pt x="328" y="679" on="1"/>
        <pt x="354" y="674" on="0"/>
        <pt x="399" y="657" on="0"/>
        <pt x="417" y="647" on="1"/>
        <pt x="404" y="563" on="1"/>
        <pt x="385" y="576" on="0"/>
        <pt x="339" y="598" on="0"/>
        <pt x="314" y="605" on="1"/>
        <pt x="280" y="380" on="1"/>
        <pt x="360" y="341" on="0"/>
        <pt x="436" y="251" on="0"/>
        <pt x="436" y="183" on="1"/>
        <pt x="436" y="94" on="0"/>
        <pt x="320" y="-4" on="0"/>
      </contour>
    </TTGlyph>
    <TTGlyph name="dollar.tab" xMin="31" yMin="-124" xMax="447" yMax="763">
      <contour>
        <pt x="131" y="515" on="1"/>
        <pt x="131" y="479" on="0"/>
        <pt x="169" y="429" on="0"/>
        <pt x="227" y="404" on="1"/>
        <pt x="258" y="615" on="1"/>
        <pt x="254" y="615" on="0"/>
        <pt x="248" y="615" on="0"/>
        <pt x="244" y="615" on="1"/>
        <pt x="242" y="615" on="1"/>
        <pt x="190" y="615" on="0"/>
        <pt x="131" y="558" on="0"/>
      </contour>
      <contour>
        <pt x="240" y="69" on="1"/>
        <pt x="242" y="69" on="1"/>
        <pt x="301" y="69" on="0"/>
        <pt x="366" y="131" on="0"/>
        <pt x="366" y="181" on="1"/>
        <pt x="366" y="215" on="0"/>
        <pt x="329" y="274" on="0"/>
        <pt x="271" y="299" on="1"/>
        <pt x="237" y="69" on="1"/>
      </contour>
      <contour>
        <pt x="232" y="-4" on="1"/>
        <pt x="231" y="-4" on="0"/>
        <pt x="229" y="-4" on="0"/>
        <pt x="228" y="-4" on="1"/>
        <pt x="210" y="-124" on="1"/>
        <pt x="149" y="-110" on="1"/>
        <pt x="166" y="1" on="1"/>
        <pt x="128" y="7" on="0"/>
        <pt x="60" y="30" on="0"/>
        <pt x="31" y="45" on="1"/>
        <pt x="45" y="128" on="1"/>
        <pt x="82" y="107" on="0"/>
        <pt x="145" y="80" on="0"/>
        <pt x="179" y="74" on="1"/>
        <pt x="215" y="321" on="1"/>
        <pt x="132" y="354" on="0"/>
        <pt x="52" y="438" on="0"/>
        <pt x="52" y="508" on="1"/>
        <pt x="52" y="589" on="0"/>
        <pt x="160" y="687" on="0"/>
        <pt x="247" y="687" on="1"/>
        <pt x="252" y="687" on="0"/>
        <pt x="263" y="687" on="0"/>
        <pt x="268" y="687" on="1"/>
        <pt x="279" y="763" on="1"/>
        <pt x="339" y="749" on="1"/>
        <pt x="328" y="680" on="1"/>
        <pt x="359" y="674" on="0"/>
        <pt x="408" y="656" on="0"/>
        <pt x="428" y="647" on="1"/>
        <pt x="414" y="564" on="1"/>
        <pt x="391" y="577" on="0"/>
        <pt x="342" y="599" on="0"/>
        <pt x="315" y="606" on="1"/>
        <pt x="283" y="382" on="1"/>
        <pt x="372" y="346" on="0"/>
        <pt x="447" y="255" on="0"/>
        <pt x="447" y="186" on="1"/>
        <pt x="447" y="100" on="0"/>
        <pt x="333" y="-4" on="0"/>
      </contour>
    </TTGlyph>
    <TTGlyph name="dotaccent" xMin="157" yMin="547" xMax="250" yMax="646">
      <contour>
        <pt x="250" y="547" on="1"/>
        <pt x="157" y="547" on="1"/>
        <pt x="157" y="646" on="1"/>
        <pt x="250" y="646" on="1"/>
      </contour>
    </TTGlyph>
    <TTGlyph name="dotlessi" xMin="68" yMin="0" xMax="155" yMax="482">
      <contour>
        <pt x="155" y="0" on="1"/>
        <pt x="68" y="0" on="1"/>
        <pt x="68" y="482" on="1"/>
        <pt x="155" y="482" on="1"/>
      </contour>
    </TTGlyph>
    <TTGlyph name="e" xMin="35" yMin="-9" xMax="406" yMax="492">
      <contour>
        <pt x="224" y="422" on="1"/>
        <pt x="187" y="422" on="0"/>
        <pt x="133" y="354" on="0"/>
        <pt x="124" y="293" on="1"/>
        <pt x="319" y="293" on="1"/>
        <pt x="314" y="352" on="0"/>
        <pt x="268" y="422" on="0"/>
      </contour>
      <contour>
        <pt x="405" y="49" on="1"/>
        <pt x="373" y="24" on="0"/>
        <pt x="289" y="-9" on="0"/>
        <pt x="237" y="-9" on="1"/>
        <pt x="147" y="-9" on="0"/>
        <pt x="35" y="118" on="0"/>
        <pt x="35" y="243" on="1"/>
        <pt x="35" y="298" on="0"/>
        <pt x="62" y="390" on="0"/>
        <pt x="112" y="455" on="0"/>
        <pt x="182" y="492" on="0"/>
        <pt x="225" y="492" on="1"/>
        <pt x="273" y="492" on="0"/>
        <pt x="342" y="453" on="0"/>
        <pt x="386" y="387" on="0"/>
        <pt x="406" y="298" on="0"/>
        <pt x="406" y="248" on="1"/>
        <pt x="406" y="224" on="1"/>
        <pt x="121" y="224" on="1"/>
        <pt x="125" y="149" on="0"/>
        <pt x="188" y="67" on="0"/>
        <pt x="245" y="67" on="1"/>
        <pt x="285" y="67" on="0"/>
        <pt x="357" y="99" on="0"/>
        <pt x="392" y="127" on="1"/>
      </contour>
    </TTGlyph>
    <TTGlyph name="eacute" xMin="35" yMin="-9" xMax="406" yMax="692">
      <component glyphName="e" x="0" y="0" flags="0x204"/>
      <component glyphName="acute" x="79" y="3" flags="0x4"/>
    </TTGlyph>
    <TTGlyph name="ebreve" xMin="35" yMin="-9" xMax="406" yMax="671">
      <component glyphName="e" x="0" y="0" flags="0x204"/>
      <component glyphName="breve" x="27" y="3" flags="0x4"/>
    </TTGlyph>
    <TTGlyph name="ecaron" xMin="35" yMin="-9" xMax="406" yMax="684">
      <component glyphName="e" x="0" y="0" flags="0x204"/>
      <component glyphName="caron" x="27" y="3" flags="0x4"/>
    </TTGlyph>
    <TTGlyph name="ecircumflex" xMin="35" yMin="-9" xMax="406" yMax="685">
      <component glyphName="e" x="0" y="0" flags="0x204"/>
      <component glyphName="circumflex" x="28" y="3" flags="0x4"/>
    </TTGlyph>
    <TTGlyph name="edieresis" xMin="35" yMin="-9" xMax="406" yMax="649">
      <component glyphName="e" x="0" y="0" flags="0x204"/>
      <component glyphName="dieresis" x="27" y="3" flags="0x4"/>
    </TTGlyph>
    <TTGlyph name="edotaccent" xMin="35" yMin="-9" xMax="406" yMax="649">
      <component glyphName="e" x="0" y="0" flags="0x204"/>
      <component glyphName="dotaccent" x="27" y="3" flags="0x4"/>
    </TTGlyph>
    <TTGlyph name="egrave" xMin="35" yMin="-9" xMax="406" yMax="692">
      <component glyphName="e" x="0" y="0" flags="0x204"/>
      <component glyphName="grave" x="-25" y="3" flags="0x4"/>
    </TTGlyph>
    <TTGlyph name="eight" xMin="37" yMin="-13" xMax="473" yMax="696">
      <contour>
        <pt x="254" y="-13" on="1"/>
        <pt x="203" y="-13" on="0"/>
        <pt x="122" y="17" on="0"/>
        <pt x="66" y="68" on="0"/>
        <pt x="37" y="137" on="0"/>
        <pt x="37" y="176" on="1"/>
        <pt x="37" y="233" on="0"/>
        <pt x="107" y="327" on="0"/>
        <pt x="164" y="361" on="1"/>
        <pt x="115" y="389" on="0"/>
        <pt x="58" y="469" on="0"/>
        <pt x="58" y="526" on="1"/>
        <pt x="58" y="601" on="0"/>
        <pt x="171" y="696" on="0"/>
        <pt x="256" y="696" on="1"/>
        <pt x="345" y="696" on="0"/>
        <pt x="453" y="599" on="0"/>
        <pt x="453" y="524" on="1"/>
        <pt x="453" y="469" on="0"/>
        <pt x="390" y="389" on="0"/>
        <pt x="344" y="359" on="1"/>
        <pt x="401" y="329" on="0"/>
        <pt x="473" y="244" on="0"/>
        <pt x="473" y="174" on="1"/>
        <pt x="473" y="94" on="0"/>
        <pt x="353" y="-13" on="0"/>
      </contour>
      <contour>
        <pt x="143" y="528" on="1"/>
        <pt x="143" y="481" on="0"/>
        <pt x="209" y="421" on="0"/>
        <pt x="275" y="390" on="1"/>
        <pt x="315" y="416" on="0"/>
        <pt x="368" y="482" on="0"/>
        <pt x="368" y="521" on="1"/>
        <pt x="368" y="565" on="0"/>
        <pt x="305" y="624" on="0"/>
        <pt x="255" y="624" on="1"/>
        <pt x="205" y="624" on="0"/>
        <pt x="143" y="569" on="0"/>
      </contour>
      <contour>
        <pt x="255" y="60" on="1"/>
        <pt x="313" y="60" on="0"/>
        <pt x="386" y="125" on="0"/>
        <pt x="386" y="176" on="1"/>
        <pt x="386" y="229" on="0"/>
        <pt x="314" y="293" on="0"/>
        <pt x="233" y="328" on="1"/>
        <pt x="184" y="300" on="0"/>
        <pt x="124" y="223" on="0"/>
        <pt x="124" y="180" on="1"/>
        <pt x="124" y="127" on="0"/>
        <pt x="198" y="60" on="0"/>
      </contour>
    </TTGlyph>
    <TTGlyph name="eight.den" xMin="33" yMin="-10" xMax="291" yMax="359">
      <component glyphName="eight.num" x="0" y="-334" flags="0x4"/>
    </TTGlyph>
    <TTGlyph name="eight.inf" xMin="33" yMin="-160" xMax="291" yMax="209">
      <component glyphName="eight.num" x="0" y="-484" flags="0x4"/>
    </TTGlyph>
    <TTGlyph name="eight.num" xMin="33" yMin="324" xMax="291" yMax="693">
      <contour>
        <pt x="161" y="324" on="1"/>
        <pt x="100" y="324" on="0"/>
        <pt x="33" y="383" on="0"/>
        <pt x="33" y="423" on="1"/>
        <pt x="33" y="452" on="0"/>
        <pt x="66" y="499" on="0"/>
        <pt x="97" y="518" on="1"/>
        <pt x="68" y="534" on="0"/>
        <pt x="44" y="576" on="0"/>
        <pt x="44" y="599" on="1"/>
        <pt x="44" y="639" on="0"/>
        <pt x="111" y="693" on="0"/>
        <pt x="162" y="693" on="1"/>
        <pt x="213" y="693" on="0"/>
        <pt x="279" y="642" on="0"/>
        <pt x="279" y="603" on="1"/>
        <pt x="279" y="575" on="0"/>
        <pt x="248" y="533" on="0"/>
        <pt x="224" y="518" on="1"/>
        <pt x="260" y="501" on="0"/>
        <pt x="291" y="452" on="0"/>
        <pt x="291" y="424" on="1"/>
        <pt x="291" y="383" on="0"/>
        <pt x="220" y="324" on="0"/>
      </contour>
      <contour>
        <pt x="109" y="599" on="1"/>
        <pt x="109" y="580" on="0"/>
        <pt x="138" y="553" on="0"/>
        <pt x="178" y="537" on="1"/>
        <pt x="195" y="550" on="0"/>
        <pt x="214" y="580" on="0"/>
        <pt x="214" y="597" on="1"/>
        <pt x="214" y="618" on="0"/>
        <pt x="186" y="646" on="0"/>
        <pt x="161" y="646" on="1"/>
        <pt x="136" y="646" on="0"/>
        <pt x="109" y="618" on="0"/>
      </contour>
      <contour>
        <pt x="162" y="373" on="1"/>
        <pt x="190" y="373" on="0"/>
        <pt x="223" y="404" on="0"/>
        <pt x="223" y="426" on="1"/>
        <pt x="223" y="451" on="0"/>
        <pt x="187" y="483" on="0"/>
        <pt x="144" y="499" on="1"/>
        <pt x="121" y="483" on="0"/>
        <pt x="99" y="447" on="0"/>
        <pt x="99" y="429" on="1"/>
        <pt x="99" y="404" on="0"/>
        <pt x="134" y="373" on="0"/>
      </contour>
    </TTGlyph>
    <TTGlyph name="eight.sup" xMin="33" yMin="417" xMax="291" yMax="786">
      <component glyphName="eight.num" x="0" y="93" flags="0x4"/>
    </TTGlyph>
    <TTGlyph name="eight.tab" xMin="33" yMin="-10" xMax="450" yMax="697">
      <contour>
        <pt x="243" y="-10" on="1"/>
        <pt x="193" y="-10" on="0"/>
        <pt x="114" y="20" on="0"/>
        <pt x="61" y="72" on="0"/>
        <pt x="33" y="140" on="0"/>
        <pt x="33" y="177" on="1"/>
        <pt x="33" y="235" on="0"/>
        <pt x="96" y="329" on="0"/>
        <pt x="150" y="365" on="1"/>
        <pt x="105" y="393" on="0"/>
        <pt x="54" y="470" on="0"/>
        <pt x="54" y="524" on="1"/>
        <pt x="54" y="599" on="0"/>
        <pt x="160" y="697" on="0"/>
        <pt x="243" y="697" on="1"/>
        <pt x="326" y="697" on="0"/>
        <pt x="431" y="600" on="0"/>
        <pt x="431" y="525" on="1"/>
        <pt x="431" y="469" on="0"/>
        <pt x="372" y="386" on="0"/>
        <pt x="333" y="358" on="1"/>
        <pt x="392" y="325" on="0"/>
        <pt x="450" y="237" on="0"/>
        <pt x="450" y="176" on="1"/>
        <pt x="450" y="137" on="0"/>
        <pt x="421" y="69" on="0"/>
        <pt x="368" y="19" on="0"/>
        <pt x="291" y="-10" on="0"/>
      </contour>
      <contour>
        <pt x="138" y="524" on="1"/>
        <pt x="138" y="480" on="0"/>
        <pt x="196" y="423" on="0"/>
        <pt x="268" y="390" on="1"/>
        <pt x="307" y="417" on="0"/>
        <pt x="346" y="485" on="0"/>
        <pt x="346" y="523" on="1"/>
        <pt x="346" y="567" on="0"/>
        <pt x="291" y="624" on="0"/>
        <pt x="243" y="624" on="1"/>
        <pt x="194" y="624" on="0"/>
        <pt x="138" y="567" on="0"/>
      </contour>
      <contour>
        <pt x="243" y="64" on="1"/>
        <pt x="297" y="64" on="0"/>
        <pt x="364" y="129" on="0"/>
        <pt x="364" y="179" on="1"/>
        <pt x="364" y="231" on="0"/>
        <pt x="300" y="295" on="0"/>
        <pt x="215" y="333" on="1"/>
        <pt x="166" y="304" on="0"/>
        <pt x="119" y="226" on="0"/>
        <pt x="119" y="183" on="1"/>
        <pt x="119" y="129" on="0"/>
        <pt x="190" y="64" on="0"/>
      </contour>
    </TTGlyph>
    <TTGlyph name="ellipsis" xMin="54" yMin="0" xMax="562" yMax="119">
      <contour>
        <pt x="562" y="0" on="1"/>
        <pt x="466" y="0" on="1"/>
        <pt x="466" y="119" on="1"/>
        <pt x="562" y="119" on="1"/>
      </contour>
      <contour>
        <pt x="355" y="0" on="1"/>
        <pt x="260" y="0" on="1"/>
        <pt x="260" y="119" on="1"/>
        <pt x="355" y="119" on="1"/>
      </contour>
      <contour>
        <pt x="150" y="0" on="1"/>
        <pt x="54" y="0" on="1"/>
        <pt x="54" y="119" on="1"/>
        <pt x="150" y="119" on="1"/>
      </contour>
    </TTGlyph>
    <TTGlyph name="emacron" xMin="35" yMin="-9" xMax="406" yMax="636">
      <component glyphName="e" x="0" y="0" flags="0x204"/>
      <component glyphName="macron" x="27" y="3" flags="0x4"/>
    </TTGlyph>
    <TTGlyph name="emdash" xMin="43" yMin="246" xMax="751" yMax="327">
      <contour>
        <pt x="751" y="246" on="1"/>
        <pt x="43" y="246" on="1"/>
        <pt x="43" y="327" on="1"/>
        <pt x="751" y="327" on="1"/>
      </contour>
    </TTGlyph>
    <TTGlyph name="endash" xMin="43" yMin="246" xMax="359" yMax="328">
      <contour>
        <pt x="359" y="246" on="1"/>
        <pt x="43" y="246" on="1"/>
        <pt x="43" y="328" on="1"/>
        <pt x="359" y="328" on="1"/>
      </contour>
    </TTGlyph>
    <TTGlyph name="eogonek" xMin="35" yMin="-181" xMax="406" yMax="492">
      <contour>
        <pt x="320" y="-181" on="1"/>
        <pt x="284" y="-181" on="0"/>
        <pt x="243" y="-145" on="0"/>
        <pt x="243" y="-111" on="1"/>
        <pt x="243" y="-85" on="0"/>
        <pt x="270" y="-32" on="0"/>
        <pt x="295" y="-3" on="1"/>
        <pt x="282" y="-6" on="0"/>
        <pt x="253" y="-9" on="0"/>
        <pt x="238" y="-9" on="1"/>
        <pt x="147" y="-9" on="0"/>
        <pt x="35" y="118" on="0"/>
        <pt x="35" y="243" on="1"/>
        <pt x="35" y="298" on="0"/>
        <pt x="62" y="390" on="0"/>
        <pt x="112" y="455" on="0"/>
        <pt x="182" y="492" on="0"/>
        <pt x="225" y="492" on="1"/>
        <pt x="273" y="492" on="0"/>
        <pt x="342" y="453" on="0"/>
        <pt x="386" y="387" on="0"/>
        <pt x="406" y="298" on="0"/>
        <pt x="406" y="248" on="1"/>
        <pt x="406" y="224" on="1"/>
        <pt x="121" y="224" on="1"/>
        <pt x="124" y="148" on="0"/>
        <pt x="188" y="67" on="0"/>
        <pt x="245" y="67" on="1"/>
        <pt x="285" y="67" on="0"/>
        <pt x="357" y="99" on="0"/>
        <pt x="392" y="127" on="1"/>
        <pt x="404" y="56" on="1"/>
        <pt x="355" y="-7" on="1"/>
        <pt x="330" y="-38" on="0"/>
        <pt x="314" y="-75" on="0"/>
        <pt x="314" y="-90" on="1"/>
        <pt x="314" y="-105" on="0"/>
        <pt x="331" y="-119" on="0"/>
        <pt x="350" y="-119" on="1"/>
        <pt x="359" y="-119" on="0"/>
        <pt x="378" y="-116" on="0"/>
        <pt x="388" y="-115" on="1"/>
        <pt x="388" y="-167" on="1"/>
        <pt x="373" y="-173" on="0"/>
        <pt x="337" y="-181" on="0"/>
      </contour>
      <contour>
        <pt x="124" y="293" on="1"/>
        <pt x="319" y="293" on="1"/>
        <pt x="314" y="352" on="0"/>
        <pt x="268" y="422" on="0"/>
        <pt x="224" y="422" on="1"/>
        <pt x="187" y="422" on="0"/>
        <pt x="133" y="354" on="0"/>
      </contour>
    </TTGlyph>
    <TTGlyph name="equal" xMin="60" yMin="208" xMax="446" yMax="476">
      <contour>
        <pt x="446" y="401" on="1"/>
        <pt x="60" y="401" on="1"/>
        <pt x="60" y="476" on="1"/>
        <pt x="446" y="476" on="1"/>
      </contour>
      <contour>
        <pt x="446" y="208" on="1"/>
        <pt x="60" y="208" on="1"/>
        <pt x="60" y="283" on="1"/>
        <pt x="446" y="283" on="1"/>
      </contour>
    </TTGlyph>
    <TTGlyph name="equal.tab" xMin="51" yMin="208" xMax="436" yMax="476">
      <contour>
        <pt x="436" y="401" on="1"/>
        <pt x="51" y="401" on="1"/>
        <pt x="51" y="476" on="1"/>
        <pt x="436" y="476" on="1"/>
      </contour>
      <contour>
        <pt x="436" y="208" on="1"/>
        <pt x="51" y="208" on="1"/>
        <pt x="51" y="283" on="1"/>
        <pt x="436" y="283" on="1"/>
      </contour>
    </TTGlyph>
    <TTGlyph name="eth" xMin="36" yMin="-10" xMax="443" yMax="722">
      <contour>
        <pt x="234" y="-10" on="1"/>
        <pt x="149" y="-10" on="0"/>
        <pt x="36" y="108" on="0"/>
        <pt x="36" y="212" on="1"/>
        <pt x="36" y="262" on="0"/>
        <pt x="64" y="350" on="0"/>
        <pt x="114" y="413" on="0"/>
        <pt x="187" y="449" on="0"/>
        <pt x="232" y="449" on="1"/>
        <pt x="267" y="449" on="0"/>
        <pt x="325" y="429" on="0"/>
        <pt x="347" y="413" on="1"/>
        <pt x="338" y="457" on="0"/>
        <pt x="302" y="530" on="0"/>
        <pt x="276" y="558" on="1"/>
        <pt x="241" y="507" on="1"/>
        <pt x="165" y="507" on="1"/>
        <pt x="226" y="600" on="1"/>
        <pt x="204" y="615" on="0"/>
        <pt x="153" y="639" on="0"/>
        <pt x="125" y="649" on="1"/>
        <pt x="137" y="722" on="1"/>
        <pt x="173" y="712" on="0"/>
        <pt x="240" y="684" on="0"/>
        <pt x="269" y="665" on="1"/>
        <pt x="307" y="722" on="1"/>
        <pt x="380" y="708" on="1"/>
        <pt x="321" y="624" on="1"/>
        <pt x="378" y="570" on="0"/>
        <pt x="443" y="407" on="0"/>
        <pt x="443" y="295" on="1"/>
        <pt x="443" y="203" on="0"/>
        <pt x="399" y="78" on="0"/>
        <pt x="365" y="43" on="1"/>
        <pt x="340" y="18" on="0"/>
        <pt x="276" y="-10" on="0"/>
      </contour>
      <contour>
        <pt x="238" y="64" on="1"/>
        <pt x="289" y="64" on="0"/>
        <pt x="358" y="179" on="0"/>
        <pt x="358" y="292" on="1"/>
        <pt x="358" y="301" on="0"/>
        <pt x="356" y="325" on="0"/>
        <pt x="356" y="332" on="1"/>
        <pt x="331" y="353" on="0"/>
        <pt x="275" y="376" on="0"/>
        <pt x="244" y="376" on="1"/>
        <pt x="187" y="376" on="0"/>
        <pt x="123" y="288" on="0"/>
        <pt x="123" y="217" on="1"/>
        <pt x="123" y="148" on="0"/>
        <pt x="186" y="64" on="0"/>
      </contour>
    </TTGlyph>
    <TTGlyph name="exclam" xMin="72" yMin="0" xMax="176" yMax="690">
      <contour>
        <pt x="176" y="690" on="1"/>
        <pt x="151" y="218" on="1"/>
        <pt x="96" y="205" on="1"/>
        <pt x="72" y="690" on="1"/>
      </contour>
      <contour>
        <pt x="172" y="0" on="1"/>
        <pt x="76" y="0" on="1"/>
        <pt x="76" y="119" on="1"/>
        <pt x="172" y="119" on="1"/>
      </contour>
    </TTGlyph>
    <TTGlyph name="exclam.flat" xMin="72" yMin="0" xMax="176" yMax="690">
      <contour>
        <pt x="176" y="690" on="1"/>
        <pt x="151" y="212" on="1"/>
        <pt x="97" y="212" on="1"/>
        <pt x="72" y="690" on="1"/>
      </contour>
      <contour>
        <pt x="172" y="0" on="1"/>
        <pt x="76" y="0" on="1"/>
        <pt x="76" y="119" on="1"/>
        <pt x="172" y="119" on="1"/>
      </contour>
    </TTGlyph>
    <TTGlyph name="exclamdown" xMin="72" yMin="0" xMax="176" yMax="690">
      <contour>
        <pt x="172" y="571" on="1"/>
        <pt x="76" y="571" on="1"/>
        <pt x="76" y="690" on="1"/>
        <pt x="172" y="690" on="1"/>
      </contour>
      <contour>
        <pt x="176" y="0" on="1"/>
        <pt x="72" y="0" on="1"/>
        <pt x="96" y="473" on="1"/>
        <pt x="151" y="485" on="1"/>
      </contour>
    </TTGlyph>
    <TTGlyph name="exclamdown.flat" xMin="72" yMin="0" xMax="176" yMax="690">
      <contour>
        <pt x="76" y="690" on="1"/>
        <pt x="172" y="690" on="1"/>
        <pt x="172" y="571" on="1"/>
        <pt x="76" y="571" on="1"/>
      </contour>
      <contour>
        <pt x="72" y="0" on="1"/>
        <pt x="97" y="479" on="1"/>
        <pt x="151" y="479" on="1"/>
        <pt x="176" y="0" on="1"/>
      </contour>
    </TTGlyph>
    <TTGlyph name="f" xMin="21" yMin="0" xMax="277" yMax="715">
      <contour>
        <pt x="277" y="633" on="1"/>
        <pt x="270" y="634" on="0"/>
        <pt x="246" y="637" on="0"/>
        <pt x="233" y="637" on="1"/>
        <pt x="205" y="637" on="0"/>
        <pt x="174" y="608" on="0"/>
        <pt x="174" y="575" on="1"/>
        <pt x="174" y="482" on="1"/>
        <pt x="260" y="482" on="1"/>
        <pt x="272" y="408" on="1"/>
        <pt x="174" y="408" on="1"/>
        <pt x="174" y="0" on="1"/>
        <pt x="89" y="0" on="1"/>
        <pt x="89" y="408" on="1"/>
        <pt x="21" y="408" on="1"/>
        <pt x="21" y="482" on="1"/>
        <pt x="89" y="482" on="1"/>
        <pt x="89" y="584" on="1"/>
        <pt x="89" y="655" on="0"/>
        <pt x="168" y="715" on="0"/>
        <pt x="227" y="715" on="1"/>
        <pt x="238" y="715" on="0"/>
        <pt x="257" y="713" on="0"/>
        <pt x="264" y="712" on="1"/>
      </contour>
    </TTGlyph>
    <TTGlyph name="f.flat" xMin="21" yMin="0" xMax="277" yMax="715">
      <contour>
        <pt x="277" y="633" on="1"/>
        <pt x="270" y="634" on="0"/>
        <pt x="246" y="637" on="0"/>
        <pt x="233" y="637" on="1"/>
        <pt x="205" y="637" on="0"/>
        <pt x="174" y="608" on="0"/>
        <pt x="174" y="575" on="1"/>
        <pt x="174" y="482" on="1"/>
        <pt x="266" y="482" on="1"/>
        <pt x="266" y="408" on="1"/>
        <pt x="174" y="408" on="1"/>
        <pt x="174" y="0" on="1"/>
        <pt x="89" y="0" on="1"/>
        <pt x="89" y="408" on="1"/>
        <pt x="21" y="408" on="1"/>
        <pt x="21" y="482" on="1"/>
        <pt x="89" y="482" on="1"/>
        <pt x="89" y="584" on="1"/>
        <pt x="89" y="655" on="0"/>
        <pt x="168" y="715" on="0"/>
        <pt x="227" y="715" on="1"/>
        <pt x="238" y="715" on="0"/>
        <pt x="257" y="713" on="0"/>
        <pt x="264" y="712" on="1"/>
      </contour>
    </TTGlyph>
    <TTGlyph name="f_f" xMin="21" yMin="0" xMax="563" yMax="715">
      <component glyphName="f" x="0" y="0" flags="0x4"/>
      <component glyphName="f" x="286" y="0" flags="0x4"/>
    </TTGlyph>
    <TTGlyph name="f_f.flat" xMin="21" yMin="0" xMax="560" yMax="715">
      <component glyphName="f.flat" x="0" y="0" flags="0x4"/>
      <component glyphName="f.flat" x="283" y="0" flags="0x4"/>
    </TTGlyph>
    <TTGlyph name="f_f_i" xMin="21" yMin="0" xMax="738" yMax="715">
      <component glyphName="f" x="0" y="0" flags="0x4"/>
      <component glyphName="f" x="286" y="0" flags="0x4"/>
      <component glyphName="i" x="572" y="0" flags="0x4"/>
    </TTGlyph>
    <TTGlyph name="f_f_i.flat" xMin="21" yMin="0" xMax="731" yMax="715">
      <component glyphName="f.flat" x="0" y="0" flags="0x4"/>
      <component glyphName="f.flat" x="283" y="0" flags="0x4"/>
      <component glyphName="i" x="565" y="0" flags="0x4"/>
    </TTGlyph>
    <TTGlyph name="f_f_l" xMin="21" yMin="0" xMax="727" yMax="722">
      <component glyphName="f" x="0" y="0" flags="0x4"/>
      <component glyphName="f" x="286" y="0" flags="0x4"/>
      <component glyphName="l" x="572" y="0" flags="0x4"/>
    </TTGlyph>
    <TTGlyph name="f_f_l.flat" xMin="21" yMin="0" xMax="720" yMax="722">
      <component glyphName="f.flat" x="0" y="0" flags="0x4"/>
      <component glyphName="f.flat" x="283" y="0" flags="0x4"/>
      <component glyphName="l" x="565" y="0" flags="0x4"/>
    </TTGlyph>
    <TTGlyph name="fi" xMin="21" yMin="0" xMax="452" yMax="715">
      <component glyphName="f" x="0" y="0" flags="0x4"/>
      <component glyphName="i" x="286" y="0" flags="0x4"/>
    </TTGlyph>
    <TTGlyph name="fi.flat" xMin="21" yMin="0" xMax="449" yMax="715">
      <component glyphName="f.flat" x="0" y="0" flags="0x4"/>
      <component glyphName="i" x="283" y="0" flags="0x4"/>
    </TTGlyph>
    <TTGlyph name="five" xMin="33" yMin="-12" xMax="439" yMax="683">
      <contour>
        <pt x="439" y="214" on="1"/>
        <pt x="439" y="160" on="0"/>
        <pt x="403" y="75" on="0"/>
        <pt x="341" y="18" on="0"/>
        <pt x="256" y="-12" on="0"/>
        <pt x="208" y="-12" on="1"/>
        <pt x="153" y="-12" on="0"/>
        <pt x="67" y="15" on="0"/>
        <pt x="33" y="37" on="1"/>
        <pt x="47" y="121" on="1"/>
        <pt x="83" y="96" on="0"/>
        <pt x="164" y="67" on="0"/>
        <pt x="210" y="67" on="1"/>
        <pt x="267" y="67" on="0"/>
        <pt x="351" y="139" on="0"/>
        <pt x="351" y="210" on="1"/>
        <pt x="351" y="271" on="0"/>
        <pt x="284" y="338" on="0"/>
        <pt x="228" y="338" on="1"/>
        <pt x="194" y="338" on="0"/>
        <pt x="146" y="322" on="0"/>
        <pt x="124" y="312" on="1"/>
        <pt x="60" y="328" on="1"/>
        <pt x="86" y="683" on="1"/>
        <pt x="406" y="683" on="1"/>
        <pt x="417" y="602" on="1"/>
        <pt x="160" y="602" on="1"/>
        <pt x="144" y="398" on="1"/>
        <pt x="163" y="405" on="0"/>
        <pt x="209" y="416" on="0"/>
        <pt x="240" y="416" on="1"/>
        <pt x="327" y="416" on="0"/>
        <pt x="439" y="309" on="0"/>
      </contour>
    </TTGlyph>
    <TTGlyph name="five.den" xMin="39" yMin="-8" xMax="283" yMax="349">
      <component glyphName="five.num" x="0" y="-334" flags="0x4"/>
    </TTGlyph>
    <TTGlyph name="five.den_flat" xMin="39" yMin="-8" xMax="283" yMax="349">
      <component glyphName="five.num_flat" x="0" y="-334" flags="0x4"/>
    </TTGlyph>
    <TTGlyph name="five.flat" xMin="33" yMin="-12" xMax="439" yMax="683">
      <contour>
        <pt x="439" y="214" on="1"/>
        <pt x="439" y="160" on="0"/>
        <pt x="403" y="75" on="0"/>
        <pt x="341" y="18" on="0"/>
        <pt x="256" y="-12" on="0"/>
        <pt x="208" y="-12" on="1"/>
        <pt x="153" y="-12" on="0"/>
        <pt x="67" y="15" on="0"/>
        <pt x="33" y="37" on="1"/>
        <pt x="47" y="121" on="1"/>
        <pt x="83" y="96" on="0"/>
        <pt x="164" y="67" on="0"/>
        <pt x="210" y="67" on="1"/>
        <pt x="267" y="67" on="0"/>
        <pt x="351" y="139" on="0"/>
        <pt x="351" y="210" on="1"/>
        <pt x="351" y="271" on="0"/>
        <pt x="284" y="338" on="0"/>
        <pt x="228" y="338" on="1"/>
        <pt x="194" y="338" on="0"/>
        <pt x="146" y="322" on="0"/>
        <pt x="124" y="312" on="1"/>
        <pt x="60" y="328" on="1"/>
        <pt x="86" y="683" on="1"/>
        <pt x="411" y="683" on="1"/>
        <pt x="411" y="602" on="1"/>
        <pt x="160" y="602" on="1"/>
        <pt x="144" y="398" on="1"/>
        <pt x="163" y="405" on="0"/>
        <pt x="209" y="416" on="0"/>
        <pt x="240" y="416" on="1"/>
        <pt x="327" y="416" on="0"/>
        <pt x="439" y="309" on="0"/>
      </contour>
    </TTGlyph>
    <TTGlyph name="five.inf" xMin="39" yMin="-158" xMax="283" yMax="199">
      <component glyphName="five.num" x="0" y="-484" flags="0x4"/>
    </TTGlyph>
    <TTGlyph name="five.inf_flat" xMin="39" yMin="-158" xMax="283" yMax="199">
      <component glyphName="five.num_flat" x="0" y="-484" flags="0x4"/>
    </TTGlyph>
    <TTGlyph name="five.num" xMin="39" yMin="326" xMax="283" yMax="683">
      <contour>
        <pt x="283" y="448" on="1"/>
        <pt x="283" y="391" on="0"/>
        <pt x="206" y="326" on="0"/>
        <pt x="146" y="326" on="1"/>
        <pt x="115" y="326" on="0"/>
        <pt x="61" y="339" on="0"/>
        <pt x="39" y="349" on="1"/>
        <pt x="50" y="408" on="1"/>
        <pt x="71" y="398" on="0"/>
        <pt x="120" y="385" on="0"/>
        <pt x="143" y="385" on="1"/>
        <pt x="171" y="385" on="0"/>
        <pt x="212" y="414" on="0"/>
        <pt x="212" y="443" on="1"/>
        <pt x="212" y="470" on="0"/>
        <pt x="180" y="496" on="0"/>
        <pt x="154" y="496" on="1"/>
        <pt x="138" y="496" on="0"/>
        <pt x="111" y="487" on="0"/>
        <pt x="101" y="482" on="1"/>
        <pt x="53" y="493" on="1"/>
        <pt x="69" y="683" on="1"/>
        <pt x="264" y="683" on="1"/>
        <pt x="274" y="622" on="1"/>
        <pt x="124" y="622" on="1"/>
        <pt x="117" y="541" on="1"/>
        <pt x="126" y="544" on="0"/>
        <pt x="153" y="552" on="0"/>
        <pt x="175" y="552" on="1"/>
        <pt x="219" y="552" on="0"/>
        <pt x="283" y="499" on="0"/>
      </contour>
    </TTGlyph>
    <TTGlyph name="five.num_flat" xMin="39" yMin="326" xMax="283" yMax="683">
      <contour>
        <pt x="283" y="448" on="1"/>
        <pt x="283" y="391" on="0"/>
        <pt x="206" y="326" on="0"/>
        <pt x="146" y="326" on="1"/>
        <pt x="115" y="326" on="0"/>
        <pt x="61" y="339" on="0"/>
        <pt x="39" y="349" on="1"/>
        <pt x="50" y="408" on="1"/>
        <pt x="71" y="398" on="0"/>
        <pt x="120" y="385" on="0"/>
        <pt x="143" y="385" on="1"/>
        <pt x="171" y="385" on="0"/>
        <pt x="212" y="414" on="0"/>
        <pt x="212" y="443" on="1"/>
        <pt x="212" y="470" on="0"/>
        <pt x="180" y="496" on="0"/>
        <pt x="154" y="496" on="1"/>
        <pt x="138" y="496" on="0"/>
        <pt x="111" y="487" on="0"/>
        <pt x="101" y="482" on="1"/>
        <pt x="53" y="493" on="1"/>
        <pt x="69" y="683" on="1"/>
        <pt x="270" y="683" on="1"/>
        <pt x="270" y="622" on="1"/>
        <pt x="124" y="622" on="1"/>
        <pt x="117" y="541" on="1"/>
        <pt x="126" y="544" on="0"/>
        <pt x="153" y="552" on="0"/>
        <pt x="175" y="552" on="1"/>
        <pt x="219" y="552" on="0"/>
        <pt x="283" y="499" on="0"/>
      </contour>
    </TTGlyph>
    <TTGlyph name="five.sup" xMin="39" yMin="419" xMax="283" yMax="776">
      <component glyphName="five.num" x="0" y="93" flags="0x4"/>
    </TTGlyph>
    <TTGlyph name="five.sup_flat" xMin="39" yMin="419" xMax="283" yMax="776">
      <component glyphName="five.num_flat" x="0" y="93" flags="0x4"/>
    </TTGlyph>
    <TTGlyph name="five.tab" xMin="40" yMin="-9" xMax="438" yMax="683">
      <contour>
        <pt x="438" y="216" on="1"/>
        <pt x="438" y="115" on="0"/>
        <pt x="310" y="-9" on="0"/>
        <pt x="209" y="-9" on="1"/>
        <pt x="158" y="-9" on="0"/>
        <pt x="71" y="18" on="0"/>
        <pt x="40" y="39" on="1"/>
        <pt x="54" y="123" on="1"/>
        <pt x="88" y="98" on="0"/>
        <pt x="167" y="70" on="0"/>
        <pt x="210" y="70" on="1"/>
        <pt x="269" y="70" on="0"/>
        <pt x="351" y="147" on="0"/>
        <pt x="351" y="213" on="1"/>
        <pt x="351" y="275" on="0"/>
        <pt x="285" y="338" on="0"/>
        <pt x="231" y="338" on="1"/>
        <pt x="203" y="338" on="0"/>
        <pt x="147" y="322" on="0"/>
        <pt x="126" y="312" on="1"/>
        <pt x="69" y="327" on="1"/>
        <pt x="96" y="683" on="1"/>
        <pt x="407" y="683" on="1"/>
        <pt x="418" y="603" on="1"/>
        <pt x="169" y="603" on="1"/>
        <pt x="153" y="400" on="1"/>
        <pt x="169" y="407" on="0"/>
        <pt x="217" y="417" on="0"/>
        <pt x="242" y="417" on="1"/>
        <pt x="332" y="417" on="0"/>
        <pt x="438" y="310" on="0"/>
      </contour>
    </TTGlyph>
    <TTGlyph name="five.tab_flat" xMin="40" yMin="-9" xMax="438" yMax="683">
      <contour>
        <pt x="438" y="216" on="1"/>
        <pt x="438" y="115" on="0"/>
        <pt x="310" y="-9" on="0"/>
        <pt x="209" y="-9" on="1"/>
        <pt x="158" y="-9" on="0"/>
        <pt x="71" y="18" on="0"/>
        <pt x="40" y="39" on="1"/>
        <pt x="54" y="123" on="1"/>
        <pt x="88" y="98" on="0"/>
        <pt x="167" y="70" on="0"/>
        <pt x="210" y="70" on="1"/>
        <pt x="269" y="70" on="0"/>
        <pt x="351" y="147" on="0"/>
        <pt x="351" y="213" on="1"/>
        <pt x="351" y="275" on="0"/>
        <pt x="285" y="338" on="0"/>
        <pt x="231" y="338" on="1"/>
        <pt x="203" y="338" on="0"/>
        <pt x="147" y="322" on="0"/>
        <pt x="126" y="312" on="1"/>
        <pt x="69" y="327" on="1"/>
        <pt x="96" y="683" on="1"/>
        <pt x="412" y="683" on="1"/>
        <pt x="412" y="603" on="1"/>
        <pt x="169" y="603" on="1"/>
        <pt x="153" y="400" on="1"/>
        <pt x="169" y="407" on="0"/>
        <pt x="217" y="417" on="0"/>
        <pt x="242" y="417" on="1"/>
        <pt x="332" y="417" on="0"/>
        <pt x="438" y="310" on="0"/>
      </contour>
    </TTGlyph>
    <TTGlyph name="fiveeighths" xMin="40" yMin="-10" xMax="694" yMax="690">
      <component glyphName="eight.num" x="403" y="-334" flags="0x4"/>
      <component glyphName="fraction" x="243" y="0" flags="0x4"/>
      <component glyphName="five.num" x="1" y="0" flags="0x4"/>
    </TTGlyph>
    <TTGlyph name="fiveeighths.flat" xMin="40" yMin="-10" xMax="694" yMax="690">
      <component glyphName="eight.num" x="403" y="-334" flags="0x4"/>
      <component glyphName="fraction" x="243" y="0" flags="0x4"/>
      <component glyphName="five.num_flat" x="1" y="0" flags="0x4"/>
    </TTGlyph>
    <TTGlyph name="fivesixths" xMin="40" yMin="-10" xMax="688" yMax="690">
      <component glyphName="six.num" x="397" y="-334" flags="0x4"/>
      <component glyphName="fraction" x="250" y="0" flags="0x4"/>
      <component glyphName="five.num" x="1" y="0" flags="0x4"/>
    </TTGlyph>
    <TTGlyph name="fivesixths.flat" xMin="40" yMin="-10" xMax="688" yMax="690">
      <component glyphName="six.num" x="397" y="-334" flags="0x4"/>
      <component glyphName="fraction" x="250" y="0" flags="0x4"/>
      <component glyphName="five.num_flat" x="1" y="0" flags="0x4"/>
    </TTGlyph>
    <TTGlyph name="fl" xMin="21" yMin="0" xMax="441" yMax="722">
      <component glyphName="f" x="0" y="0" flags="0x4"/>
      <component glyphName="l" x="286" y="0" flags="0x4"/>
    </TTGlyph>
    <TTGlyph name="fl.flat" xMin="21" yMin="0" xMax="438" yMax="722">
      <component glyphName="f.flat" x="0" y="0" flags="0x4"/>
      <component glyphName="l" x="283" y="0" flags="0x4"/>
    </TTGlyph>
    <TTGlyph name="florin" xMin="47" yMin="0" xMax="346" yMax="690">
      <contour>
        <pt x="306" y="383" on="1"/>
        <pt x="201" y="383" on="1"/>
        <pt x="140" y="0" on="1"/>
        <pt x="55" y="0" on="1"/>
        <pt x="116" y="383" on="1"/>
        <pt x="47" y="383" on="1"/>
        <pt x="59" y="456" on="1"/>
        <pt x="128" y="456" on="1"/>
        <pt x="143" y="555" on="1"/>
        <pt x="154" y="625" on="0"/>
        <pt x="227" y="690" on="0"/>
        <pt x="297" y="690" on="1"/>
        <pt x="313" y="690" on="0"/>
        <pt x="338" y="688" on="0"/>
        <pt x="346" y="687" on="1"/>
        <pt x="346" y="608" on="1"/>
        <pt x="338" y="609" on="0"/>
        <pt x="312" y="613" on="0"/>
        <pt x="299" y="613" on="1"/>
        <pt x="266" y="613" on="0"/>
        <pt x="233" y="578" on="0"/>
        <pt x="226" y="540" on="1"/>
        <pt x="213" y="456" on="1"/>
        <pt x="306" y="456" on="1"/>
      </contour>
    </TTGlyph>
    <TTGlyph name="four" xMin="27" yMin="0" xMax="504" yMax="684">
      <contour>
        <pt x="327" y="0" on="1"/>
        <pt x="327" y="156" on="1"/>
        <pt x="27" y="156" on="1"/>
        <pt x="27" y="221" on="1"/>
        <pt x="303" y="684" on="1"/>
        <pt x="407" y="684" on="1"/>
        <pt x="407" y="229" on="1"/>
        <pt x="504" y="229" on="1"/>
        <pt x="504" y="156" on="1"/>
        <pt x="407" y="156" on="1"/>
        <pt x="407" y="0" on="1"/>
      </contour>
      <contour>
        <pt x="327" y="229" on="1"/>
        <pt x="327" y="579" on="1"/>
        <pt x="117" y="229" on="1"/>
      </contour>
    </TTGlyph>
    <TTGlyph name="four.alt" xMin="27" yMin="0" xMax="501" yMax="688">
      <contour>
        <pt x="322" y="0" on="1"/>
        <pt x="322" y="155" on="1"/>
        <pt x="27" y="155" on="1"/>
        <pt x="27" y="220" on="1"/>
        <pt x="301" y="688" on="1"/>
        <pt x="384" y="668" on="1"/>
        <pt x="123" y="230" on="1"/>
        <pt x="322" y="230" on="1"/>
        <pt x="322" y="405" on="1"/>
        <pt x="404" y="424" on="1"/>
        <pt x="404" y="230" on="1"/>
        <pt x="501" y="230" on="1"/>
        <pt x="501" y="155" on="1"/>
        <pt x="404" y="155" on="1"/>
        <pt x="404" y="0" on="1"/>
      </contour>
    </TTGlyph>
    <TTGlyph name="four.alt_flat" xMin="27" yMin="0" xMax="501" yMax="683">
      <contour>
        <pt x="322" y="0" on="1"/>
        <pt x="322" y="155" on="1"/>
        <pt x="27" y="155" on="1"/>
        <pt x="27" y="220" on="1"/>
        <pt x="298" y="683" on="1"/>
        <pt x="394" y="683" on="1"/>
        <pt x="123" y="230" on="1"/>
        <pt x="322" y="230" on="1"/>
        <pt x="322" y="414" on="1"/>
        <pt x="404" y="414" on="1"/>
        <pt x="404" y="230" on="1"/>
        <pt x="501" y="230" on="1"/>
        <pt x="501" y="155" on="1"/>
        <pt x="404" y="155" on="1"/>
        <pt x="404" y="0" on="1"/>
      </contour>
    </TTGlyph>
    <TTGlyph name="four.den" xMin="24" yMin="-3" xMax="304" yMax="353">
      <component glyphName="four.num" x="0" y="-334" flags="0x4"/>
    </TTGlyph>
    <TTGlyph name="four.inf" xMin="24" yMin="-153" xMax="304" yMax="203">
      <component glyphName="four.num" x="0" y="-484" flags="0x4"/>
    </TTGlyph>
    <TTGlyph name="four.num" xMin="24" yMin="331" xMax="304" yMax="687">
      <contour>
        <pt x="304" y="406" on="1"/>
        <pt x="255" y="406" on="1"/>
        <pt x="255" y="331" on="1"/>
        <pt x="193" y="331" on="1"/>
        <pt x="193" y="406" on="1"/>
        <pt x="24" y="406" on="1"/>
        <pt x="24" y="453" on="1"/>
        <pt x="162" y="687" on="1"/>
        <pt x="255" y="687" on="1"/>
        <pt x="255" y="456" on="1"/>
        <pt x="304" y="456" on="1"/>
      </contour>
      <contour>
        <pt x="195" y="457" on="1"/>
        <pt x="195" y="537" on="1"/>
        <pt x="198" y="638" on="1"/>
        <pt x="190" y="638" on="1"/>
        <pt x="158" y="575" on="1"/>
        <pt x="119" y="507" on="1"/>
        <pt x="89" y="458" on="1"/>
        <pt x="91" y="454" on="1"/>
        <pt x="141" y="457" on="1"/>
      </contour>
    </TTGlyph>
    <TTGlyph name="four.sup" xMin="24" yMin="424" xMax="304" yMax="780">
      <component glyphName="four.num" x="0" y="93" flags="0x4"/>
    </TTGlyph>
    <TTGlyph name="four.tab" xMin="27" yMin="0" xMax="470" yMax="686">
      <contour>
        <pt x="470" y="157" on="1"/>
        <pt x="385" y="157" on="1"/>
        <pt x="385" y="0" on="1"/>
        <pt x="305" y="0" on="1"/>
        <pt x="305" y="157" on="1"/>
        <pt x="27" y="157" on="1"/>
        <pt x="27" y="220" on="1"/>
        <pt x="278" y="686" on="1"/>
        <pt x="385" y="686" on="1"/>
        <pt x="385" y="229" on="1"/>
        <pt x="470" y="229" on="1"/>
      </contour>
      <contour>
        <pt x="306" y="229" on="1"/>
        <pt x="306" y="447" on="1"/>
        <pt x="308" y="590" on="1"/>
        <pt x="304" y="590" on="1"/>
        <pt x="239" y="461" on="1"/>
        <pt x="114" y="229" on="1"/>
      </contour>
    </TTGlyph>
    <TTGlyph name="fourfifths" xMin="25" yMin="-9" xMax="686" yMax="690">
      <component glyphName="four.num" x="1" y="0" flags="0x4"/>
      <component glyphName="five.num" x="403" y="-334" flags="0x4"/>
      <component glyphName="fraction" x="251" y="0" flags="0x4"/>
    </TTGlyph>
    <TTGlyph name="fourfifths.flat" xMin="25" yMin="-9" xMax="686" yMax="690">
      <component glyphName="four.num" x="1" y="0" flags="0x4"/>
      <component glyphName="five.num_flat" x="403" y="-334" flags="0x4"/>
      <component glyphName="fraction" x="251" y="0" flags="0x4"/>
    </TTGlyph>
    <TTGlyph name="fraction" xMin="-88" yMin="-9" xMax="331" yMax="690">
      <contour>
        <pt x="-26" y="-9" on="1"/>
        <pt x="-88" y="8" on="1"/>
        <pt x="98" y="351" on="1"/>
        <pt x="269" y="690" on="1"/>
        <pt x="331" y="674" on="1"/>
        <pt x="146" y="332" on="1"/>
      </contour>
    </TTGlyph>
    <TTGlyph name="g" xMin="8" yMin="-182" xMax="445" yMax="492">
      <contour>
        <pt x="293" y="325" on="1"/>
        <pt x="293" y="368" on="0"/>
        <pt x="245" y="427" on="0"/>
        <pt x="207" y="427" on="1"/>
        <pt x="167" y="427" on="0"/>
        <pt x="122" y="367" on="0"/>
        <pt x="122" y="323" on="1"/>
        <pt x="122" y="281" on="0"/>
        <pt x="168" y="224" on="0"/>
        <pt x="207" y="224" on="1"/>
        <pt x="247" y="224" on="0"/>
        <pt x="293" y="282" on="0"/>
      </contour>
      <contour>
        <pt x="429" y="-35" on="1"/>
        <pt x="429" y="-70" on="0"/>
        <pt x="394" y="-126" on="0"/>
        <pt x="335" y="-163" on="0"/>
        <pt x="257" y="-182" on="0"/>
        <pt x="213" y="-182" on="1"/>
        <pt x="172" y="-182" on="0"/>
        <pt x="97" y="-167" on="0"/>
        <pt x="41" y="-136" on="0"/>
        <pt x="8" y="-89" on="0"/>
        <pt x="8" y="-57" on="1"/>
        <pt x="8" y="-21" on="0"/>
        <pt x="58" y="42" on="0"/>
        <pt x="105" y="67" on="1"/>
        <pt x="89" y="78" on="0"/>
        <pt x="75" y="103" on="0"/>
        <pt x="75" y="118" on="1"/>
        <pt x="75" y="134" on="0"/>
        <pt x="96" y="165" on="0"/>
        <pt x="118" y="182" on="1"/>
        <pt x="82" y="202" on="0"/>
        <pt x="37" y="276" on="0"/>
        <pt x="37" y="325" on="1"/>
        <pt x="37" y="363" on="0"/>
        <pt x="65" y="425" on="0"/>
        <pt x="111" y="468" on="0"/>
        <pt x="173" y="492" on="0"/>
        <pt x="207" y="492" on="1"/>
        <pt x="239" y="492" on="0"/>
        <pt x="298" y="471" on="0"/>
        <pt x="320" y="451" on="1"/>
        <pt x="431" y="491" on="1"/>
        <pt x="445" y="409" on="1"/>
        <pt x="360" y="401" on="1"/>
        <pt x="368" y="385" on="0"/>
        <pt x="378" y="346" on="0"/>
        <pt x="378" y="325" on="1"/>
        <pt x="378" y="287" on="0"/>
        <pt x="350" y="225" on="0"/>
        <pt x="303" y="182" on="0"/>
        <pt x="242" y="159" on="0"/>
        <pt x="208" y="159" on="1"/>
        <pt x="201" y="159" on="0"/>
        <pt x="184" y="160" on="0"/>
        <pt x="177" y="161" on="1"/>
        <pt x="169" y="155" on="0"/>
        <pt x="159" y="141" on="0"/>
        <pt x="159" y="135" on="1"/>
        <pt x="159" y="124" on="0"/>
        <pt x="190" y="111" on="0"/>
        <pt x="240" y="101" on="1"/>
        <pt x="257" y="98" on="1"/>
        <pt x="346" y="80" on="0"/>
        <pt x="429" y="22" on="0"/>
      </contour>
      <contour>
        <pt x="215" y="-117" on="1"/>
        <pt x="277" y="-117" on="0"/>
        <pt x="347" y="-75" on="0"/>
        <pt x="347" y="-44" on="1"/>
        <pt x="347" y="-19" on="0"/>
        <pt x="304" y="12" on="0"/>
        <pt x="242" y="25" on="1"/>
        <pt x="213" y="30" on="1"/>
        <pt x="199" y="33" on="0"/>
        <pt x="177" y="37" on="0"/>
        <pt x="165" y="40" on="1"/>
        <pt x="128" y="21" on="0"/>
        <pt x="92" y="-23" on="0"/>
        <pt x="92" y="-48" on="1"/>
        <pt x="92" y="-79" on="0"/>
        <pt x="155" y="-117" on="0"/>
      </contour>
    </TTGlyph>
</ttFont>
